<?xml version="1.0" encoding="utf-8"?>
<!-- Generator: Adobe Illustrator 16.0.0, SVG Export Plug-In . SVG Version: 6.00 Build 0)  -->
<!DOCTYPE svg PUBLIC "-//W3C//DTD SVG 1.1//EN" "http://www.w3.org/Graphics/SVG/1.1/DTD/svg11.dtd">
<svg version="1.1" xmlns="http://www.w3.org/2000/svg" xmlns:xlink="http://www.w3.org/1999/xlink" x="0px" y="0px" width="32px"
	 height="32px" viewBox="0 0 32 32" enable-background="new 0 0 32 32" xml:space="preserve">
<g id="Account_x2C__mobile_x2C__profile_x2C__setting_x2C__ui_development_x2C__UX_x2C__UI_1_">
	<g id="XMLID_1682_">
		<path id="XMLID_1693_" fill="#FF8A80" d="M26,20c0-1.38-1.12-2.5-2.5-2.5S21,18.62,21,20s1.12,2.5,2.5,2.5S26,21.38,26,20z
			 M28.47,18.83L30,19.17v1.66l-1.53,0.34c-0.13,0.54-0.35,1.05-0.63,1.51L28.69,24l-1.181,1.19l-1.33-0.85
			c-0.46,0.28-0.97,0.5-1.51,0.63l-0.33,1.53h-1.68l-0.33-1.53c-0.54-0.13-1.05-0.35-1.51-0.63l-1.33,0.85L18.31,24l0.851-1.32
			c-0.29-0.46-0.5-0.97-0.63-1.51L17,20.83v-1.66l1.53-0.34c0.13-0.54,0.34-1.05,0.63-1.51l-0.851-1.33l1.181-1.18l1.33,0.85
			c0.46-0.28,0.97-0.5,1.51-0.63l0.33-1.53h1.68l0.33,1.53c0.54,0.13,1.05,0.35,1.51,0.63l1.33-0.85l1.181,1.18l-0.851,1.33
			C28.12,17.78,28.34,18.29,28.47,18.83z"/>
		<g id="mobile_x2C__install_x2C__software_x2C__app_11_">
			<g id="XMLID_1777_">
				<g id="XMLID_1778_">
					<g id="XMLID_1798_">
						<g id="XMLID_1807_">
							<path id="XMLID_1808_" fill="#FFFFFF" d="M22.5,28.5c0,1.1-0.9,2-2,2h-11c-1.1,0-2-0.9-2-2v-25c0-1.1,0.9-2,2-2h11
								c1.1,0,2,0.9,2,2V28.5z"/>
						</g>
					</g>
					<g id="XMLID_1794_">
						<g id="XMLID_1796_">
							<path id="XMLID_1797_" fill="#ECEFF1" d="M22.5,28.494V3.038C22.485,3.023,22.477,3.015,22.462,3H10C9.447,3,9,3.448,9,4v26
								c0.18,0.18,0.279,0.281,0.459,0.46l11.035,0.034C21.601,30.497,22.5,29.601,22.5,28.494z"/>
						</g>
					</g>
					<g id="XMLID_1791_">
						<g id="XMLID_1792_">
							<rect id="XMLID_1793_" x="8" y="4" fill="#80D8FF" width="14.5" height="24"/>
						</g>
					</g>
					<g id="XMLID_1786_">
						<g id="XMLID_1787_">
							<rect id="XMLID_1790_" x="7.5" y="4" fill="#9FE6FF" width="1.5" height="24"/>
						</g>
					</g>
				</g>
			</g>
		</g>
		<path id="XMLID_1776_" fill="#FFF176" d="M9,9.5c1.1,0,2,0.899,2,2c0,1.1-0.9,2-2,2s-2-0.9-2-2C7,10.399,7.9,9.5,9,9.5z"/>
		<path id="XMLID_1740_" fill="#FFF176" d="M10.5,15.5c1.41,0,2.58,0.97,2.9,2.27c-1.16,1.07-2.7,1.73-4.4,1.73s-3.24-0.66-4.4-1.73
			c0.32-1.3,1.49-2.27,2.9-2.27H10.5z"/>
		<path id="XMLID_1896_" fill="#FFFFFF" d="M26,6.5c0.83,0,1.5,0.67,1.5,1.5S26.83,9.5,26,9.5h-6c-0.83,0-1.5-0.67-1.5-1.5
			s0.67-1.5,1.5-1.5H26z"/>
	</g>
	<g id="XMLID_1282_">
		
			<line id="XMLID_1678_" fill="none" stroke="#455A64" stroke-linecap="round" stroke-linejoin="round" stroke-miterlimit="10" x1="13.5" y1="3.5" x2="16.5" y2="3.5"/>
		<path id="XMLID_1677_" fill="none" stroke="#455A64" stroke-linecap="round" stroke-linejoin="round" stroke-miterlimit="10" d="
			M22.5,11.5v17c0,1.1-0.9,2-2,2h-11c-1.1,0-2-0.9-2-2v-7"/>
		<path id="XMLID_1676_" fill="none" stroke="#455A64" stroke-linecap="round" stroke-linejoin="round" stroke-miterlimit="10" d="
			M7.5,4.5v-1c0-1.1,0.9-2,2-2h11c1.1,0,2,0.9,2,2v1"/>
		
			<line id="XMLID_1669_" fill="none" stroke="#455A64" stroke-linecap="round" stroke-linejoin="round" stroke-miterlimit="10" x1="10.5" y1="24.5" x2="14.5" y2="24.5"/>
		
			<line id="XMLID_1294_" fill="none" stroke="#455A64" stroke-linecap="round" stroke-linejoin="round" stroke-miterlimit="10" x1="10.5" y1="26.5" x2="17.5" y2="26.5"/>
		
			<line id="XMLID_1663_" fill="none" stroke="#455A64" stroke-linecap="round" stroke-linejoin="round" stroke-miterlimit="10" x1="10.5" y1="22.5" x2="19.5" y2="22.5"/>
		<path id="XMLID_1647_" fill="none" stroke="#455A64" stroke-miterlimit="10" d="M11,11.5c0,1.1-0.9,2-2,2s-2-0.9-2-2
			c0-1.101,0.9-2,2-2S11,10.399,11,11.5z"/>
		<path id="XMLID_1646_" fill="none" stroke="#455A64" stroke-linecap="round" stroke-linejoin="round" stroke-miterlimit="10" d="
			M9,19.5c1.7,0,3.24-0.66,4.4-1.73c-0.32-1.3-1.49-2.27-2.9-2.27h-3c-1.41,0-2.58,0.97-2.9,2.27C5.76,18.84,7.3,19.5,9,19.5z"/>
		
			<circle id="XMLID_1645_" fill="none" stroke="#455A64" stroke-linecap="round" stroke-linejoin="round" stroke-miterlimit="10" cx="9" cy="13" r="6.5"/>
		<g id="XMLID_1575_">
			
				<line id="XMLID_1641_" fill="none" stroke="#455A64" stroke-linecap="round" stroke-linejoin="round" stroke-miterlimit="10" x1="4.5" y1="22.5" x2="4.5" y2="22.4"/>
			
				<line id="XMLID_1597_" fill="none" stroke="#455A64" stroke-linecap="round" stroke-linejoin="round" stroke-miterlimit="10" x1="4.5" y1="24.5" x2="4.5" y2="24.4"/>
			
				<line id="XMLID_1578_" fill="none" stroke="#455A64" stroke-linecap="round" stroke-linejoin="round" stroke-miterlimit="10" x1="4.5" y1="26.5" x2="4.5" y2="26.4"/>
		</g>
		<path id="XMLID_1295_" fill="none" stroke="#455A64" stroke-linecap="round" stroke-linejoin="round" stroke-miterlimit="10" d="
			M23.5,26.5h0.84l0.33-1.53c0.54-0.13,1.05-0.35,1.51-0.63l1.33,0.85L28.69,24l-0.851-1.32c0.28-0.46,0.5-0.97,0.63-1.51L30,20.83
			v-1.66l-1.53-0.34c-0.13-0.54-0.35-1.05-0.63-1.51l0.851-1.33l-1.181-1.18l-1.33,0.85c-0.46-0.28-0.97-0.5-1.51-0.63l-0.33-1.53
			H23.5"/>
		<path id="XMLID_1874_" fill="none" stroke="#455A64" stroke-linecap="round" stroke-linejoin="round" stroke-miterlimit="10" d="
			M24.553,22.268C25.407,21.871,26,21.004,26,20c0-1.38-1.12-2.5-2.5-2.5c-0.345,0-0.674,0.07-0.973,0.197"/>
		<path id="XMLID_1894_" fill="none" stroke="#455A64" stroke-linecap="round" stroke-linejoin="round" stroke-miterlimit="10" d="
			M26,9.5h-6c-0.83,0-1.5-0.67-1.5-1.5s0.67-1.5,1.5-1.5h6c0.83,0,1.5,0.67,1.5,1.5S26.83,9.5,26,9.5z"/>
	</g>
</g>
</svg>
