<?xml version="1.0" encoding="utf-8"?>
<!-- Generator: Adobe Illustrator 16.0.0, SVG Export Plug-In . SVG Version: 6.00 Build 0)  -->
<!DOCTYPE svg PUBLIC "-//W3C//DTD SVG 1.1//EN" "http://www.w3.org/Graphics/SVG/1.1/DTD/svg11.dtd">
<svg version="1.1" id="_x3C_Layer_x3E_" xmlns="http://www.w3.org/2000/svg" xmlns:xlink="http://www.w3.org/1999/xlink" x="0px"
	 y="0px" width="32px" height="32px" viewBox="0 0 32 32" style="enable-background:new 0 0 32 32;" xml:space="preserve">
<style type="text/css">
<![CDATA[
	.st0{fill:#FFFFFF;stroke:#455A64;stroke-linecap:round;stroke-linejoin:round;stroke-miterlimit:10;}
	.st1{fill:#DEE4E7;stroke:#455A64;stroke-linecap:round;stroke-linejoin:round;stroke-miterlimit:10;}
	.st2{fill:#E6CAA0;}
	.st3{fill:#80D8FF;}
	.st4{fill:#EAD960;}
	.st5{fill:#ECEFF1;}
	.st6{fill:#55FB9B;}
	.st7{fill:none;stroke:#455A64;stroke-miterlimit:10;}
	.st8{fill:none;stroke:#455A64;stroke-linecap:round;stroke-miterlimit:10;}
	.st9{fill:#BCAAA4;}
	.st10{fill:#F27670;}
	.st11{fill:#F2F4F5;}
	.st12{fill:none;stroke:#FF8A80;stroke-linecap:round;stroke-linejoin:round;stroke-miterlimit:10;}
	.st13{fill:#99FFC2;}
	.st14{fill:#FF8A80;}
	.st15{fill:#FFADA9;}
	.st16{fill:#FFE0B2;}
	.st17{fill:#FFF176;}
	.st18{fill:#FFFDA6;}
	.st19{fill:#FFFFFF;}
	.st20{fill:#65C7EA;}
	.st21{fill:#9FE6FF;}
	.st22{fill:none;stroke:#E67C73;stroke-linecap:round;stroke-linejoin:round;stroke-miterlimit:10;}
	.st23{fill:#CFD8DC;}
	.st24{fill:none;stroke:#455A64;stroke-linecap:round;stroke-linejoin:round;stroke-miterlimit:10;}
	.st25{fill:none;stroke:#455A64;stroke-linecap:round;stroke-linejoin:round;}
	.st26{fill:#73C2E6;}
	.st27{fill:#A5908B;}
	.st28{fill:#DEE4E7;}
	.st29{fill:#43E886;}
]]>
</style>
<g id="shopping_cart_ecommerce">
	<g id="XMLID_2_">
		<g id="XMLID_669_">
			<g id="XMLID_670_">
				<circle id="XMLID_1043_" class="st14" cx="24" cy="29" r="1.5"/>
				<circle id="XMLID_671_" class="st14" cx="14" cy="29" r="1.5"/>
			</g>
		</g>
		<g id="XMLID_2048_">
			<path id="XMLID_1048_" class="st19" d="M26.5,10.5c0,4.1-3.4,7.5-7.5,7.5c-4.1,0-7.5-3.4-7.5-7.5C11.5,6.4,14.9,3,19,3
				C23.1,3,26.5,6.4,26.5,10.5z"/>
			<path id="XMLID_2050_" class="st3" d="M26.5,10.5c0-2.3-1-4.3-2.6-5.7c-1-0.5-2.2-0.8-3.4-0.8C16.4,4,13,7.4,13,11.5
				c0,2.3,1,4.3,2.6,5.7c1,0.5,2.2,0.8,3.4,0.8C23.1,18,26.5,14.6,26.5,10.5z"/>
			<path id="XMLID_1047_" class="st20" d="M23.9,4.8c-0.2-0.1-0.3-0.1-0.5-0.2c0.7,1.1,1.1,2.5,1.1,3.9c0,4.1-3.4,7.5-7.5,7.5
				c-1,0-2-0.2-2.9-0.6c0.4,0.7,0.9,1.3,1.5,1.8c1,0.5,2.2,0.8,3.4,0.8c4.1,0,7.5-3.4,7.5-7.5C26.5,8.2,25.5,6.2,23.9,4.8z"/>
		</g>
		<path id="XMLID_2052_" class="st3" d="M13.5,11h12.6H13.5z"/>
	</g>
	<g id="XMLID_39_">
		<circle id="XMLID_666_" class="st24" cx="24" cy="29" r="1.5"/>
		<path id="XMLID_664_" class="st24" d="M28.5,10.5h0.7c0.7,0,1.1,0.6,1,1.3l-2.3,8.4c-0.2,0.8-1,1.4-1.8,1.5l-13.6,0.8
			c-1.1,0.1-1.9,1-1.9,2.1l0,0c0,1.1,0.9,2.1,2.1,2.1H27"/>
		<path id="XMLID_663_" class="st24" d="M1.5,3.5h5.2c0.5,0,0.9,0.3,1,0.8l3.8,18.2"/>
		<line id="XMLID_657_" class="st24" x1="4.4" y1="30.5" x2="4.5" y2="30.5"/>
		<path id="XMLID_254_" class="st24" d="M12.5,29c0-0.8,0.7-1.5,1.5-1.5s1.5,0.7,1.5,1.5s-0.7,1.5-1.5,1.5H6.5"/>
		<path id="XMLID_2064_" class="st24" d="M13.7,15.8c1.7-0.9,3.7-1.3,5.8-1.3c1.8,0,3.5,0.4,5.1,1"/>
		<path id="XMLID_1046_" class="st24" d="M24.5,5.5c-1.5,0.6-3.2,1-5,1c-1.6,0-3.1-0.3-4.5-0.8"/>
		<path id="XMLID_1045_" class="st24" d="M19,18c-2.4-1.6-4-4.4-4-7.5c0-3.1,1.6-5.8,4-7.5"/>
		<path id="XMLID_1044_" class="st24" d="M19,3c2.4,1.6,4,4.4,4,7.5c0,3.1-1.6,5.9-4,7.5"/>
		<path id="XMLID_668_" class="st24" d="M26.5,10.5c0,4.1-3.4,7.5-7.5,7.5c-4.1,0-7.5-3.4-7.5-7.5C11.5,6.4,14.9,3,19,3
			C23.1,3,26.5,6.4,26.5,10.5z"/>
		<line id="XMLID_667_" class="st24" x1="13" y1="10.5" x2="26.5" y2="10.5"/>
		<line id="XMLID_434_" class="st24" x1="1.5" y1="20.5" x2="5.5" y2="20.5"/>
		<line id="XMLID_433_" class="st24" x1="3.5" y1="22.5" x2="8.5" y2="22.5"/>
	</g>
</g>
</svg>
