<?xml version="1.0" encoding="utf-8"?>
<!-- Generator: Adobe Illustrator 16.0.0, SVG Export Plug-In . SVG Version: 6.00 Build 0)  -->
<!DOCTYPE svg PUBLIC "-//W3C//DTD SVG 1.1//EN" "http://www.w3.org/Graphics/SVG/1.1/DTD/svg11.dtd">
<svg version="1.1" xmlns="http://www.w3.org/2000/svg" xmlns:xlink="http://www.w3.org/1999/xlink" x="0px" y="0px" width="32px"
	 height="32px" viewBox="0 0 32 32" style="enable-background:new 0 0 32 32;" xml:space="preserve">
<style type="text/css">
<![CDATA[
	.st0{fill:#80D8FF;}
	.st1{fill:#EAC89B;}
	.st2{fill:#EAD960;}
	.st3{fill:#ECEFF1;}
	.st4{fill:#55FB9B;}
	.st5{fill:none;stroke:#455A64;stroke-miterlimit:10;}
	.st6{fill:none;stroke:#455A64;stroke-linecap:round;stroke-miterlimit:10;}
	.st7{fill:#F27670;}
	.st8{fill:#F2F4F5;}
	.st9{fill:none;stroke:#FFF176;stroke-linecap:round;stroke-linejoin:round;stroke-miterlimit:10;}
	.st10{fill:#F27670;stroke:#455A64;stroke-linecap:round;stroke-linejoin:round;stroke-miterlimit:10;}
	.st11{fill:none;stroke:#FF8A80;stroke-linecap:round;stroke-linejoin:round;stroke-miterlimit:10;}
	.st12{fill:#99FFC2;}
	.st13{fill:#607D8B;}
	.st14{fill:#FF8A80;}
	.st15{fill:#FFADA9;}
	.st16{fill:#FFE0B2;}
	.st17{fill:#FFF176;}
	.st18{fill:#FFF5A2;}
	.st19{fill:#FFFFFF;}
	.st20{fill:#65C7EA;}
	.st21{fill:#9FE6FF;}
	.st22{fill:#CFD8DC;}
	.st23{fill:none;stroke:#455A64;stroke-linecap:round;stroke-linejoin:round;stroke-miterlimit:10;}
	.st24{fill:none;stroke:#455A64;stroke-linecap:round;stroke-linejoin:round;stroke-miterlimit:10;stroke-dasharray:0.1,2;}
	.st25{fill:#73C2E6;}
	.st26{fill:#78909C;}
	.st27{fill:#43E886;}
	.st28{fill:#455A64;}
]]>
</style>
<g id="graphics_x2C__computer_graphics_x2C__laptop_x2C__brush">
	<g>
		<path class="st3" d="M28.5,24V7.5c0-0.6-0.4-1-1-1h-23c-0.6,0-1,0.4-1,1V24H28.5z"/>
		<rect x="5" y="8" class="st4" width="22" height="16"/>
		<polygon class="st27" points="27,20 8.5,20 22.5,8 27,8 		"/>
		<path class="st26" d="M12.5,25.5h-11c0,1.1,0.9,2,2,2h25c1.1,0,2-0.9,2-2h-11H12.5z"/>
		<path class="st1" d="M17.5,14.5c0,2.8-2.2,5-5,5h-4l0,0c1.7,0,3-1.3,3-3l0,0c0-2.2,1.8-4,4-4l0,0C16.6,12.5,17.5,13.4,17.5,14.5
			L17.5,14.5z"/>
		<path class="st16" d="M13,16.5c0-1.9,1.3-3.5,3.1-3.9c-0.2-0.1-0.4-0.1-0.6-0.1c-2.2,0-4,1.8-4,4c0,1.7-1.3,3-3,3H10
			C11.7,19.5,13,18.2,13,16.5z"/>
		<path class="st2" d="M17.5,12L17.5,12c-0.3-0.3-0.3-0.7-0.1-1l3.8-5.4C22.9,3,25.9,1.5,29,1.5l0,0L18.5,12
			C18.2,12.3,17.8,12.3,17.5,12z"/>
		<path class="st17" d="M17.6,12.1l3.5-5c1.5-2.1,3.7-3.5,6.2-3.9L29,1.5c-3.1,0-6.1,1.5-7.9,4.1L17.4,11c-0.2,0.3-0.2,0.7,0.1,1
			C17.5,12,17.6,12,17.6,12.1z"/>
	</g>
	<g>
		<path class="st23" d="M18,6.5H4.5c-0.6,0-1,0.4-1,1v16"/>
		<path class="st23" d="M28.5,23.5v-16c0-0.6-0.4-1-1-1h-1"/>
		<path class="st23" d="M17.4,13.8c0.1,0.2,0.1,0.4,0.1,0.7l0,0c0,2.8-2.2,5-5,5h-4l0,0c1.7,0,3-1.3,3-3l0,0c0-2.2,1.8-4,4-4l0,0"/>
		<path class="st23" d="M17.5,12L17.5,12c-0.3-0.3-0.3-0.7-0.1-1l3.8-5.4C22.9,3,25.9,1.5,29,1.5l0,0L18.5,12
			C18.2,12.3,17.8,12.3,17.5,12z"/>
		<path id="XMLID_91_" class="st23" d="M12.5,25.5h-11c0,1.1,0.9,2,2,2h25c1.1,0,2-0.9,2-2h-11"/>
	</g>
</g>
</svg>
