<?xml version="1.0" encoding="utf-8"?>
<!-- Generator: Adobe Illustrator 16.0.0, SVG Export Plug-In . SVG Version: 6.00 Build 0)  -->
<!DOCTYPE svg PUBLIC "-//W3C//DTD SVG 1.1//EN" "http://www.w3.org/Graphics/SVG/1.1/DTD/svg11.dtd">
<svg version="1.1" id="Layer_1" xmlns="http://www.w3.org/2000/svg" xmlns:xlink="http://www.w3.org/1999/xlink" x="0px" y="0px"
	 width="32px" height="32px" viewBox="0 0 32 32" enable-background="new 0 0 32 32" xml:space="preserve">
<g id="digital_marketing_3_">
	<g id="XMLID_234_">
		<path id="XMLID_5963_" fill="#78909C" d="M19.5,27.5h11c0,1.104-0.896,2-2,2h-25c-1.104,0-2-0.896-2-2h11H19.5z"/>
		<path id="XMLID_5958_" fill="#ECEFF1" d="M3.5,26V9.5c0-0.553,0.447-1,1-1h23c0.553,0,1,0.447,1,1V26H3.5z"/>
		<rect id="XMLID_5951_" x="5" y="10" fill="#A9E4FF" width="22" height="16"/>
		<rect id="XMLID_254_" x="6.5" y="15.5" fill="#FF8A80" width="12" height="9"/>
		<path id="XMLID_252_" fill="#FFFFFF" d="M25.5,4.5v8c0,0.55-0.45,1-1,1H23l-2.5,4v-4h-6c-0.55,0-1-0.45-1-1v-8c0-0.55,0.45-1,1-1
			h10C25.05,3.5,25.5,3.95,25.5,4.5z"/>
		<polygon id="XMLID_255_" fill="#FFFFFF" points="15,20 10.5,22 10.5,18 		"/>
	</g>
	<g id="XMLID_233_">
		
			<polygon id="XMLID_249_" fill="none" stroke="#455A64" stroke-linecap="round" stroke-linejoin="round" stroke-miterlimit="10" points="
			10.5,22 15,20 10.5,18 		"/>
		
			<line id="XMLID_5934_" fill="none" stroke="#455A64" stroke-linecap="round" stroke-linejoin="round" stroke-miterlimit="10" x1="16" y1="9.5" x2="20" y2="9.5"/>
		
			<line id="XMLID_5933_" fill="none" stroke="#455A64" stroke-linecap="round" stroke-linejoin="round" stroke-miterlimit="10" x1="16" y1="7.5" x2="23" y2="7.5"/>
		<path id="XMLID_5955_" fill="none" stroke="#455A64" stroke-linecap="round" stroke-linejoin="round" stroke-miterlimit="10" d="
			M27.5,8.5L27.5,8.5c0.553,0,1,0.447,1,1v16"/>
		<path id="XMLID_5954_" fill="none" stroke="#455A64" stroke-linecap="round" stroke-linejoin="round" stroke-miterlimit="10" d="
			M3.5,25.5v-16c0-0.553,0.447-1,1-1h7"/>
		
			<rect id="XMLID_251_" x="6.5" y="15.5" fill="none" stroke="#455A64" stroke-linecap="round" stroke-linejoin="round" stroke-miterlimit="10" width="12" height="9"/>
		<path id="XMLID_250_" fill="none" stroke="#455A64" stroke-linecap="round" stroke-linejoin="round" stroke-miterlimit="10" d="
			M13.5,4.5v8c0,0.55,0.45,1,1,1h6v4l2.5-4h1.5c0.55,0,1-0.45,1-1v-8c0-0.55-0.45-1-1-1h-10C13.95,3.5,13.5,3.95,13.5,4.5z"/>
		
			<line id="XMLID_238_" fill="none" stroke="#455A64" stroke-linecap="round" stroke-linejoin="round" stroke-miterlimit="10" x1="21.5" y1="24.502" x2="21.4" y2="24.502"/>
		
			<line id="XMLID_237_" fill="none" stroke="#455A64" stroke-linecap="round" stroke-linejoin="round" stroke-miterlimit="10" x1="23.5" y1="24.502" x2="23.4" y2="24.502"/>
		
			<line id="XMLID_236_" fill="none" stroke="#455A64" stroke-linecap="round" stroke-linejoin="round" stroke-miterlimit="10" x1="25.5" y1="24.502" x2="25.4" y2="24.502"/>
		
			<line id="XMLID_184_" fill="none" stroke="#455A64" stroke-linecap="round" stroke-linejoin="round" stroke-miterlimit="10" x1="6.6" y1="6.502" x2="6.5" y2="6.502"/>
		
			<line id="XMLID_183_" fill="none" stroke="#455A64" stroke-linecap="round" stroke-linejoin="round" stroke-miterlimit="10" x1="8.6" y1="6.502" x2="8.5" y2="6.502"/>
		
			<line id="XMLID_182_" fill="none" stroke="#455A64" stroke-linecap="round" stroke-linejoin="round" stroke-miterlimit="10" x1="10.6" y1="6.502" x2="10.5" y2="6.502"/>
		<path id="XMLID_232_" fill="none" stroke="#455A64" stroke-linecap="round" stroke-linejoin="round" stroke-miterlimit="10" d="
			M12.5,27.5h-11c0,1.104,0.896,2,2,2h25c1.104,0,2-0.896,2-2h-11"/>
	</g>
</g>
</svg>
