<?xml version="1.0" encoding="utf-8"?>
<!-- Generator: Adobe Illustrator 16.0.0, SVG Export Plug-In . SVG Version: 6.00 Build 0)  -->
<!DOCTYPE svg PUBLIC "-//W3C//DTD SVG 1.1//EN" "http://www.w3.org/Graphics/SVG/1.1/DTD/svg11.dtd">
<svg version="1.1" id="_x3C_Layer_x3E_" xmlns="http://www.w3.org/2000/svg" xmlns:xlink="http://www.w3.org/1999/xlink" x="0px"
	 y="0px" width="32px" height="32px" viewBox="0 0 32 32" enable-background="new 0 0 32 32" xml:space="preserve">
<g id="page_speed_optimization_seo">
	<g>
		<g>
			<path fill="#CFD8DC" d="M3.501,7.5L3.5,4.5c0-0.552,0.448-1,1-1H27.5c0.552,0,1,0.448,1,1l-0.001,3H3.501z"/>
			<path fill="#FFFFFF" d="M28.5,5h-25V4.501c0-0.552,0.448-1,1-1h23c0.552,0,1,0.448,1,1V5z"/>
			<rect x="3.5" y="7.5" fill="#FFFFFF" width="25" height="1.5"/>
		</g>
		<g>
			<path fill="#F2F4F5" d="M28.5,14V8.5c0-0.55-0.45-1-1-1h-25c-0.55,0-1,0.45-1,1v20c0,0.55,0.45,1,1,1h25c0.55,0,1-0.45,1-1V27V14
				z"/>
			<path fill="#80D8FF" d="M1.501,11.5L1.5,8.5c0-0.552,0.448-1,1-1H27.5c0.552,0,1,0.448,1,1l-0.001,3H1.501z"/>
			<path fill="#FFFFFF" d="M28.5,9h-27V8.501c0-0.552,0.448-1,1-1h25c0.552,0,1,0.448,1,1V9z"/>
			<rect x="1.5" y="11.5" fill="#FFFFFF" width="27" height="1.5"/>
		</g>
		<path fill="#55FB9B" d="M27,1.5l-3.5,6h2v7c0,13.75-8.502,15-10,15c6.498,0,13-3.813,13-15c0-1.344,0-7,0-7h2L27,1.5z"/>
		<circle fill="#FFFFFF" cx="11.5" cy="22.5" r="7"/>
		<path fill="#FFADA9" d="M17,22.5h-5.5V17C14.537,17,17,19.463,17,22.5z"/>
		<circle fill="#DEE4E7" cx="11.5" cy="22.5" r="1"/>
	</g>
	<g>
		
			<circle fill="none" stroke="#455A64" stroke-linecap="round" stroke-linejoin="round" stroke-miterlimit="10" cx="11.5" cy="22.5" r="1"/>
		
			<line fill="none" stroke="#455A64" stroke-linecap="round" stroke-linejoin="round" stroke-miterlimit="10" x1="10.5" y1="13.5" x2="12.5" y2="13.5"/>
		
			<line fill="none" stroke="#455A64" stroke-linecap="round" stroke-linejoin="round" stroke-miterlimit="10" x1="15.614" y1="16.837" x2="16.496" y2="15.624"/>
		
			<line fill="none" stroke="#455A64" stroke-linecap="round" stroke-linejoin="round" stroke-miterlimit="10" x1="6.504" y1="15.623" x2="7.386" y2="16.837"/>
		<path fill="none" stroke="#455A64" stroke-linecap="round" stroke-linejoin="round" stroke-miterlimit="10" d="M3.5,5.5v-1
			c0-0.55,0.45-1,1-1h19"/>
		<path fill="none" stroke="#455A64" stroke-linecap="round" stroke-linejoin="round" stroke-miterlimit="10" d="M28.5,22v6.5
			c0,0.55-0.45,1-1,1h-3"/>
		<path fill="none" stroke="#455A64" stroke-linecap="round" stroke-linejoin="round" stroke-miterlimit="10" d="M13.5,29.5h-11
			c-0.55,0-1-0.45-1-1v-20c0-0.55,0.45-1,1-1h19"/>
		
			<line fill="none" stroke="#455A64" stroke-linecap="round" stroke-linejoin="round" stroke-miterlimit="10" x1="28.5" y1="16.6" x2="28.5" y2="16.5"/>
		<path fill="none" stroke="#455A64" stroke-linecap="round" stroke-linejoin="round" stroke-miterlimit="10" d="M28.5,14.5
			c0-1.344,0-7,0-7h2l-3.5-6l-3.5,6h2v7c0,12.938-7.002,15-11,15h-1.002"/>
		<path fill="none" stroke="#455A64" stroke-linecap="round" stroke-linejoin="round" stroke-miterlimit="10" d="M6.583,27.483
			C5.297,26.214,4.5,24.451,4.5,22.5c0-3.866,3.133-7,7-7c3.866,0,7,3.134,7,7c0,1.925-0.777,3.669-2.034,4.934"/>
		
			<line fill="none" stroke="#455A64" stroke-linecap="round" stroke-linejoin="round" stroke-miterlimit="10" x1="13.95" y1="18.256" x2="14" y2="18.17"/>
		
			<line fill="none" stroke="#455A64" stroke-linecap="round" stroke-linejoin="round" stroke-miterlimit="10" x1="9.05" y1="26.744" x2="9" y2="26.83"/>
		
			<line fill="none" stroke="#455A64" stroke-linecap="round" stroke-linejoin="round" stroke-miterlimit="10" x1="15.744" y1="20.05" x2="15.83" y2="20"/>
		
			<line fill="none" stroke="#455A64" stroke-linecap="round" stroke-linejoin="round" stroke-miterlimit="10" x1="7.256" y1="24.95" x2="7.17" y2="25"/>
		
			<line fill="none" stroke="#455A64" stroke-linecap="round" stroke-linejoin="round" stroke-miterlimit="10" x1="16.4" y1="22.5" x2="16.5" y2="22.5"/>
		
			<line fill="none" stroke="#455A64" stroke-linecap="round" stroke-linejoin="round" stroke-miterlimit="10" x1="6.6" y1="22.5" x2="6.5" y2="22.5"/>
		
			<line fill="none" stroke="#455A64" stroke-linecap="round" stroke-linejoin="round" stroke-miterlimit="10" x1="15.744" y1="24.95" x2="15.83" y2="25"/>
		
			<line fill="none" stroke="#455A64" stroke-linecap="round" stroke-linejoin="round" stroke-miterlimit="10" x1="7.256" y1="20.05" x2="7.17" y2="20"/>
		
			<line fill="none" stroke="#455A64" stroke-linecap="round" stroke-linejoin="round" stroke-miterlimit="10" x1="13.95" y1="26.744" x2="14" y2="26.83"/>
		
			<line fill="none" stroke="#455A64" stroke-linecap="round" stroke-linejoin="round" stroke-miterlimit="10" x1="9.05" y1="18.256" x2="9" y2="18.17"/>
		
			<line fill="none" stroke="#455A64" stroke-linecap="round" stroke-linejoin="round" stroke-miterlimit="10" x1="11.5" y1="27.4" x2="11.5" y2="27.5"/>
		
			<line fill="none" stroke="#455A64" stroke-linecap="round" stroke-linejoin="round" stroke-miterlimit="10" x1="11.5" y1="17.6" x2="11.5" y2="17.5"/>
		
			<line fill="none" stroke="#455A64" stroke-linecap="round" stroke-linejoin="round" stroke-miterlimit="10" x1="11.5" y1="21.5" x2="11.5" y2="19.5"/>
		
			<line fill="none" stroke="#455A64" stroke-linecap="round" stroke-linejoin="round" stroke-miterlimit="10" x1="11.5" y1="15.5" x2="11.5" y2="13.5"/>
		
			<line fill="none" stroke="#455A64" stroke-linecap="round" stroke-linejoin="round" stroke-miterlimit="10" x1="22.5" y1="11.5" x2="1.5" y2="11.5"/>
		
			<line id="XMLID_127_" fill="none" stroke="#455A64" stroke-linecap="round" stroke-linejoin="round" stroke-miterlimit="10" x1="9.6" y1="5.5" x2="9.5" y2="5.5"/>
		
			<line id="XMLID_126_" fill="none" stroke="#455A64" stroke-linecap="round" stroke-linejoin="round" stroke-miterlimit="10" x1="7.6" y1="5.5" x2="7.5" y2="5.5"/>
		
			<line id="XMLID_125_" fill="none" stroke="#455A64" stroke-linecap="round" stroke-linejoin="round" stroke-miterlimit="10" x1="5.6" y1="5.5" x2="5.5" y2="5.5"/>
		
			<line id="XMLID_120_" fill="none" stroke="#455A64" stroke-linecap="round" stroke-linejoin="round" stroke-miterlimit="10" x1="7.6" y1="9.5" x2="7.5" y2="9.5"/>
		
			<line id="XMLID_119_" fill="none" stroke="#455A64" stroke-linecap="round" stroke-linejoin="round" stroke-miterlimit="10" x1="5.6" y1="9.5" x2="5.5" y2="9.5"/>
		
			<line id="XMLID_108_" fill="none" stroke="#455A64" stroke-linecap="round" stroke-linejoin="round" stroke-miterlimit="10" x1="3.6" y1="9.5" x2="3.5" y2="9.5"/>
	</g>
</g>
</svg>
