<?xml version="1.0" encoding="utf-8"?>
<!-- Generator: Adobe Illustrator 16.0.0, SVG Export Plug-In . SVG Version: 6.00 Build 0)  -->
<!DOCTYPE svg PUBLIC "-//W3C//DTD SVG 1.1//EN" "http://www.w3.org/Graphics/SVG/1.1/DTD/svg11.dtd">
<svg version="1.1" id="_x3C_Layer_x3E_" xmlns="http://www.w3.org/2000/svg" xmlns:xlink="http://www.w3.org/1999/xlink" x="0px"
	 y="0px" width="32px" height="32px" viewBox="0 0 32 32" enable-background="new 0 0 32 32" xml:space="preserve">
<g id="ui_design_mobile_phone_pencil">
	<g>
		<path fill="#FF8A80" d="M28.5,7.5c0,1.65-1.35,3-3,3h-2c-1.65,0-3-1.35-3-3v-3c0-1.65,1.35-3,3-3h2c1.65,0,3,1.35,3,3V7.5z"/>
		<path fill="#F27670" d="M26.5,5.625V4.5c0-1.65-1.35-3-3-3h2c1.65,0,3,1.35,3,3v1.125H26.5z"/>
		<path fill="#FFFFFF" d="M22.5,5.625V4.5c0-1.65,1.35-3,3-3h-2c-1.65,0-3,1.35-3,3v1.125H22.5z"/>
		<rect x="20.5" y="5.5" fill="#80D8FF" width="8" height="17"/>
		<rect x="26.5" y="5.5" fill="#65C7EA" width="2" height="17"/>
		<rect x="20.5" y="5.5" fill="#FFFFFF" width="2" height="17"/>
		<path fill="#FFE0B2" d="M25.313,29.672c-0.449,1.01-1.176,1.01-1.625,0L20.5,22.5l2-1.5l2,1.5l2-1.5l2,1.5L25.313,29.672z"/>
		<path fill="#80D8FF" d="M22.223,26.375l1.465,3.297c0.449,1.01,1.176,1.01,1.625,0l1.465-3.297H22.223z"/>
		<path id="XMLID_232_" fill="#FFFFFF" d="M17.5,28.5c0,1.1-0.9,2-2,2h-11c-1.1,0-2-0.9-2-2v-25c0-1.1,0.9-2,2-2h11c1.1,0,2,0.9,2,2
			V28.5z"/>
		<path id="XMLID_230_" fill="#ECEFF1" d="M17.5,29.578V3.038C17.378,3.015,17.128,3,17,3H5C4.447,3,4,3.447,4,4v26
			c0,0.158,0.023,0.311,0.059,0.459h12.577C16.831,30.128,17.207,29.835,17.5,29.578z"/>
		<rect id="XMLID_229_" x="3" y="4" fill="#80D8FF" width="14.5" height="24"/>
		<rect id="XMLID_228_" x="3" y="4" fill="#A9E4FF" width="1" height="24"/>
	</g>
	<g>
		
			<line fill="none" stroke="#455A64" stroke-linecap="round" stroke-linejoin="round" stroke-miterlimit="10" x1="22.5" y1="7.5" x2="22.5" y2="7.6"/>
		
			<line fill="none" stroke="#455A64" stroke-linecap="round" stroke-linejoin="round" stroke-miterlimit="10" x1="22.5" y1="9.5" x2="22.5" y2="21"/>
		
			<line fill="none" stroke="#455A64" stroke-linecap="round" stroke-linejoin="round" stroke-miterlimit="10" x1="24.5" y1="26.5" x2="26.5" y2="26.5"/>
		
			<line fill="none" stroke="#455A64" stroke-linecap="round" stroke-linejoin="round" stroke-miterlimit="10" x1="30.5" y1="30.5" x2="30.4" y2="30.5"/>
		
			<line fill="none" stroke="#455A64" stroke-linecap="round" stroke-linejoin="round" stroke-miterlimit="10" x1="28.5" y1="30.5" x2="24.5" y2="30.5"/>
		<path fill="none" stroke="#455A64" stroke-linecap="round" stroke-linejoin="round" stroke-miterlimit="10" d="M20.5,5.5v-1
			c0-1.65,1.35-3,3-3h2c1.65,0,3,1.35,3,3v3"/>
		<polyline fill="none" stroke="#455A64" stroke-linecap="round" stroke-linejoin="round" stroke-miterlimit="10" points="22.5,21 
			24.5,22.5 26.5,21 28.5,22.5 24.5,30.5 20.5,22.5 		"/>
		
			<line fill="none" stroke="#455A64" stroke-linecap="round" stroke-linejoin="round" stroke-miterlimit="10" x1="20.5" y1="22.5" x2="20.5" y2="7.5"/>
		<polyline fill="none" stroke="#455A64" stroke-linecap="round" stroke-linejoin="round" stroke-miterlimit="10" points="20.5,5.5 
			28.5,5.5 28.5,22.5 		"/>
		
			<line id="XMLID_227_" fill="none" stroke="#455A64" stroke-linecap="round" stroke-linejoin="round" stroke-miterlimit="10" x1="8.5" y1="3.5" x2="11.5" y2="3.5"/>
		<path id="XMLID_226_" fill="none" stroke="#455A64" stroke-linecap="round" stroke-linejoin="round" stroke-miterlimit="10" d="
			M17.5,28.5c0,1.1-0.9,2-2,2h-11c-1.1,0-2-0.9-2-2v-25c0-1.1,0.9-2,2-2h11c1.1,0,2,0.9,2,2V28.5z"/>
		
			<line fill="#A9E4FF" stroke="#455A64" stroke-linecap="round" stroke-linejoin="round" stroke-miterlimit="10" x1="26.5" y1="7.5" x2="26.5" y2="21"/>
	</g>
</g>
</svg>
