<?xml version="1.0" encoding="utf-8"?>
<!-- Generator: Adobe Illustrator 16.0.0, SVG Export Plug-In . SVG Version: 6.00 Build 0)  -->
<!DOCTYPE svg PUBLIC "-//W3C//DTD SVG 1.1//EN" "http://www.w3.org/Graphics/SVG/1.1/DTD/svg11.dtd">
<svg version="1.1" id="_x3C_Layer_x3E_" xmlns="http://www.w3.org/2000/svg" xmlns:xlink="http://www.w3.org/1999/xlink" x="0px"
	 y="0px" width="32px" height="32px" viewBox="0 0 32 32" enable-background="new 0 0 32 32" xml:space="preserve">
<g id="code_coding_laptop">
	<g>
		<path fill="#FFFFFF" d="M28.5,25V8.5c0-0.553-0.447-1-1-1h-23c-0.553,0-1,0.447-1,1V25H28.5z"/>
		<rect x="5" y="9" fill="#55FB9B" width="22" height="16"/>
		<path fill="#78909C" d="M12.5,26.5h-11c0,1.104,0.896,2,2,2h25c1.104,0,2-0.896,2-2h-11H12.5z"/>
	</g>
	<g>
		<path fill="none" stroke="#455A64" stroke-linecap="round" stroke-miterlimit="10" d="M28.5,24.5v-16c0-0.553-0.447-1-1-1h-23
			c-0.553,0-1,0.447-1,1v16"/>
		<polyline fill="none" stroke="#455A64" stroke-linecap="round" stroke-linejoin="round" stroke-miterlimit="10" points="
			12.559,14.323 9.5,17 12.559,19.677 		"/>
		
			<line fill="none" stroke="#455A64" stroke-linecap="round" stroke-linejoin="round" stroke-miterlimit="10" x1="17.366" y1="12.903" x2="14.634" y2="21.097"/>
		<polyline fill="none" stroke="#455A64" stroke-linecap="round" stroke-linejoin="round" stroke-miterlimit="10" points="
			19.441,14.323 22.5,17 19.441,19.677 		"/>
		<path id="XMLID_188_" fill="none" stroke="#455A64" stroke-linecap="round" stroke-linejoin="round" stroke-miterlimit="10" d="
			M12.5,26.5h-11c0,1.104,0.896,2,2,2h25c1.104,0,2-0.896,2-2h-11"/>
	</g>
</g>
</svg>
