<?xml version="1.0" encoding="utf-8"?>
<!-- Generator: Adobe Illustrator 16.0.0, SVG Export Plug-In . SVG Version: 6.00 Build 0)  -->
<!DOCTYPE svg PUBLIC "-//W3C//DTD SVG 1.1//EN" "http://www.w3.org/Graphics/SVG/1.1/DTD/svg11.dtd">
<svg version="1.1" id="_x3C_Layer_x3E_" xmlns="http://www.w3.org/2000/svg" xmlns:xlink="http://www.w3.org/1999/xlink" x="0px"
	 y="0px" width="32px" height="32px" viewBox="0 0 32 32" enable-background="new 0 0 32 32" xml:space="preserve">
<g id="web_design_edit_pencil_website">
	<g>
		<path fill="#F2F4F5" d="M30.5,13V6.5c0-1.65-1.35-3-3-3h-25c-0.55,0-1,0.45-1,1v23c0,0.55,0.45,1,1,1h27c0.55,0,1-0.45,1-1V26V13z
			"/>
		<path fill="#99FFC2" d="M1.501,7.5L1.5,4.5c0-0.552,0.448-1,1-1H28c0.552,0,1,0.448,1,1l-0.001,3H1.501z"/>
		<path fill="#FFFFFF" d="M29,5H1.5V4.501c0-0.552,0.448-1,1-1H28c0.552,0,1,0.448,1,1V5z"/>
		<rect x="1.5" y="7.5" fill="#FFFFFF" width="29" height="1.5"/>
		<path fill="#DEE4E7" d="M30.5,17V6h-7c-0.55,0-18,21.5-18,21.5l4.5,1L30.5,17z"/>
		<circle fill="#FF8A80" cx="26.5" cy="27.5" r="0.5"/>
		<path fill="#ECEFF1" d="M27.539,11.218c-1.167,1.167-3.076,1.167-4.243,0l-1.414-1.414c-1.167-1.167-1.167-3.076,0-4.243
			l2.121-2.121c1.167-1.167,3.076-1.167,4.243,0l1.414,1.414c1.167,1.167,1.167,3.076,0,4.243L27.539,11.218z"/>
		<path fill="#CFD8DC" d="M27.451,8.478l0.795-0.796c1.167-1.167,1.167-3.075,0-4.242l1.414,1.414c1.167,1.167,1.167,3.076,0,4.243
			l-0.795,0.795L27.451,8.478z"/>
		<path fill="#FFFFFF" d="M24.622,5.649l0.795-0.795c1.167-1.167,3.076-1.167,4.243,0L28.246,3.44c-1.167-1.167-3.076-1.167-4.243,0
			l-0.795,0.795L24.622,5.649z"/>
		<polygon fill="#FF8A80" points="13.933,24.825 8.979,19.833 24,4.813 28.953,9.804 		"/>
		
			<rect x="10.115" y="15.607" transform="matrix(0.7071 -0.7071 0.7071 0.7071 -5.6697 19.5262)" fill="#F27670" width="21.243" height="2"/>
		
			<rect x="5.872" y="11.364" transform="matrix(0.7071 -0.7071 0.7071 0.7071 -3.9123 15.2836)" fill="#FFFFFF" width="21.243" height="2"/>
		<path fill="#FFE0B2" d="M6.607,27.642c-1.032,0.396-1.545-0.118-1.149-1.149l2.817-7.325l2.475,0.354l0.354,2.475l2.475,0.354
			l0.354,2.475L6.607,27.642z"/>
		<g>
			<path fill="#FF8A80" d="M24.5,28H6c-0.276,0-0.5-0.224-0.5-0.5S5.724,27,6,27h18.5c0.276,0,0.5,0.224,0.5,0.5S24.776,28,24.5,28z
				"/>
		</g>
		<path fill="#FF8A80" d="M6.753,23.126l-1.295,3.367c-0.396,1.032,0.118,1.545,1.149,1.149l3.367-1.296L6.753,23.126z"/>
	</g>
	<g>
		<path fill="none" stroke="#455A64" stroke-linecap="round" stroke-linejoin="round" stroke-miterlimit="10" d="M8.5,28.5h21
			c0.55,0,1-0.45,1-1v-16"/>
		
			<line id="XMLID_132_" fill="none" stroke="#455A64" stroke-linecap="round" stroke-linejoin="round" stroke-miterlimit="10" x1="7.6" y1="5.5" x2="7.5" y2="5.5"/>
		
			<line id="XMLID_131_" fill="none" stroke="#455A64" stroke-linecap="round" stroke-linejoin="round" stroke-miterlimit="10" x1="5.6" y1="5.5" x2="5.5" y2="5.5"/>
		
			<line id="XMLID_130_" fill="none" stroke="#455A64" stroke-linecap="round" stroke-linejoin="round" stroke-miterlimit="10" x1="3.6" y1="5.5" x2="3.5" y2="5.5"/>
		<path fill="none" stroke="#455A64" stroke-linecap="round" stroke-linejoin="round" stroke-miterlimit="10" d="M21.5,3.5h-19
			c-0.55,0-1,0.45-1,1v23c0,0.55,0.45,1,1,1h1"/>
		<path fill="none" stroke="#455A64" stroke-linecap="round" stroke-linejoin="round" stroke-miterlimit="10" d="M23.296,4.147
			l0.707-0.707c1.167-1.167,3.076-1.167,4.243,0l1.414,1.414c1.167,1.167,1.167,3.076,0,4.243l-2.121,2.121"/>
		<polyline fill="none" stroke="#455A64" stroke-linecap="round" stroke-linejoin="round" stroke-miterlimit="10" points="
			10.75,19.521 11.104,21.996 13.579,22.35 13.933,24.825 5.567,27.533 8.275,19.167 		"/>
		
			<line fill="none" stroke="#455A64" stroke-linecap="round" stroke-linejoin="round" stroke-miterlimit="10" x1="26.125" y1="9.804" x2="13.579" y2="22.35"/>
		
			<line fill="none" stroke="#455A64" stroke-linecap="round" stroke-linejoin="round" stroke-miterlimit="10" x1="23.296" y1="6.976" x2="23.208" y2="7.063"/>
		
			<line fill="none" stroke="#455A64" stroke-linecap="round" stroke-linejoin="round" stroke-miterlimit="10" x1="21.882" y1="8.39" x2="10.75" y2="19.521"/>
		
			<line fill="none" stroke="#455A64" stroke-linecap="round" stroke-linejoin="round" stroke-miterlimit="10" x1="8.275" y1="24.825" x2="9.49" y2="26.039"/>
		
			<line fill="none" stroke="#455A64" stroke-linecap="round" stroke-linejoin="round" stroke-miterlimit="10" x1="8.275" y1="19.167" x2="21.882" y2="5.561"/>
		<polyline fill="none" stroke="#455A64" stroke-linecap="round" stroke-linejoin="round" stroke-miterlimit="10" points="
			23.296,4.147 28.953,9.804 13.933,24.825 		"/>
		
			<line fill="none" stroke="#455A64" stroke-linecap="round" stroke-linejoin="round" stroke-miterlimit="10" x1="1.5" y1="7.5" x2="16.5" y2="7.5"/>
	</g>
</g>
</svg>
