<?xml version="1.0" encoding="utf-8"?>
<!-- Generator: Adobe Illustrator 23.0.1, SVG Export Plug-In . SVG Version: 6.00 Build 0)  -->
<svg version="1.0" id="Layer_1" xmlns="http://www.w3.org/2000/svg" xmlns:xlink="http://www.w3.org/1999/xlink" x="0px" y="0px"
	 viewBox="0 0 595.28 841.89" style="enable-background:new 0 0 595.28 841.89;" xml:space="preserve">
<style type="text/css">
	.st0{fill:#141414;}
	.st1{fill:#2B2B2B;}
	.st2{fill:#131313;}
	.st3{fill:#5D5D5D;}
	.st4{fill:#2F2F2F;}
	.st5{fill:#6E6E6E;}
	.st6{fill:#797979;}
	.st7{fill:#0AC4FF;}
</style>
<path class="st0" d="M93.6,297.89c1.51,1.71,0.53,3.75,0.77,5.63c-0.27,0.33-0.53,0.32-0.77-0.03
	C93.6,301.62,93.6,299.76,93.6,297.89z"/>
<path class="st1" d="M93.6,303.49c0.26,0,0.51,0.01,0.77,0.03c-0.02,1.89-0.05,3.77-0.07,5.65c-0.27,0.26-0.5,0.25-0.7-0.08
	C93.6,307.22,93.6,305.36,93.6,303.49z"/>
<path class="st2" d="M415.2,626.69c1.71-1.53,3.76-0.51,5.64-0.76c0.23,0.18,0.3,0.36,0.21,0.52c-0.09,0.16-0.17,0.24-0.26,0.24
	C418.93,626.69,417.07,626.69,415.2,626.69z"/>
<path class="st3" d="M93.6,309.09c0.24,0.01,0.47,0.04,0.7,0.08c0,1.61,0,3.22,0,4.82c-0.23-0.05-0.47-0.08-0.7-0.11
	C93.6,312.29,93.6,310.69,93.6,309.09z"/>
<path class="st4" d="M420.8,626.69c0-0.25,0.02-0.51,0.04-0.76c1.62,0.02,3.24,0.05,4.86,0.07c0.18,0.18,0.23,0.35,0.14,0.49
	c-0.08,0.13-0.16,0.2-0.24,0.2C424,626.69,422.4,626.69,420.8,626.69z"/>
<path class="st5" d="M425.6,626.69c0.01-0.23,0.04-0.46,0.1-0.69c1.33,0,2.66-0.01,3.99-0.01c-0.12,0.22-0.16,0.45-0.1,0.7
	C428.27,626.69,426.93,626.69,425.6,626.69z"/>
<path class="st6" d="M93.6,293.09c1.18,0.53,1.01,1.07,0,1.6C93.6,294.16,93.6,293.62,93.6,293.09z"/>
<path class="st7" d="M455.23,397.28c0,0.97,0.12,2.85-0.03,4.7c-0.28,3.55-2.46,5.64-5.82,6.1c-3.41,0.46-5.89-1.18-7.14-4.47
	c-0.63-1.66-0.61-3.39-0.66-5.13c-1.51-49.71-33.61-92.48-80.97-107.64c-9.14-2.92-18.54-4.78-28.2-5.04
	c-2.26-0.06-4.53-0.25-6.78-0.52c-4.36-0.52-6.74-3.1-6.6-7c0.14-3.85,3.2-6.74,7.57-6.48c6.5,0.38,13.02,0.58,19.49,1.68
	c36.38,6.21,65.2,24.49,86.33,54.57C446.74,348.46,454.11,371.43,455.23,397.28z"/>
<path class="st7" d="M330.32,312.82c46.08,2.13,83.85,41.27,84.06,87.28c0.02,4.74-2.48,7.88-6.45,8.11
	c-4.03,0.23-6.97-2.88-7.15-7.87c-0.83-22.47-9.43-41.31-26.52-55.99c-12.71-10.92-27.56-16.86-44.36-17.75
	c-1.72-0.09-3.46-0.21-5.15-0.53c-3.82-0.74-5.87-3.33-5.69-6.95c0.18-3.51,2.69-6,6.49-6.28
	C327.12,312.72,328.72,312.82,330.32,312.82z"/>
<path class="st7" d="M328.09,353.81c24.23,0.74,44.85,21.66,45.37,46.02c0.1,4.77-2.26,7.94-6.22,8.35
	c-3.78,0.39-6.98-2.47-7.34-7.15c-0.83-10.58-4.68-19.55-13.14-26.27c-5.7-4.52-12.19-6.87-19.45-7.32
	c-5.31-0.33-7.93-2.47-8.24-6.35C318.69,356.19,321.87,353.62,328.09,353.81z"/>
<path class="st7" d="M490.32,531.65c-26.23-17.51-52.47-35-78.72-52.47c-13.22-8.8-26.07-6.77-35.81,5.64
	c-7.32,9.32-14.53,18.73-21.86,28.05c-4.37,5.56-9.04,6.7-15.04,3.47c-8.77-4.73-17.52-9.53-25.71-15.26
	c-24.16-16.91-44.93-37.57-65.12-58.86c-17.01-17.95-32.05-37.37-43.43-59.46c-3.87-7.52-3.1-11.82,3.49-16.95
	c9.35-7.28,18.75-14.5,28.05-21.85c11.43-9.03,13.58-22.14,5.5-34.34c-17.86-26.95-35.77-53.87-53.8-80.71
	c-8.25-12.29-21.42-15.19-34.18-7.7c-11.24,6.6-22.38,13.35-33.51,20.13c-12.6,7.67-20.25,18.81-23.48,33.22
	c-1.09,4.84-0.86,9.96-3.11,14.54c0,1.33,0,2.67,0,4c0.5,0.53,0.5,1.07,0,1.6c0,1.07,0,2.13,0,3.2c0.87,1.9,0.21,3.92,0.41,5.87
	c0,1.81,0,3.63,0,5.44c0.13,1.6-0.3,3.23,0.29,4.8c1.16,17.84,5.89,34.86,12.41,51.37c12.56,31.85,31.07,60.19,52.13,86.96
	c20.65,26.25,43.53,50.45,67.78,73.35c27.48,25.94,56.64,49.77,89.38,68.87c24.62,14.36,50.5,25.54,78.86,30.25
	c3.58,0.59,7.34,0.23,10.74,1.89c3.2,0,6.4,0,9.6,0c1.88-0.87,3.87-0.21,5.79-0.41c1.56,0,3.12,0,4.68,0
	c1.34-0.11,2.71,0.27,4.02-0.28c2.91-0.33,5.82-0.62,8.72-1.01c19.02-2.53,33.62-11.48,42.96-28.72
	c5.25-9.69,11.31-18.95,16.99-28.41C506.87,553.69,504.03,540.8,490.32,531.65z M486.82,560.51c-5.95,9.93-12.21,19.68-17.82,29.8
	c-7.06,12.74-18,19.12-31.98,21.13c-6.6,0.95-13.22,1.72-19.9,1.63c-26.36-0.36-50.82-8.11-74.24-19.53
	c-36.12-17.61-67.58-41.89-97.11-68.81c-32.88-29.97-63.45-62.09-89.43-98.33c-19.63-27.38-36.19-56.38-44.55-89.43
	c-5.14-20.33-6.37-40.74-1.27-61.26c2.5-10.06,8.4-17.67,17.26-23c11.06-6.65,22.1-13.33,33.21-19.89
	c6.01-3.55,11.61-2.25,15.54,3.62c17.9,26.78,35.76,53.59,53.58,80.42c4.36,6.56,3.47,11.8-2.74,16.68
	c-9.32,7.33-18.71,14.57-28.06,21.86c-11.49,8.96-13.61,20.56-6.92,33.59c15.68,30.53,38.13,55.74,62.23,79.63
	c18.09,17.94,36.75,35.25,58.54,48.75c6.21,3.85,12.59,7.44,19.03,10.91c12.03,6.48,23.86,3.96,32.32-6.79
	c7.25-9.21,14.39-18.51,21.61-27.75c5.73-7.34,10.48-8.14,18.12-3.04c26.25,17.5,52.48,35.02,78.71,52.54
	C490.04,547.97,491.21,553.19,486.82,560.51z"/>
</svg>
