<?xml version="1.0" encoding="utf-8"?>
<!-- Generator: Adobe Illustrator 23.0.1, SVG Export Plug-In . SVG Version: 6.00 Build 0)  -->
<svg version="1.0" id="Layer_1" xmlns="http://www.w3.org/2000/svg" xmlns:xlink="http://www.w3.org/1999/xlink" x="0px" y="0px"
	 viewBox="0 0 595.28 841.89" style="enable-background:new 0 0 595.28 841.89;" xml:space="preserve">
<style type="text/css">
	.st0{fill:#0AC4FF;}
</style>
<path class="st0" d="M427.54,304.14c-42.99-0.01-85.99,0-128.98,0c-43.12,0-86.24-0.01-129.36,0c-20.17,0.01-34,13.67-34.02,33.75
	c-0.05,52.87-0.04,105.74,0,158.6c0.01,20.12,13.79,33.93,33.9,33.94c86.24,0.03,172.48,0.03,258.72,0
	c20.3-0.01,34.01-13.81,34.02-34.2c0.03-52.62,0.03-105.24,0-157.85C461.81,317.74,448.17,304.15,427.54,304.14z M435.85,317.82
	c-4.75,4.22-9.38,8.35-14.03,12.45c-40.28,35.55-80.58,71.09-120.81,106.7c-1.82,1.61-2.86,1.92-4.85,0.15
	c-44.43-39.34-88.94-78.61-133.42-117.89c-0.46-0.4-0.89-0.83-1.64-1.53C167.07,315.77,431.16,315.93,435.85,317.82z M148.86,504.37
	c-1.47-2.22-1.25-4.5-1.25-6.68c-0.03-53.61-0.02-107.22-0.03-160.84c0-3.17,0.55-6.19,1.85-9.09c0.84-1.88,1.43-2.75,3.54-0.86
	c14.71,13.17,29.55,26.19,44.35,39.25c12.93,11.41,25.83,22.85,38.81,34.19c1.76,1.54,2.08,2.45,0.37,4.38
	c-28.83,32.71-57.57,65.5-86.34,98.27C149.77,503.44,149.35,503.85,148.86,504.37z M429.36,518.04c-87.24-0.02-174.48-0.02-261.72,0
	c-3.05,0-5.92-0.65-8.73-1.8c-2.4-0.99-2.44-1.96-0.7-3.9c8.75-9.78,17.35-19.68,26.01-29.54c20.36-23.19,40.75-46.36,61.04-69.62
	c1.87-2.15,2.87-2.3,5.07-0.32c14.23,12.77,28.61,25.36,42.95,38.01c3.98,3.51,6.47,3.53,10.47,0.01
	c14.53-12.8,29.07-25.6,43.53-38.48c1.7-1.52,2.59-1.88,4.33,0.11c29.1,33.31,58.29,66.55,87.46,99.8c0.57,0.65,1.1,1.34,1.82,2.22
	C437.24,517,433.48,518.04,429.36,518.04z M448.32,504.14c-6.27-7.14-12.27-13.96-18.25-20.78c-23.07-26.29-46.12-52.59-69.25-78.82
	c-1.63-1.85-1.59-2.74,0.25-4.35c28.04-24.66,56.02-49.4,84.02-74.11c0.26-0.23,0.6-0.37,1.01-0.61c2.52,3.38,3.33,7.2,3.32,11.28
	c-0.01,9.12,0,18.24,0,27.36c0,43.98,0.01,87.96-0.02,131.93C449.4,498.59,449.67,501.22,448.32,504.14z"/>
</svg>
