<?xml version="1.0" encoding="utf-8"?>
<!-- Generator: Adobe Illustrator 23.0.1, SVG Export Plug-In . SVG Version: 6.00 Build 0)  -->
<svg version="1.0" id="Layer_1" xmlns="http://www.w3.org/2000/svg" xmlns:xlink="http://www.w3.org/1999/xlink" x="0px" y="0px"
	 viewBox="0 0 595.28 841.89" style="enable-background:new 0 0 595.28 841.89;" xml:space="preserve">
<style type="text/css">
	.st0{fill:#292929;}
	.st1{fill:#222222;}
	.st2{fill:#D8D8D8;}
	.st3{fill:#3B3B3B;}
	.st4{fill:#797979;}
	.st5{fill:#878787;}
	.st6{fill:#CDCDCD;}
	.st7{fill:#0AC4FF;}
</style>
<path class="st0" d="M516.35,637.74c0.01-45.96,0.03-91.93,0.04-137.89c0.24-0.38,0.48-0.38,0.74-0.02c0,45.93,0,91.86,0,137.79
	C516.87,637.67,516.61,637.71,516.35,637.74z"/>
<path class="st1" d="M517.13,499.84c-0.25,0-0.49,0.01-0.74,0.02c-0.02-5.23-0.06-10.46-0.07-15.69c0-1.04-0.23-2.18,0.8-2.96
	C517.13,487.41,517.13,493.63,517.13,499.84z"/>
<path class="st2" d="M517.13,461.74c-1.49-2.26-0.83-4.79-0.91-7.23c0.3-0.02,0.61-0.04,0.91-0.07
	C517.13,456.88,517.13,459.31,517.13,461.74z"/>
<path class="st3" d="M517.13,479.58c-1.29-2.43-1.32-4.86,0-7.29C517.13,474.71,517.13,477.14,517.13,479.58z"/>
<path class="st4" d="M161.3,223.44c-1.08,1.27-2.16,1.28-3.24,0C159.14,223.44,160.22,223.44,161.3,223.44z"/>
<path class="st5" d="M517.13,467.42c-1.22-0.81-1.31-1.62,0-2.43C517.13,465.8,517.13,466.61,517.13,467.42z"/>
<path class="st6" d="M516.2,454.55c-0.98-2.67-0.77-5.44-0.72-8.2C516.92,448.98,516.42,451.78,516.2,454.55z"/>
<path class="st7" d="M517.13,461.74c-1.18-2.3,0.4-4.94-0.91-7.23l-0.02,0.03c-0.88-2.68,0.33-5.54-0.72-8.2
	c-0.23-1.19-0.54-2.37-0.69-3.57c-1.72-14.14-4.87-27.91-10.51-41.04c-7.95-18.51-20.39-32.93-38.57-42.07
	c-17.31-8.7-35.88-11.37-54.98-11.55c-25.47-0.24-48.44,6.79-68.15,23.37c-0.54,0.46-1.08,1.34-2.1,0.56
	c0-4.41-0.23-8.88,0.08-13.32c0.23-3.32-0.67-4.25-4.12-4.23c-30.12,0.15-60.25,0.17-90.37-0.01c-3.88-0.02-4.52,1.19-4.52,4.72
	c0.09,91.32,0.1,182.64-0.01,273.96c0,3.75,0.65,4.96,4.72,4.93c31.07-0.2,62.14-0.17,93.21-0.02c3.5,0.02,4.42-0.74,4.41-4.35
	c-0.13-45.39-0.09-90.78-0.06-136.17c0.01-10.28,0.56-20.53,3.07-30.55c2.6-10.35,7.43-19.19,17.82-23.62
	c6.72-2.86,13.88-3.27,21.09-2.9c13.38,0.68,21.18,6.73,25.18,19.52c3.02,9.65,3.76,19.65,3.8,29.63
	c0.18,48.09,0.18,96.18,0.09,144.27c-0.01,3.45,0.97,4.16,4.26,4.15c31.2-0.13,62.41-0.07,93.62-0.09c1.2,0,2.41-0.16,3.61-0.24
	c0.68-1.42,0.34-2.92,0.34-4.39c0.02-44.39,0.02-88.78,0.02-133.17c0.25-6.33-0.51-12.68,0.42-18.99c0-0.54,0-1.08,0-1.62
	c-0.65-2.43-0.65-4.86,0-7.29c0-1.62,0-3.24,0-4.86c-0.61-0.81-0.61-1.62,0-2.43C517.13,463.9,517.13,462.82,517.13,461.74z
	 M493.11,617.57c-17.96-0.11-35.93-0.14-53.89,0.02c-3.14,0.03-4-0.74-3.99-3.95c0.1-41.33,0.13-82.65-0.01-123.98
	c-0.04-12.44-1.27-24.79-5.26-36.71c-6.59-19.68-19.95-30.93-40.82-32.65c-18.68-1.54-35.89,1.85-49.19,16.34
	c-8.99,9.8-12.79,21.99-14.92,34.83c-1.74,10.44-1.65,20.98-1.64,31.51c0.01,36.87-0.04,73.74,0.08,110.61
	c0.01,3.13-0.71,4.04-3.95,4.01c-17.83-0.17-35.65-0.18-53.48,0c-3.46,0.04-4.13-1.02-4.12-4.3c0.12-39.03,0.08-78.06,0.08-117.09
	c0.01-38.88,0.05-77.76-0.07-116.64c-0.01-3.58,0.8-4.76,4.62-4.71c16.61,0.23,33.22,0.18,49.83,0.02c3.05-0.03,3.87,0.78,3.8,3.81
	c-0.2,9.58,0.01,19.18-0.13,28.76c-0.04,2.55,0.59,3.21,3.27,3.48c9.12,0.91,15.22-0.99,20.57-10.18
	c10.06-17.3,27.04-26.46,46.39-30.33c19.1-3.81,38.13-2.55,56.73,3.61c21.58,7.15,34.65,22.47,41.67,43.54
	c5.91,17.75,7.65,36.16,7.76,54.69c0.27,47.27,0.18,94.53,0.35,141.8C496.79,617.04,495.81,617.59,493.11,617.57z"/>
<path class="st7" d="M170.53,224.83c-1.99-0.39-4.26,0.21-5.99-1.38c-1.08,0-2.16,0-3.24,0c-1.08,0.65-2.16,0.65-3.24,0
	c-1.62,0-3.24,0-4.86,0c-0.89,1.65-2.63,1.06-3.94,1.31c-29.72,5.67-50.45,33.41-46.9,62.87c3.75,31.08,30.3,53.23,61.3,51.15
	c28.46-1.91,51.63-24.94,53.41-53.08C218.94,256.14,199.23,230.43,170.53,224.83z M159.82,318.51
	c-20.48,0.05-37.23-16.47-37.35-36.84c-0.12-20.54,16.67-37.41,37.23-37.41c20.29,0,37.12,16.79,37.18,37.1
	C196.94,301.64,180.16,318.46,159.82,318.51z"/>
<path class="st7" d="M210.76,496.17c0-45.78-0.03-91.57,0.07-137.35c0.01-3.23-0.58-4.33-4.1-4.31c-31.33,0.15-62.66,0.14-94,0.01
	c-3.31-0.01-4.26,0.75-4.26,4.17c0.1,91.7,0.1,183.4,0,275.11c0,3.26,0.64,4.3,4.12,4.29c31.33-0.15,62.66-0.14,94-0.01
	c3.3,0.01,4.25-0.7,4.24-4.15C210.72,588.01,210.76,542.09,210.76,496.17z M190.46,613.72c0,3.28-0.95,3.98-4.05,3.96
	c-17.83-0.14-35.66-0.19-53.49,0.03c-3.59,0.04-4.06-1.16-4.05-4.33c0.11-39.04,0.07-78.08,0.07-117.12s0.05-78.08-0.08-117.12
	c-0.01-3.39,0.87-4.21,4.21-4.18c17.69,0.18,35.39,0.16,53.09,0.01c3.23-0.03,4.32,0.61,4.32,4.11
	C190.35,457.29,190.36,535.5,190.46,613.72z"/>
</svg>
