<?xml version="1.0" encoding="utf-8"?>
<!-- Generator: Adobe Illustrator 23.0.1, SVG Export Plug-In . SVG Version: 6.00 Build 0)  -->
<svg version="1.0" id="Layer_1" xmlns="http://www.w3.org/2000/svg" xmlns:xlink="http://www.w3.org/1999/xlink" x="0px" y="0px"
	 viewBox="0 0 595.28 841.89" style="enable-background:new 0 0 595.28 841.89;" xml:space="preserve">
<style type="text/css">
	.st0{fill:#0AC4FF;}
</style>
<path class="st0" d="M429.74,357.95c-27.23-53.16-71.55-79.56-126.89-82.44c-12.9,0.52-22.03,1.05-31.02,2.84
	C240.4,284.59,213.72,299.37,192,323c-21.23,23.11-33.73,50.34-37.37,81.43c-3.43,29.27,1.61,57.19,15.24,83.41
	c1.48,2.86,1.76,5.32,0.85,8.44c-5.67,19.51-11.12,39.09-16.63,58.65c-0.18,0.63-0.33,1.26-0.46,1.9
	c-1.43,6.8,3.42,11.65,10.21,9.94c21.1-5.33,42.18-10.74,63.23-16.23c2.57-0.67,4.67-0.52,7.06,0.69
	c17.92,9.11,37,14.21,57.03,15.13c30.1,1.38,58.33-5.35,83.92-21.53c40.27-25.46,63.25-62.16,68.56-109.37
	C446.68,408.48,442.2,382.27,429.74,357.95z M433.92,445.44c-11.44,57.4-46.59,94.19-103.2,109.14
	c-32.09,8.48-63.49,4.22-93.21-10.68c-4.15-2.08-7.71-2.42-12.17-1.21c-20.26,5.47-40.62,10.57-60.94,15.8
	c-0.84,0.22-1.71,0.33-3.12,0.6c2.95-10.51,5.76-20.5,8.57-30.48c3.25-11.54,6.44-23.1,9.8-34.61c0.67-2.31,0.41-4.13-0.75-6.22
	c-14.11-25.43-19.58-52.69-16.45-81.54c2.93-27.01,13.06-51.24,30.4-72.15c21.07-25.4,47.81-42.1,80.42-47.73
	c52.55-9.08,97.05,6.82,131.44,47.41C431.94,365.92,442.16,404.1,433.92,445.44z"/>
<path class="st0" d="M200.39,520.93c10.87-2.76,20.99-5.21,31.03-7.97c3.31-0.91,5.91-0.44,8.84,1.3c35.32,21,71.59,22.77,108.7,5
	c5.3-2.54,10.21-5.78,14.96-9.24c2.46-1.79,5.21-4.05,7.69-0.42c2.33,3.4-0.57,5.2-2.98,6.84c-42.43,28.85-86.07,30.54-130.82,5.7
	c-2.2-1.22-4.11-1.59-6.54-0.94c-11.33,3.03-22.7,5.93-34.07,8.83c-5.03,1.28-7.33-1-5.96-5.96c3.06-11.05,6.15-22.09,9.34-33.11
	c0.62-2.16,0.43-3.85-0.82-5.8c-14.48-22.65-20.74-47.49-18.35-74.21c2.66-29.61,14.78-55,36.52-75.39
	c25.89-24.27,56.8-35.06,92.14-31.81c33.54,3.08,60.8,18.41,81.8,44.67c13.86,17.33,21.73,37.26,24.46,59.24
	c0.5,4.01,0.55,8.08,0.81,12.12c0.18,2.84-0.77,5.14-3.87,5.26c-2.88,0.11-3.98-1.96-4.1-4.66c-0.43-9.8-1.48-19.49-4.22-28.97
	c-7.77-26.83-23.39-47.86-46.79-62.96c-21.61-13.95-45.46-19.54-70.97-16.67c-30.63,3.44-55.73,17.45-74.83,41.72
	c-17.19,21.84-24.71,46.88-23.23,74.53c1.05,19.69,7.34,37.79,18.25,54.22c2,3.01,2.4,5.7,1.36,9.14
	C205.85,500.94,203.28,510.61,200.39,520.93z"/>
<path class="st0" d="M411.11,457.7c-0.15,2.17-1.29,4.26-2.12,6.43c-2.94,7.68-6.78,14.9-11.24,21.8c-1.47,2.27-3.43,3.46-5.89,2.08
	c-2.52-1.42-2.56-3.78-1.06-6.07c5.17-7.86,9.3-16.23,12.42-25.1c0.76-2.16,2.18-3.62,4.7-3.18
	C409.98,454.02,411.06,455.35,411.11,457.7z"/>
<path class="st0" d="M366.74,446.8c-9.08-4.25-18.19-8.45-27.32-12.6c-5.62-2.56-9.06-1.66-12.99,3.31
	c-3.07,3.89-6.13,7.81-9.06,11.81c-1.05,1.44-1.96,1.58-3.57,0.92c-18.69-7.7-33.56-19.83-43.88-37.37
	c-1.07-1.82-0.9-2.88,0.47-4.35c3.02-3.26,5.83-6.7,8.73-10.06c2.64-3.05,3.28-6.44,1.68-10.18c-4.19-9.82-8.37-19.65-12.6-29.46
	c-1.4-3.24-3.87-5.22-7.45-5.54c-2.99-0.27-5.99-0.48-9-0.58c-3.93-0.13-7.53,0.97-10.48,3.61c-9.76,8.72-16.2,19.06-15.66,30.92
	c0.05,12.39,3.05,22.28,8.31,31.24c20.07,34.19,48.29,58.54,86.65,70.19c24.18,7.34,48.44-3.51,52.08-30.53
	C373.46,452.22,372.14,449.32,366.74,446.8z M364.6,458.18c-3.33,20.85-22,28.5-41.46,22.86c-19.75-5.73-37.24-15.62-52.36-29.51
	c-13.07-12-24.5-25.37-32.14-41.57c-3.14-6.65-5.09-13.68-5-22.07c-0.53-9.93,4.68-18.08,12.28-25.06
	c2.01-1.84,12.18-2.91,14.25-1.49c0.67,0.46,1.05,1.45,1.41,2.27c3.77,8.73,7.46,17.49,11.3,26.19c0.88,2,0.5,3.28-0.92,4.8
	c-2.94,3.15-5.71,6.46-8.49,9.76c-3.63,4.3-3.88,6.47-1.15,11.3c10.37,18.36,25.41,31.62,44.55,40.21c11.54,5.18,11.61,5,19.35-4.97
	c0.08-0.1,0.15-0.21,0.24-0.31c2.71-3.13,4.38-8.45,8-9.09c3.31-0.59,7.33,2.66,10.99,4.32c5.58,2.52,11.05,5.29,16.71,7.62
	C364.64,454.47,364.99,455.75,364.6,458.18z"/>
</svg>
