<?xml version="1.0" encoding="utf-8"?>
<!-- Generator: Adobe Illustrator 24.1.3, SVG Export Plug-In . SVG Version: 6.00 Build 0)  -->
<svg version="1.1"
	 id="svg8" inkscape:export-filename="..\..\..\..\technologies\aftereffex.svg" inkscape:export-xdpi="96" inkscape:export-ydpi="96" inkscape:version="1.2.2 (732a01da63, 2022-12-09)" sodipodi:docname="aftereffex.svg" xmlns:inkscape="http://www.inkscape.org/namespaces/inkscape" xmlns:sodipodi="http://sodipodi.sourceforge.net/DTD/sodipodi-0.dtd" xmlns:svg="http://www.w3.org/2000/svg"
	 xmlns="http://www.w3.org/2000/svg" xmlns:xlink="http://www.w3.org/1999/xlink" x="0px" y="0px" viewBox="0 0 100 100"
	 style="enable-background:new 0 0 100 100;" xml:space="preserve">
<style type="text/css">
	.st0{fill:#1F0740;}
	.st1{fill:#D490C5;}
	.st2{enable-background:new    ;}
</style>
<sodipodi:namedview  bordercolor="#000000" borderopacity="0.25" id="namedview10" inkscape:current-layer="svg8" inkscape:cx="49.939686" inkscape:cy="59.589867" inkscape:deskcolor="#d1d1d1" inkscape:pagecheckerboard="0" inkscape:pageopacity="0.0" inkscape:showpageshadow="2" inkscape:window-height="1009" inkscape:window-maximized="1" inkscape:window-width="1920" inkscape:window-x="1912" inkscape:window-y="-8" inkscape:zoom="8.29" pagecolor="#ffffff" showgrid="false">
	</sodipodi:namedview>
<path id="path2" class="st0" d="M12.6,7.5H86v73.4H12.6V7.5z"/>
<path id="path4" class="st1" d="M8.4,3.4v81.7h81.7V3.4H8.4z M86,80.9H12.6V7.5H86V80.9z"/>
<path id="path6" class="st1" d="M74.5,41.2c0,0-0.4-9.3-10.5-9.3c-10.2,0-11,14-11,14v3c0,0,1.8,11.7,10.4,11.7s9.4-1.7,9.4-1.7
	v-5.2c0,0-12.3,5.9-13.5-6.4h15.3L74.5,41.2L74.5,41.2z M68.7,42.7h-9.6c0,0,0-5.3,4.8-5.9C69.2,36.8,68.7,42.7,68.7,42.7z
	 M40.7,22.5h-7.7v2.4l-10.2,35h6l2.8-10.3h10.7l2.9,10.3h6.6L40.7,22.5z M32.8,43.7L36.9,28L41,43.7H32.8z"/>
<g class="st2">
	<path class="st1" d="M3.2,99.6l4.4-12.2h2.2l4.4,12.2h-2.3l-1-2.8H6.4l-1,2.8H3.2z M7,94.9h3.3L8.9,91c-0.1-0.3-0.2-0.7-0.3-0.9
		c-0.1,0.2-0.2,0.6-0.3,0.9L7,94.9z"/>
	<path class="st1" d="M15.5,91.3v-1c0-2.2,1.2-3.2,2.8-3.2c0.3,0,0.7,0,1.1,0.1V89h-0.7c-0.9,0-1.2,0.5-1.2,1.4v1H21v-2.6h2v2.6h1.6
		V93h-1.6v6.5h-2V93h-3.5v6.5h-2V93h-1.2v-1.7H15.5z"/>
	<path class="st1" d="M25.4,95.4c0-2.6,1.7-4.4,4.1-4.4c2.5,0,4,1.7,4,4.2v0.6l-6.2,0c0.2,1.5,0.9,2.2,2.3,2.2
		c1.1,0,1.9-0.4,2.1-1.2h1.9c-0.4,1.8-1.9,2.9-4,2.9C27.1,99.8,25.4,98,25.4,95.4z M27.4,94.6h4.1c0-1.1-0.8-1.9-2-1.9
		C28.3,92.7,27.6,93.4,27.4,94.6z"/>
	<path class="st1" d="M40.3,93.2h-0.8c-1.5,0-2.4,0.8-2.4,2.4v4h-2v-8.2h1.9l0.1,1.2c0.4-0.8,1.1-1.4,2.2-1.4c0.3,0,0.6,0,0.9,0.1
		V93.2z"/>
	<path class="st1" d="M46.5,99.6V87.4h7.6v2h-5.4v3.1h4.9v1.9h-4.9v3.2h5.4v2H46.5z"/>
	<path class="st1" d="M56.5,91.3v-1c0-2.2,1.2-3.2,3-3.2c0.3,0,0.7,0,1.1,0.1V89h-0.7c-1,0-1.3,0.5-1.3,1.4v1h3.4v-1
		c0-2.2,1.2-3.2,3-3.2c0.3,0,0.7,0,1.1,0.1V89h-0.7c-1,0-1.3,0.5-1.3,1.4v1h2V93h-2v6.5h-2V93h-3.4v6.5h-2V93h-1.2v-1.7H56.5z"/>
	<path class="st1" d="M66.4,95.4c0-2.6,1.7-4.4,4.1-4.4c2.5,0,4,1.7,4,4.2v0.6l-6.2,0c0.2,1.5,0.9,2.2,2.3,2.2
		c1.1,0,1.9-0.4,2.1-1.2h1.9c-0.4,1.8-1.9,2.9-4,2.9C68.2,99.8,66.4,98,66.4,95.4z M68.4,94.6h4.1c0-1.1-0.8-1.9-2-1.9
		C69.4,92.7,68.6,93.4,68.4,94.6z"/>
	<path class="st1" d="M79.9,91.1c2.3,0,3.8,1.3,4,3.2h-2c-0.2-0.9-0.9-1.4-1.9-1.4c-1.3,0-2.2,1-2.2,2.5c0,1.6,0.8,2.5,2.1,2.5
		c1,0,1.7-0.5,2-1.4h2.1c-0.3,1.9-1.9,3.2-4,3.2c-2.5,0-4.1-1.7-4.1-4.4C75.7,92.9,77.4,91.1,79.9,91.1z"/>
	<path class="st1" d="M86.2,99.6V93h-1.6v-1.7h1.6v-2.6h2v2.6h1.6V93h-1.6v6.5H86.2z"/>
	<path class="st1" d="M92.4,97.1c0,0.7,0.6,1.2,1.5,1.2c1,0,1.5-0.4,1.5-1c0-0.4-0.2-0.7-1-0.9L92.9,96c-1.5-0.3-2.2-1-2.2-2.4
		c0-1.6,1.4-2.6,3.3-2.6c1.9,0,3.1,1.1,3.1,2.7h-1.9c0-0.7-0.5-1.2-1.3-1.2c-0.8,0-1.3,0.4-1.3,1c0,0.5,0.4,0.8,1.1,0.9l1.5,0.4
		c1.4,0.3,2.1,1,2.1,2.2c0,1.7-1.4,2.7-3.5,2.7c-2.1,0-3.4-1.1-3.4-2.7H92.4z"/>
</g>
</svg>
