<?xml version="1.0" encoding="utf-8"?>
<!-- Generator: Adobe Illustrator 24.1.3, SVG Export Plug-In . SVG Version: 6.00 Build 0)  -->
<svg version="1.1"
	 id="svg3850" inkscape:export-filename="..\..\..\..\technologies\android.svg" inkscape:export-xdpi="96" inkscape:export-ydpi="96" inkscape:version="1.2.2 (732a01da63, 2022-12-09)" sodipodi:docname="android.svg" xmlns:inkscape="http://www.inkscape.org/namespaces/inkscape" xmlns:sodipodi="http://sodipodi.sourceforge.net/DTD/sodipodi-0.dtd" xmlns:svg="http://www.w3.org/2000/svg"
	 xmlns="http://www.w3.org/2000/svg" xmlns:xlink="http://www.w3.org/1999/xlink" x="0px" y="0px" viewBox="0 0 100 100"
	 style="enable-background:new 0 0 100 100;" xml:space="preserve">
<style type="text/css">
	.st0{fill:#FFFFFF;}
	.st1{fill:#A4C439;}
	.st2{enable-background:new    ;}
</style>
<sodipodi:namedview  bordercolor="#000000" borderopacity="0.25" id="namedview3852" inkscape:current-layer="svg3850" inkscape:cx="49.577805" inkscape:cy="107.9614" inkscape:deskcolor="#d1d1d1" inkscape:pagecheckerboard="0" inkscape:pageopacity="0.0" inkscape:showpageshadow="2" inkscape:window-height="1009" inkscape:window-maximized="1" inkscape:window-width="1920" inkscape:window-x="-8" inkscape:window-y="-8" inkscape:zoom="8.29" pagecolor="#ffffff" showgrid="false">
	</sodipodi:namedview>
<path id="path3842" sodipodi:nodetypes="ccccccccccccsccc" class="st0" d="M22.8,60c-3.5,0-6.4-2.8-6.4-6.4l0-19.4
	c0-3.5,2.8-6.3,6.3-6.4c1.7,0,3.3,0.7,4.5,1.9c1.2,1.2,1.9,2.8,1.9,4.5l0,19.4c0,1.7-0.7,3.3-1.9,4.5C26.1,59.4,24.5,60,22.8,60
	 M22.8,29.6c-2.6,0-4.6,2.1-4.6,4.6l0,19.4c0,2.6,2.1,4.6,4.6,4.6s4.6-2.1,4.6-4.6V34.2C27.4,31.7,25.4,29.6,22.8,29.6"/>
<path id="path3844" class="st0" d="M72.6,30.5l-1.7,0l-41.8,0l-1.7,0l0-1.7c0-7,3.8-13.5,10.1-17.4L35,7c-0.6-1.1-0.2-2.6,0.9-3.2
	c0,0,0,0,0,0c0.3-0.2,0.7-0.3,1.1-0.3c0.9,0,1.7,0.5,2.1,1.2l2.5,4.6c2.7-1,5.5-1.5,8.3-1.5c2.9,0,5.7,0.5,8.4,1.5l2.5-4.6
	c0.4-0.8,1.2-1.2,2.1-1.2c0.4,0,0.8,0.1,1.1,0.3c0.6,0.3,1,0.8,1.1,1.4C65.4,5.8,65.3,6.5,65,7l-2.4,4.4
	c6.2,3.9,10.1,10.4,10.1,17.4L72.6,30.5z M60.2,12.1l3.2-5.9c0.2-0.3,0.1-0.7-0.2-0.9c-0.3-0.2-0.7-0.1-0.9,0.2c0,0,0,0,0,0.1
	l-3.3,6c-2.9-1.3-6-1.9-9.1-1.9c-3.1,0-6.2,0.6-9.1,1.9l-3.3-6c-0.2-0.3-0.6-0.4-0.9-0.3c0,0,0,0,0,0c-0.3,0.2-0.4,0.6-0.3,0.9
	c0,0,0,0,0,0l3.2,5.9c-6.4,3.3-10.7,9.5-10.7,16.7l41.8,0C70.9,21.7,66.6,15.4,60.2,12.1 M40.5,21.3c-1,0-1.8-0.8-1.8-1.8
	c0-1,0.8-1.8,1.8-1.8c1,0,1.8,0.8,1.8,1.8C42.2,20.5,41.4,21.3,40.5,21.3 M59.5,21.3c-1,0-1.8-0.8-1.8-1.7c0,0,0,0,0,0
	c0-1,0.8-1.8,1.8-1.8c1,0,1.7,0.8,1.7,1.8C61.3,20.5,60.5,21.3,59.5,21.3C59.5,21.3,59.5,21.3,59.5,21.3 M42.2,82.2
	c-3.5,0-6.3-2.8-6.3-6.3l0-8.6l-1.7,0c-1.8,0-3.5-0.7-4.7-2c-1.3-1.2-2-2.9-2-4.7l0-30.1v-1.7h1.7l41.5,0l1.7,0v1.7l0,30.1
	c0,3.7-3,6.7-6.7,6.7l-1.7,0l0,8.6c0,3.5-2.8,6.4-6.3,6.4c-1.7,0-3.3-0.7-4.5-1.9c-1.2-1.2-1.9-2.8-1.9-4.5v-8.6h-2.9v8.6
	C48.6,79.3,45.7,82.2,42.2,82.2"/>
<path id="path3846" class="st0" d="M29.3,60.6c0,2.7,2.2,5,4.9,5c0,0,0,0,0,0h3.4l0,10.3c0,2.6,2.1,4.6,4.6,4.6
	c2.6,0,4.6-2.1,4.6-4.6c0,0,0,0,0,0V65.6l6.3,0l0,10.3c0,2.6,2.1,4.6,4.7,4.6c2.5,0,4.6-2.1,4.6-4.6l0-10.3l3.4,0c2.7,0,5-2.2,5-5
	l0-30.1l-41.5,0L29.3,60.6z M77.2,60c-3.5,0-6.4-2.8-6.4-6.3l0-19.4c0-3.5,2.8-6.4,6.3-6.4c3.5,0,6.4,2.8,6.4,6.4l0,19.4
	C83.5,57.2,80.7,60,77.2,60 M77.2,29.6c-2.6,0-4.6,2.1-4.6,4.6c0,0,0,0,0,0l0,19.4c0,2.6,2.1,4.6,4.6,4.6c0,0,0,0,0,0
	c2.6,0,4.6-2.1,4.6-4.6c0,0,0,0,0,0l0-19.4C81.8,31.7,79.8,29.6,77.2,29.6C77.2,29.6,77.2,29.6,77.2,29.6"/>
<path id="path3848" class="st1" d="M22.8,29.6c-2.6,0-4.6,2.1-4.6,4.6l0,19.4c0,2.6,2.1,4.6,4.6,4.6c0,0,0,0,0,0
	c2.6,0,4.6-2.1,4.6-4.6c0,0,0,0,0,0V34.2C27.4,31.7,25.4,29.6,22.8,29.6 M60.2,12.1l3.2-5.9c0.2-0.3,0.1-0.7-0.3-0.9
	c-0.3-0.2-0.7-0.1-0.9,0.3l-3.3,6c-2.9-1.3-6-1.9-9.1-1.9c-3.1,0-6.2,0.6-9.1,1.9l-3.3-6c-0.2-0.3-0.6-0.4-0.9-0.3c0,0,0,0,0,0
	c-0.3,0.2-0.4,0.6-0.3,0.9c0,0,0,0,0,0l3.2,5.9c-6.4,3.3-10.7,9.5-10.7,16.7l41.8,0C70.9,21.7,66.6,15.4,60.2,12.1 M40.5,21.3
	c-1,0-1.8-0.8-1.8-1.8c0-1,0.8-1.8,1.8-1.8c1,0,1.8,0.8,1.8,1.8C42.2,20.5,41.4,21.3,40.5,21.3 M59.5,21.3c-1,0-1.8-0.8-1.8-1.8
	c0,0,0,0,0,0c0-1,0.8-1.8,1.8-1.8c1,0,1.7,0.8,1.7,1.8C61.3,20.5,60.5,21.3,59.5,21.3C59.5,21.3,59.5,21.3,59.5,21.3 M29.2,30.5
	l0,30.1c0,2.7,2.2,5,4.9,5c0,0,0,0,0,0l3.4,0l0,10.3c0,2.6,2.1,4.6,4.6,4.6c2.6,0,4.6-2.1,4.6-4.6l0-10.3l6.3,0l0,10.3
	c0,2.6,2.1,4.6,4.6,4.6c2.6,0,4.6-2.1,4.6-4.6l0-10.3l3.4,0c2.7,0,5-2.2,5-5l0-30.1L29.2,30.5z M81.8,34.2c0-2.6-2.1-4.6-4.6-4.6
	c0,0,0,0,0,0c-2.6,0-4.6,2.1-4.6,4.6c0,0,0,0,0,0l0,19.4c0,2.6,2.1,4.6,4.6,4.6c0,0,0,0,0,0c2.6,0,4.6-2.1,4.6-4.6c0,0,0,0,0,0
	L81.8,34.2z"/>
<g class="st2">
	<path class="st1" d="M16,95.7L20.9,82h2.4l4.9,13.6h-2.5l-1.1-3.2h-5.1l-1.1,3.2H16z M20.3,90.5H24l-1.6-4.4
		c-0.1-0.4-0.2-0.8-0.3-1c-0.1,0.3-0.2,0.7-0.3,1L20.3,90.5z"/>
	<path class="st1" d="M29.7,95.7v-9.2h2.1l0.2,1.2c0.6-0.9,1.7-1.5,2.9-1.5c2.3,0,3.5,1.4,3.5,3.8v5.7h-2.3v-5.1
		c0-1.5-0.8-2.3-1.9-2.3c-1.4,0-2.3,1-2.3,2.5v5H29.7z"/>
	<path class="st1" d="M40.1,91.1c0-2.9,1.7-4.9,4.5-4.9c1.3,0,2.4,0.5,3,1.5v-5.8h2.3v13.9h-2.1l-0.1-1.4c-0.6,1.1-1.8,1.7-3.2,1.7
		C41.8,95.9,40.1,94,40.1,91.1z M47.6,91c0-1.7-1-2.8-2.6-2.8c-1.6,0-2.6,1.2-2.6,2.8s1,2.8,2.6,2.8C46.5,93.8,47.6,92.7,47.6,91z"
		/>
	<path class="st1" d="M58,88.5h-0.8c-1.6,0-2.7,0.9-2.7,2.7v4.5h-2.3v-9.2h2.1l0.1,1.3c0.4-0.9,1.3-1.5,2.5-1.5c0.3,0,0.6,0,1,0.1
		V88.5z"/>
	<path class="st1" d="M63.6,86.2c2.9,0,4.9,2,4.9,4.9s-2.1,4.9-4.9,4.9c-2.9,0-4.9-2-4.9-4.9S60.8,86.2,63.6,86.2z M63.6,93.9
		c1.6,0,2.6-1.1,2.6-2.8c0-1.7-1.1-2.8-2.6-2.8S61,89.4,61,91.1C61,92.7,62.1,93.9,63.6,93.9z"/>
	<path class="st1" d="M70.1,83.2c0-0.8,0.6-1.4,1.4-1.4c0.7,0,1.4,0.6,1.4,1.4s-0.6,1.4-1.4,1.4C70.7,84.6,70.1,84,70.1,83.2z
		 M70.4,86.5h2.3v9.2h-2.3V86.5z"/>
	<path class="st1" d="M74.5,91.1c0-2.9,1.7-4.9,4.5-4.9c1.3,0,2.4,0.5,3,1.5v-5.8h2.3v13.9h-2.1l-0.1-1.4c-0.6,1.1-1.8,1.7-3.2,1.7
		C76.1,95.9,74.5,94,74.5,91.1z M81.9,91c0-1.7-1-2.8-2.6-2.8s-2.6,1.2-2.6,2.8s1,2.8,2.6,2.8S81.9,92.7,81.9,91z"/>
</g>
</svg>
