<?xml version="1.0" encoding="UTF-8" standalone="no"?>
<svg
   width="100"
   height="100"
   viewBox="0 0 128 128"
   version="1.1"
   id="svg4"
   xmlns="http://www.w3.org/2000/svg"
   xmlns:svg="http://www.w3.org/2000/svg">
  <defs
     id="defs8" />
  <path
     d="m 91.694884,56.933434 c 0.14213,15.356538 13.472916,20.467488 13.619946,20.532835 -0.11273,0.359408 -2.1295,7.28292 -7.022352,14.432691 -4.229583,6.18183 -8.620083,12.34078 -15.534609,12.46984 -6.794451,0.12416 -8.979491,-4.03027 -16.748428,-4.03027 -7.766488,0 -10.193311,3.90121 -16.625903,4.15443 C 42.708345,104.74618 37.625167,97.80715 33.36046,91.64901 24.646442,79.050116 17.986769,56.047166 26.928685,40.519909 c 4.44196,-7.710943 12.381617,-12.593178 20.998432,-12.718971 6.554301,-0.124976 12.741026,4.409287 16.747612,4.409287 4.004135,0 11.522304,-5.453205 19.42602,-4.652704 3.309007,0.138045 12.596446,1.336345 18.560171,10.0667 -0.47948,0.298146 -11.08121,6.470167 -10.966036,19.309213 M 78.925269,19.223331 c 3.54344,-4.289211 5.928604,-10.261925 5.278402,-16.202781 -5.1085,0.205026 -11.285422,3.40376 -14.948937,7.691338 -3.283685,3.795843 -6.158952,9.873111 -5.383773,15.696343 5.694172,0.441092 11.510052,-2.893237 15.054308,-7.1849"
     id="path2"
     style="stroke-width:0.816837" />
  <text
     xml:space="preserve"
     style="font-weight:500;font-size:20.48px;font-family:Satoshi;-inkscape-font-specification:'Satoshi Medium';fill:#000000;fill-opacity:1;stroke-width:1.28"
     x="38.909531"
     y="122.59589"
     id="text222"><tspan
       id="tspan220"
       style="fill:#000000;fill-opacity:1;stroke-width:1.28"
       x="38.909531"
       y="122.59589">Apple</tspan></text>
</svg>
