<?xml version="1.0" encoding="utf-8"?>
<!-- Generator: Adobe Illustrator 24.1.3, SVG Export Plug-In . SVG Version: 6.00 Build 0)  -->
<svg version="1.1"
	 id="svg37" inkscape:version="1.2.2 (732a01da63, 2022-12-09)" sodipodi:docname="bootstrap.svg" xmlns:inkscape="http://www.inkscape.org/namespaces/inkscape" xmlns:sodipodi="http://sodipodi.sourceforge.net/DTD/sodipodi-0.dtd" xmlns:svg="http://www.w3.org/2000/svg"
	 xmlns="http://www.w3.org/2000/svg" xmlns:xlink="http://www.w3.org/1999/xlink" x="0px" y="0px" viewBox="0 0 100 100"
	 style="enable-background:new 0 0 100 100;" xml:space="preserve">
<style type="text/css">
	.st0{fill:url(#path29_1_);}
	.st1{fill:url(#path31_1_);stroke:#FFFFFF;stroke-width:0.1919;stroke-miterlimit:10;}
	.st2{enable-background:new    ;}
	.st3{fill:#8112FA;}
</style>
<sodipodi:namedview  bordercolor="#000000" borderopacity="0.25" id="namedview39" inkscape:current-layer="svg37" inkscape:cx="49.939686" inkscape:cy="69.240048" inkscape:deskcolor="#d1d1d1" inkscape:pagecheckerboard="0" inkscape:pageopacity="0.0" inkscape:showpageshadow="2" inkscape:window-height="1009" inkscape:window-maximized="1" inkscape:window-width="1920" inkscape:window-x="1912" inkscape:window-y="-8" inkscape:zoom="8.29" pagecolor="#ffffff" showgrid="false">
	</sodipodi:namedview>
<linearGradient id="path29_1_" gradientUnits="userSpaceOnUse" x1="2712.5603" y1="-1341.7745" x2="3159.9612" y2="-1696.9265" gradientTransform="matrix(0.1919 0 0 -0.1919 -509.8382 -247.9116)">
	<stop  offset="0" style="stop-color:#9013FE"/>
	<stop  offset="1" style="stop-color:#6610F2"/>
</linearGradient>
<path id="path29" class="st0" d="M11.7,11.8c-0.2-5.3,4-10.2,9.6-10.2h57.5c5.6,0,9.8,4.9,9.6,10.2C88.1,16.9,88.4,23.6,90,29
	c1.7,5.4,4.5,8.8,9.1,9.3v5c-4.6,0.4-7.4,3.9-9.1,9.3c-1.7,5.4-1.9,12-1.7,17.1c0.2,5.3-4,10.2-9.6,10.2H21.3
	c-5.6,0-9.8-4.9-9.6-10.2c0.2-5.1-0.1-11.7-1.7-17.1c-1.7-5.4-4.5-8.8-9.1-9.3v-5c4.6-0.4,7.4-3.9,9.1-9.3
	C11.7,23.6,11.9,16.9,11.7,11.8z"/>
<linearGradient id="path31_1_" gradientUnits="userSpaceOnUse" x1="2850.1526" y1="-1412.4011" x2="2950.1528" y2="-1581.5311" gradientTransform="matrix(0.1919 0 0 -0.1919 -509.5382 -247.627)">
	<stop  offset="0" style="stop-color:#FFFFFF"/>
	<stop  offset="1" style="stop-color:#F1E5FC"/>
</linearGradient>
<path id="path31" class="st1" d="M52.4,61.9c9.1,0,14.5-4.4,14.5-11.8c0-5.5-3.9-9.6-9.7-10.2v-0.2c4.3-0.7,7.6-4.6,7.6-9.1
	c0-6.3-5-10.4-12.5-10.4h-17v41.6H52.4z M41.9,25.5h8.8c4.8,0,7.5,2.1,7.5,6c0,4.1-3.2,6.4-8.9,6.4h-7.4V25.5z M41.9,56.6V42.9h8.8
	c6.3,0,9.5,2.3,9.5,6.8c0,4.5-3.2,6.9-9.1,6.9H41.9z"/>
<g class="st2">
	<path class="st3" d="M10,81.2h5.4c2.7,0,4.3,1.4,4.3,3.7c0,1.5-0.7,2.6-2,3.1c1.4,0.5,2.2,1.5,2.2,3.1c0,2.3-1.6,3.7-4.4,3.7H10
		V81.2z M12.3,83.3V87h2.9c1.3,0,2-0.7,2-1.9c0-1.2-0.7-1.8-2.1-1.8H12.3z M12.3,89v3.7h3c1.3,0,2.1-0.7,2.1-1.9
		c0-1.2-0.8-1.8-2.1-1.8H12.3z"/>
	<path class="st3" d="M26.2,85.3c2.9,0,4.9,2,4.9,4.9c0,2.9-2.1,4.9-4.9,4.9c-2.9,0-4.9-2-4.9-4.9C21.2,87.3,23.3,85.3,26.2,85.3z
		 M26.2,93c1.6,0,2.6-1.1,2.6-2.8c0-1.7-1.1-2.8-2.6-2.8c-1.6,0-2.6,1.1-2.6,2.8C23.5,91.9,24.6,93,26.2,93z"/>
	<path class="st3" d="M37.3,85.3c2.9,0,4.9,2,4.9,4.9c0,2.9-2.1,4.9-4.9,4.9c-2.9,0-4.9-2-4.9-4.9C32.4,87.3,34.4,85.3,37.3,85.3z
		 M37.3,93c1.6,0,2.6-1.1,2.6-2.8c0-1.7-1.1-2.8-2.6-2.8c-1.6,0-2.6,1.1-2.6,2.8C34.6,91.9,35.7,93,37.3,93z"/>
	<path class="st3" d="M44.8,94.8v-7.3H43v-1.9h1.8v-2.9h2.3v2.9h1.8v1.9h-1.8v7.3H44.8z"/>
	<path class="st3" d="M51.7,92c0,0.8,0.6,1.3,1.7,1.3c1.1,0,1.6-0.4,1.6-1.1c0-0.5-0.2-0.8-1.1-1l-1.7-0.4c-1.7-0.4-2.5-1.2-2.5-2.6
		c0-1.8,1.5-2.9,3.7-2.9c2.1,0,3.5,1.2,3.5,3h-2.2c0-0.8-0.5-1.3-1.4-1.3c-0.9,0-1.4,0.4-1.4,1.1c0,0.5,0.4,0.9,1.2,1l1.7,0.4
		c1.5,0.4,2.3,1.1,2.3,2.5c0,1.9-1.6,3-3.9,3c-2.3,0-3.8-1.2-3.8-3H51.7z"/>
	<path class="st3" d="M59.8,94.8v-7.3H58v-1.9h1.8v-2.9h2.3v2.9h1.8v1.9h-1.8v7.3H59.8z"/>
	<path class="st3" d="M71,87.7h-0.8c-1.6,0-2.7,0.9-2.7,2.7v4.5h-2.3v-9.2h2.1l0.1,1.3c0.4-0.9,1.3-1.5,2.5-1.5c0.3,0,0.6,0,1,0.1
		V87.7z"/>
	<path class="st3" d="M71.8,92.2c0-1.7,1.2-2.8,3.4-2.9L78,89v-0.2c0-1.3-0.7-1.8-1.9-1.8c-1.3,0-2.1,0.6-2.1,1.5h-1.9
		c0-2,1.6-3.3,4.1-3.3c2.5,0,4,1.3,4,3.9v5.6h-2L78,93.5c-0.4,1-1.6,1.6-3.1,1.6C73,95.1,71.8,93.9,71.8,92.2z M78,91.1v-0.5
		l-1.9,0.1c-1.4,0.1-2,0.6-2,1.3c0,0.8,0.6,1.3,1.6,1.3C77.1,93.3,78,92.5,78,91.1z"/>
	<path class="st3" d="M82.5,85.6h2.1l0.1,1.4c0.6-1.1,1.8-1.7,3.2-1.7c2.6,0,4.3,1.9,4.3,4.8c0,2.9-1.6,5-4.3,5
		c-1.4,0-2.6-0.5-3.2-1.5v5.5h-2.3V85.6z M87.3,93c1.6,0,2.6-1.2,2.6-2.8c0-1.6-1-2.8-2.6-2.8c-1.6,0-2.6,1.2-2.6,2.8
		C84.8,91.9,85.8,93,87.3,93z"/>
</g>
</svg>
