<?xml version="1.0" encoding="utf-8"?>
<!-- Generator: Adobe Illustrator 24.1.3, SVG Export Plug-In . SVG Version: 6.00 Build 0)  -->
<svg version="1.1"
	 id="svg4" inkscape:version="1.2.2 (732a01da63, 2022-12-09)" sodipodi:docname="codeigniter.svg" xmlns:inkscape="http://www.inkscape.org/namespaces/inkscape" xmlns:sodipodi="http://sodipodi.sourceforge.net/DTD/sodipodi-0.dtd" xmlns:svg="http://www.w3.org/2000/svg"
	 xmlns="http://www.w3.org/2000/svg" xmlns:xlink="http://www.w3.org/1999/xlink" x="0px" y="0px" viewBox="0 0 100 100"
	 style="enable-background:new 0 0 100 100;" xml:space="preserve">
<style type="text/css">
	.st0{fill:#EE4323;}
	.st1{enable-background:new    ;}
</style>
<sodipodi:namedview  bordercolor="#000000" borderopacity="0.25" id="namedview6" inkscape:current-layer="svg4" inkscape:cx="49.939686" inkscape:cy="59.589867" inkscape:deskcolor="#d1d1d1" inkscape:pagecheckerboard="0" inkscape:pageopacity="0.0" inkscape:showpageshadow="2" inkscape:window-height="1009" inkscape:window-maximized="1" inkscape:window-width="1920" inkscape:window-x="1912" inkscape:window-y="-8" inkscape:zoom="8.29" pagecolor="#ffffff" showgrid="false">
	</sodipodi:namedview>
<path id="path2" class="st0" d="M66.2,30.5l-0.5-0.3c0.3,0.6,0.3,1.1,0.3,1.6c0.1-0.4,0.1-0.8,0.2-1.2c0,0.5-0.1,0.9-0.2,1.4l0-0.2
	c-0.1,0.6-0.4,1.1-0.7,1.6l0.1-0.2c-1.8,3-6.8,3.7-9.2,0.6c-3.9-5,0.1-10.4,0.6-15.8c0.7-6.7-3.5-13.2-8.7-17
	c2.9,4.6-0.9,10.7-3.9,14.2c-2.9,3.3-6.5,6.1-9.7,9.1c-3.5,3.2-6.8,6.6-9.6,10.4c-5.7,7.6-9.2,17.2-6.6,26.6
	c2.6,9.5,10.8,15.5,20,17.6c-4.7-2-9-7.2-9.1-12.4c0-5.7,3.6-10.6,8.1-13.8c-0.5,2.1-0.8,3.9,0.5,5.8c1.3,1.7,3.4,2.5,5.5,2.1
	c4.8-1.1,5.1-6.4,2.2-9.5c-2.8-3.1-5.6-6.5-4.5-11c0.5-2.2,1.9-4.3,3.6-5.8c-1.3,3.5,2.5,7,4.9,8.7c4.3,3,9.1,5.2,13,8.7
	c4.2,3.7,7.3,8.6,6.6,14.4c-0.7,6.2-5.6,10.6-11.2,12.8c11.8-2.6,23.9-11.7,24.2-24.8C82.7,43.5,75.3,35.2,66.2,30.5z"/>
<g class="st1">
	<path class="st0" d="M1.7,88.7c0-4,2.5-6.7,6.3-6.7c3.1,0,5.3,1.8,5.8,4.6h-2.4c-0.4-1.5-1.7-2.4-3.4-2.4c-2.4,0-3.9,1.7-3.9,4.5
		c0,2.7,1.5,4.5,3.9,4.5c1.8,0,3.1-0.9,3.5-2.4h2.4c-0.5,2.7-2.9,4.5-5.9,4.5C4.1,95.4,1.7,92.8,1.7,88.7z"/>
	<path class="st0" d="M19.7,86.2c2.7,0,4.7,1.9,4.7,4.6c0,2.7-2,4.6-4.7,4.6c-2.7,0-4.7-1.9-4.7-4.6C15,88.1,17,86.2,19.7,86.2z
		 M19.7,93.5c1.5,0,2.5-1.1,2.5-2.7s-1-2.7-2.5-2.7c-1.5,0-2.5,1.1-2.5,2.7S18.2,93.5,19.7,93.5z"/>
	<path class="st0" d="M25.5,90.8c0-2.7,1.6-4.7,4.2-4.7c1.2,0,2.3,0.5,2.8,1.4V82h2.1v13.2h-2l-0.1-1.4c-0.5,1-1.7,1.6-3,1.6
		C27.1,95.4,25.5,93.5,25.5,90.8z M32.6,90.8c0-1.6-1-2.7-2.5-2.7c-1.5,0-2.4,1.1-2.4,2.7s0.9,2.7,2.4,2.7
		C31.6,93.4,32.6,92.3,32.6,90.8z"/>
	<path class="st0" d="M36.5,90.8c0-2.7,1.8-4.6,4.4-4.6c2.6,0,4.3,1.8,4.3,4.5v0.7l-6.6,0c0.2,1.5,1,2.3,2.4,2.3
		c1.2,0,2-0.5,2.2-1.3h2c-0.4,1.9-2,3.1-4.2,3.1C38.3,95.4,36.5,93.5,36.5,90.8z M38.6,89.9H43c0-1.2-0.8-2-2.1-2
		C39.6,87.9,38.8,88.6,38.6,89.9z"/>
	<path class="st0" d="M49.4,95.2h-2.3V82.2h2.3V95.2z"/>
	<path class="st0" d="M55.6,86.2c1.3,0,2.3,0.5,2.8,1.5l0.1-1.2h2v8.3c0,2.9-1.8,4.7-4.6,4.7c-2.5,0-4.2-1.4-4.5-3.8h2.2
		c0.1,1.1,1,1.8,2.3,1.8c1.5,0,2.4-0.9,2.4-2.4v-1.5c-0.5,0.8-1.6,1.3-2.9,1.3c-2.5,0-4.1-1.9-4.1-4.4
		C51.5,88.1,53.1,86.2,55.6,86.2z M56,93.1c1.5,0,2.4-1,2.4-2.6c0-1.5-0.9-2.5-2.4-2.5c-1.4,0-2.4,1.1-2.4,2.5
		C53.7,92,54.6,93.1,56,93.1z"/>
	<path class="st0" d="M62.8,95.2v-8.7h2l0.2,1.1c0.5-0.9,1.6-1.4,2.8-1.4c2.2,0,3.3,1.4,3.3,3.6v5.4H69v-4.9c0-1.5-0.7-2.2-1.8-2.2
		c-1.3,0-2.1,0.9-2.1,2.3v4.7H62.8z"/>
	<path class="st0" d="M73,83.4c0-0.7,0.6-1.3,1.3-1.3c0.7,0,1.3,0.6,1.3,1.3c0,0.7-0.6,1.3-1.3,1.3C73.6,84.7,73,84.1,73,83.4z
		 M73.3,86.4h2.2v8.7h-2.2V86.4z"/>
	<path class="st0" d="M78.5,95.2v-6.9h-1.7v-1.8h1.7v-2.7h2.2v2.7h1.7v1.8h-1.7v6.9H78.5z"/>
	<path class="st0" d="M83.1,90.8c0-2.7,1.8-4.6,4.3-4.6c2.6,0,4.3,1.8,4.3,4.5v0.7l-6.6,0c0.2,1.5,1,2.3,2.4,2.3
		c1.2,0,2-0.5,2.2-1.3h2c-0.4,1.9-2,3.1-4.2,3.1C84.9,95.4,83.1,93.5,83.1,90.8z M85.2,89.9h4.4c0-1.2-0.8-2-2.1-2
		C86.2,87.9,85.4,88.6,85.2,89.9z"/>
	<path class="st0" d="M98.9,88.4h-0.8c-1.6,0-2.5,0.8-2.5,2.5v4.2h-2.2v-8.7h2l0.1,1.3c0.4-0.9,1.2-1.5,2.4-1.5c0.3,0,0.6,0,1,0.1
		V88.4z"/>
</g>
</svg>
