<?xml version="1.0" encoding="utf-8"?>
<!-- Generator: Adobe Illustrator 24.1.3, SVG Export Plug-In . SVG Version: 6.00 Build 0)  -->
<svg version="1.1"
	 id="svg34" inkscape:export-filename="..\..\..\..\technologies\docker.svg" inkscape:export-xdpi="96" inkscape:export-ydpi="96" inkscape:version="1.2.2 (732a01da63, 2022-12-09)" sodipodi:docname="docker.svg" xmlns:inkscape="http://www.inkscape.org/namespaces/inkscape" xmlns:sodipodi="http://sodipodi.sourceforge.net/DTD/sodipodi-0.dtd" xmlns:svg="http://www.w3.org/2000/svg"
	 xmlns="http://www.w3.org/2000/svg" xmlns:xlink="http://www.w3.org/1999/xlink" x="0px" y="0px" viewBox="0 0 100 100"
	 style="enable-background:new 0 0 100 100;" xml:space="preserve">
<style type="text/css">
	.st0{fill-rule:evenodd;clip-rule:evenodd;fill:#3A4D54;}
	.st1{fill:#00AADA;}
	.st2{fill:#28B8EB;}
	.st3{fill:#028BB8;}
	.st4{fill:#019BC6;}
	.st5{fill-rule:evenodd;clip-rule:evenodd;fill:#00ACD3;}
	.st6{fill-rule:evenodd;clip-rule:evenodd;fill:#23C2EE;}
	.st7{fill-rule:evenodd;clip-rule:evenodd;fill:#D4EEF1;}
	.st8{fill:#BFDBE0;}
	.st9{fill:#D4EEF1;}
	.st10{enable-background:new    ;}
	.st11{fill:#3A4D54;}
</style>
<sodipodi:namedview  bordercolor="#000000" borderopacity="0.25" id="namedview36" inkscape:current-layer="svg34" inkscape:cx="49.939686" inkscape:cy="59.589867" inkscape:deskcolor="#d1d1d1" inkscape:pagecheckerboard="0" inkscape:pageopacity="0.0" inkscape:showpageshadow="2" inkscape:window-height="1009" inkscape:window-maximized="1" inkscape:window-width="1920" inkscape:window-x="1912" inkscape:window-y="-8" inkscape:zoom="8.29" pagecolor="#ffffff" showgrid="false">
	</sodipodi:namedview>
<path id="path2" class="st0" d="M57.7,29.7h8.8v9h4.5c2,0,4.1-0.4,6.1-1c0.9-0.3,2-0.8,3-1.3c-1.3-1.6-1.9-3.7-2-5.7
	c-0.2-2.7,0.3-6.3,2.2-8.4l0.9-1.1l1.1,0.9c2.8,2.3,5.1,5.3,5.5,8.9c3.4-1,7.3-0.8,10.2,0.9l1.2,0.7l-0.6,1.3
	c-2.5,4.8-7.7,6.4-12.8,6.1c-7.7,19-24.2,28-44.4,28c-10.4,0-19.9-3.9-25.4-13.1l-0.1-0.2l-0.8-1.6c-1.9-4.1-2.4-8.5-2-13l0.2-1.3
	h7.5v-8.9h8.8v-8.8h17.6v-8.8h10.5V29.7z"/>
<path id="path4" class="st1" d="M86.3,33c0.6-4.6-2.8-8.2-5-9.9c-2.4,2.8-2.8,10.3,1,13.4c-2.2,1.9-6.6,3.7-11.3,3.7H14.5
	c-0.5,4.8,0.4,9.3,2.3,13.1l0.6,1.2c0.4,0.7,0.9,1.3,1.3,2c2.3,0.2,4.5,0.2,6.4,0.2c3.8-0.1,7-0.5,9.4-1.3c0.4-0.2,0.7,0.1,0.9,0.4
	c0.2,0.4-0.1,0.7-0.4,0.9c-0.3,0.1-0.6,0.2-1,0.3c-1.9,0.5-3.9,0.9-6.5,1h-0.5C26.1,58,25,58,23.8,58c-1.3,0-2.4,0-3.8-0.1
	c4.7,5.3,12,8.4,21.3,8.4c19.5,0,36.1-8.7,43.4-28c5.2,0.5,10.2-0.8,12.5-5.2C93.6,31,88.9,31.7,86.3,33z"/>
<path id="path6" class="st2" d="M86.3,33c0.6-4.6-2.8-8.2-5-9.9c-2.4,2.8-2.8,10.3,1,13.4c-2.2,1.9-6.6,3.7-11.3,3.7H17.8
	c-0.2,7.4,2.5,13,7.4,16.4c3.8-0.1,7-0.5,9.4-1.3c0.4-0.2,0.7,0.1,0.9,0.4c0.2,0.4-0.1,0.7-0.4,0.9c-0.3,0.1-0.6,0.2-1,0.3
	c-1.9,0.5-4.1,0.9-6.6,1.1l-0.1-0.1c6.6,3.4,16.3,3.4,27.3-0.9c12.3-4.8,23.9-13.8,32-24.1C86.5,33,86.3,33,86.3,33z"/>
<path id="path8" class="st3" d="M14.6,46.1c0.3,2.6,1.1,5,2.3,7.3l0.6,1.2c0.4,0.7,0.9,1.3,1.3,2c2.3,0.2,4.5,0.2,6.4,0.2
	c3.8-0.1,7-0.5,9.4-1.3c0.4-0.2,0.7,0.1,0.9,0.4c0.2,0.4-0.1,0.7-0.4,0.9c-0.3,0.1-0.6,0.2-1,0.3c-1.9,0.5-4.1,0.9-6.6,1.1h-0.3
	c-1,0.1-2.1,0.1-3.2,0.1c-1.3,0-2.5,0-3.8-0.1c4.7,5.3,12.1,8.4,21.3,8.4c16.7,0,31.3-6.3,39.7-20.3L14.6,46.1L14.6,46.1z"/>
<path id="path10" class="st4" d="M18.4,46.1c1,4.5,3.4,8.1,6.9,10.5c3.8-0.1,7-0.5,9.4-1.3c0.4-0.2,0.7,0.1,0.9,0.4
	c0.2,0.4-0.1,0.7-0.4,0.9c-0.3,0.1-0.6,0.2-1,0.3c-1.9,0.5-4.1,0.9-6.7,1.1c6.6,3.4,16.3,3.4,27.3-0.9c6.6-2.6,13.1-6.4,18.9-11
	L18.4,46.1z"/>
<path id="path12" class="st5" d="M22.2,31.2h7.7v7.7h-7.7L22.2,31.2z M22.8,31.8h0.6v6.3h-0.6V31.8z M23.9,31.8h0.6v6.3h-0.6V31.8z
	 M25.1,31.8h0.6v6.3h-0.6V31.8z M26.2,31.8h0.6v6.3h-0.6V31.8z M27.4,31.8H28v6.3h-0.6V31.8z M28.6,31.8h0.6v6.3h-0.6V31.8z
	 M30.9,22.4h7.7v7.7h-7.7V22.4z M31.6,23h0.6v6.3h-0.6V23z M32.7,23h0.6v6.3h-0.6V23z M33.9,23h0.6v6.3h-0.6V23z M35.1,23h0.6v6.3
	h-0.6V23z M36.2,23h0.6v6.3h-0.6V23z M37.3,23H38v6.3h-0.6V23z"/>
<path id="path14" class="st6" d="M30.9,31.2h7.7v7.7h-7.7V31.2z M31.6,31.8h0.6v6.3h-0.6V31.8z M32.7,31.8h0.6v6.3h-0.6V31.8z
	 M33.9,31.8h0.6v6.3h-0.6V31.8z M35.1,31.8h0.6v6.3h-0.6V31.8z M36.2,31.8h0.6v6.3h-0.6V31.8z M37.3,31.8H38v6.3h-0.6V31.8z"/>
<path id="path16" class="st5" d="M39.8,31.2h7.7v7.7h-7.7V31.2z M40.4,31.8H41v6.3h-0.6V31.8z M41.6,31.8h0.6v6.3h-0.6V31.8z
	 M42.7,31.8h0.6v6.3h-0.6V31.8z M43.8,31.8h0.6v6.3h-0.6V31.8z M45,31.8h0.6v6.3H45V31.8z M46.2,31.8h0.6v6.3h-0.6V31.8z"/>
<path id="path18" class="st6" d="M39.8,22.4h7.7v7.7h-7.7V22.4z M40.4,23H41v6.3h-0.6V23z M41.6,23h0.6v6.3h-0.6V23z M42.7,23h0.6
	v6.3h-0.6V23z M43.8,23h0.6v6.3h-0.6V23z M45,23h0.6v6.3H45V23z M46.2,23h0.6v6.3h-0.6V23z M48.6,31.2h7.7v7.7h-7.7V31.2z
	 M49.2,31.8h0.6v6.3h-0.6V31.8z M50.4,31.8H51v6.3h-0.6V31.8z M51.5,31.8h0.6v6.3h-0.6V31.8z M52.7,31.8h0.6v6.3h-0.6V31.8z
	 M53.8,31.8h0.6v6.3h-0.6V31.8z M55,31.8h0.6v6.3H55V31.8z"/>
<path id="path20" class="st5" d="M48.6,22.4h7.7v7.7h-7.7V22.4z M49.2,23h0.6v6.3h-0.6V23z M50.4,23H51v6.3h-0.6V23z M51.5,23h0.6
	v6.3h-0.6V23z M52.7,23h0.6v6.3h-0.6V23z M53.8,23h0.6v6.3h-0.6V23z M55,23h0.6v6.3H55V23z"/>
<path id="path22" class="st6" d="M48.6,13.6h7.7v7.7h-7.7V13.6z M49.2,14.2h0.6v6.3h-0.6V14.2z M50.4,14.2H51v6.3h-0.6V14.2z
	 M51.5,14.2h0.6v6.3h-0.6V14.2z M52.7,14.2h0.6v6.3h-0.6V14.2z M53.8,14.2h0.6v6.3h-0.6V14.2z M55,14.2h0.6v6.3H55V14.2z"/>
<path id="path24" class="st5" d="M57.4,31.2h7.7v7.7h-7.7V31.2z M58,31.8h0.6v6.3H58V31.8z M59.1,31.8h0.6v6.3h-0.6V31.8z
	 M60.3,31.8h0.6v6.3h-0.6L60.3,31.8z M61.5,31.8h0.6v6.3h-0.6V31.8z M62.7,31.8h0.6v6.3h-0.6L62.7,31.8z M63.8,31.8h0.6v6.3h-0.6
	V31.8z"/>
<path id="path26" class="st7" d="M38.1,51.2c1.2,0,2.1,0.9,2.1,2.1s-0.9,2.1-2.1,2.1S36,54.5,36,53.3S37,51.2,38.1,51.2"/>
<path id="path28" class="st0" d="M38.1,51.8c0.2,0,0.4,0,0.5,0.1c-0.2,0.1-0.3,0.3-0.3,0.5c0,0.3,0.3,0.6,0.6,0.6
	c0.2,0,0.5-0.2,0.5-0.3c0.1,0.2,0.1,0.4,0.1,0.5c0,0.9-0.7,1.5-1.5,1.5c-0.9,0-1.5-0.7-1.5-1.5S37.3,51.8,38.1,51.8 M0.9,46.9h98
	c-2.1-0.5-6.7-1.3-6-4.1c-3.9,4.5-13.2,3.1-15.6,0.9c-2.7,3.8-18,2.3-19-0.6c-3.3,3.9-13.5,3.9-16.8,0c-1.1,3-16.4,4.5-19,0.6
	c-2.3,2.2-11.7,3.5-15.6-0.9C7.7,45.5,3,46.3,0.9,46.9"/>
<path id="path30" class="st8" d="M43.8,66.4c-5.2-2.5-8-5.9-9.7-9.5c-2,0.5-4.3,0.9-7,1.1C26.1,58,25,58,23.9,58
	c-1.3,0-2.7,0-4.1-0.1c4.7,4.7,10.6,8.4,21.5,8.4L43.8,66.4z"/>
<path id="path32" class="st9" d="M36,60.2c-0.7-1-1.4-2.2-2-3.4c-2,0.5-4.3,0.9-7,1.1C28.9,58.9,31.6,59.8,36,60.2z"/>
<g class="st10">
	<path class="st11" d="M21.5,81.4c0-2.9,1.7-4.9,4.5-4.9c1.3,0,2.4,0.5,3,1.5v-5.8h2.3V86h-2.1L29,84.6c-0.6,1.1-1.8,1.7-3.2,1.7
		C23.2,86.3,21.5,84.3,21.5,81.4z M28.9,81.4c0-1.7-1-2.8-2.6-2.8s-2.6,1.2-2.6,2.8c0,1.6,1,2.8,2.6,2.8S28.9,83,28.9,81.4z"/>
	<path class="st11" d="M38,76.5c2.9,0,4.9,2,4.9,4.9c0,2.9-2.1,4.9-4.9,4.9c-2.9,0-4.9-2-4.9-4.9C33.1,78.5,35.1,76.5,38,76.5z
		 M38,84.2c1.6,0,2.6-1.1,2.6-2.8s-1.1-2.8-2.6-2.8c-1.6,0-2.6,1.1-2.6,2.8S36.4,84.2,38,84.2z"/>
	<path class="st11" d="M48.8,76.5c2.5,0,4.2,1.4,4.5,3.6H51c-0.3-1-1-1.6-2.1-1.6c-1.5,0-2.4,1.1-2.4,2.8c0,1.7,0.9,2.8,2.4,2.8
		c1.1,0,1.9-0.6,2.2-1.6h2.3c-0.3,2.1-2.1,3.6-4.5,3.6c-2.8,0-4.6-1.9-4.6-4.9C44.2,78.5,46.1,76.5,48.8,76.5z"/>
	<path class="st11" d="M55,86V72.1h2.3v8.5l3.6-3.9h2.9l-3.5,3.7l3.4,5.6H61l-2.4-3.9l-1.3,1.4V86H55z"/>
	<path class="st11" d="M64.1,81.4c0-2.9,1.9-4.9,4.6-4.9c2.8,0,4.5,1.8,4.5,4.7v0.7l-6.9,0c0.2,1.6,1,2.4,2.5,2.4
		c1.3,0,2.1-0.5,2.3-1.4h2.1c-0.4,2-2.1,3.2-4.5,3.2C66,86.3,64.1,84.3,64.1,81.4z M66.3,80.5h4.6c0-1.3-0.9-2.1-2.2-2.1
		C67.3,78.4,66.5,79.1,66.3,80.5z"/>
	<path class="st11" d="M80.8,78.9H80c-1.6,0-2.7,0.9-2.7,2.7V86H75v-9.2h2.1l0.1,1.3c0.4-0.9,1.3-1.5,2.5-1.5c0.3,0,0.6,0,1,0.1
		V78.9z"/>
</g>
</svg>
