<?xml version="1.0" encoding="utf-8"?>
<!-- Generator: Adobe Illustrator 24.1.3, SVG Export Plug-In . SVG Version: 6.00 Build 0)  -->
<svg version="1.1"
	 id="svg18" sodipodi:docname="drupal.svg" xmlns:inkscape="http://www.inkscape.org/namespaces/inkscape" xmlns:sodipodi="http://sodipodi.sourceforge.net/DTD/sodipodi-0.dtd" xmlns:svg="http://www.w3.org/2000/svg"
	 xmlns="http://www.w3.org/2000/svg" xmlns:xlink="http://www.w3.org/1999/xlink" x="0px" y="0px" viewBox="0 0 100 100"
	 style="enable-background:new 0 0 100 100;" xml:space="preserve">
<style type="text/css">
	.st0{fill:#00598E;}
	.st1{fill:#FFFFFF;}
	.st2{fill:#0073BA;}
	.st3{fill:#004975;}
	.st4{fill:#93C5E4;}
	.st5{fill:none;}
	.st6{enable-background:new    ;}
</style>
<sodipodi:namedview  bordercolor="#000000" borderopacity="0.25" id="namedview20" inkscape:deskcolor="#d1d1d1" inkscape:pagecheckerboard="0" inkscape:pageopacity="0.0" inkscape:showpageshadow="2" pagecolor="#ffffff" showgrid="false">
	</sodipodi:namedview>
<path id="path4" class="st0" d="M65.3,16.2c-3.6-2.2-7-3.1-10.3-5.3c-2.1-1.4-5-4.8-7.4-7.7C47,7.8,45.6,9.7,44,11
	c-3.4,2.7-5.6,3.5-8.6,5.1c-2.5,1.3-16.1,9.4-16.1,26.8S34,73.2,50.3,73.2c16.3,0,30.4-11.8,30.4-29.7S67.4,17.5,65.3,16.2z"/>
<path id="path6" class="st1" d="M59.8,58.1c1.1,0,2.2,0.1,3,0.6c0.8,0.5,1.3,1.8,1.6,2.4c0.3,0.7,0,1.1-0.5,1.3
	c-0.5,0.3-0.5,0.1-1-0.7c-0.5-0.9-0.9-1.8-3.2-1.8c-2.4,0-3.1,0.8-4.3,1.8c-1.1,0.9-1.6,1.3-2,0.7c-0.4-0.5-0.3-1.1,0.5-1.8
	c0.7-0.7,2-1.8,3.1-2.2C58.1,58,58.7,58.1,59.8,58.1z M48.6,65.8c1.4,1.1,3.4,2,7.7,2s7.4-1.2,8.7-2.2c0.6-0.5,0.9-0.1,0.9,0.2
	c0.1,0.3,0.2,0.7-0.3,1.1c-0.3,0.3-3.4,2.5-7.1,2.8C54.9,70,50,70.2,47,67.5c-0.5-0.5-0.3-1.1,0-1.4c0.3-0.3,0.6-0.5,1-0.5
	C48.4,65.7,48.4,65.7,48.6,65.8z"/>
<path id="path8" class="st2" d="M32,60.7c5.1-0.1,6.1-0.9,10.6-3c24.4-10.9,29-20.9,29.8-23.2c0.9-2.3,2.2-6,0.8-10.1
	c-0.2-0.6-0.4-1.3-0.6-1.9c-3.2-3.6-6.5-5.6-7.4-6.2c-3.5-2.2-7-3.1-10.3-5.3c-2.1-1.4-5-4.8-7.4-7.7C47,7.8,45.7,9.8,44,11
	c-3.4,2.7-5.6,3.5-8.6,5.1c-2.5,1.3-16.1,9.4-16.1,26.8c0,5.6,1.5,10.7,4.1,15l0.7,0C25.5,59.2,27.7,60.7,32,60.7z"/>
<path id="path10" class="st3" d="M65.3,16.2c-3.5-2.2-7-3.1-10.3-5.3c-2.1-1.4-5-4.8-7.4-7.7C47,7.8,45.7,9.8,44,11
	c-3.4,2.7-5.6,3.5-8.6,5.1c-2.5,1.3-16.1,9.4-16.1,26.8c0,5.6,1.5,10.7,4.1,15c5.5,9.3,15.8,15.2,26.9,15.2
	c16.3,0,30.4-11.8,30.4-29.7c0-9.8-4-16.7-7.9-21.1C69.4,18.8,66.2,16.8,65.3,16.2z M73.5,24.1c4.4,5.5,6.7,12.1,6.7,19.4
	c0,4.3-0.8,8.3-2.4,12c-1.5,3.5-3.7,6.6-6.5,9.2c-5.5,5.2-13,8-20.9,8c-3.9,0-7.8-0.8-11.5-2.2c-3.6-1.4-6.9-3.5-9.7-6.2
	c-5.9-5.6-9.2-13.2-9.2-21.3c0-7.2,2.3-13.7,7-19.1c3.5-4.2,7.4-6.5,8.8-7.3c0.7-0.4,1.4-0.7,2-1.1c2-1,4-2,6.6-4.1
	c1.4-1.1,2.9-2.8,3.6-7.1c2.2,2.7,4.8,5.6,6.8,6.9c1.8,1.2,3.6,2,5.3,2.8c1.6,0.7,3.4,1.5,5,2.6l0.1,0C70,19.7,72.6,23,73.5,24.1z"
	/>
<path id="path12" class="st4" d="M47.8,4.5c0.9,2.8,0.8,4.2,0.8,4.8c0,0.6-0.3,2.2-1.4,3c-0.5,0.3-0.6,0.6-0.6,0.7
	c0,0.3,0.6,0.5,0.6,1.1c0,0.7-0.3,2.2-3.9,5.8c-3.6,3.6-8.7,6.8-12.7,8.7c-4,2-5.9,1.8-6.4,0.9c-0.5-0.9,0.2-3,2.7-5.8
	c2.5-2.8,10.4-6.8,10.4-6.8l9.9-6.9l0.5-2.6"/>
<path id="path14" class="st1" d="M47.8,4.4c-0.6,4.5-2,5.8-3.8,7.2c-3,2.3-6,3.7-6.7,4.1c-1.8,0.9-8.1,4.4-11.4,9.5
	c-1,1.6,0,2.2,0.2,2.3c0.2,0.1,2.5,0.4,7.4-2.6c4.9-3,7.1-4.7,9.9-7.6c1.5-1.6,1.7-2.4,1.7-2.8c0-0.5-0.3-0.7-0.9-0.8
	c-0.3-0.1-0.3-0.2,0-0.4c0.3-0.2,1.8-0.9,2.1-1.1c0.3-0.3,2-1.4,2-3.1C48.4,7.2,48.3,6,47.8,4.4z M32.6,53.5
	c0.1-5.3,5-10.2,11.2-10.3c7.9-0.1,13.4,7.8,17.4,7.8c3.4-0.1,9.9-6.7,13-6.7c3.4,0,4.3,3.5,4.3,5.6c0,2.1-0.7,5.9-2.3,8.2
	c-1.6,2.4-2.6,3.2-4.5,3.1c-2.4-0.2-7.3-7.8-10.4-7.9c-3.9-0.1-12.4,8.2-19.1,8.2c-4,0-5.3-0.6-6.6-1.5
	C33.6,58.6,32.6,56.5,32.6,53.5z"/>
<path id="path16" class="st5" d="M73.3,24.3c1.3,4.1,0.1,7.8-0.8,10.1c-0.9,2.3-5.4,12.3-29.8,23.2c-4.5,2-5.5,2.9-10.6,3
	c-4.3,0.1-6.5-1.4-8-2.7l-0.7,0c5.5,9.3,15.8,15.2,26.9,15.2c16.3,0,30.4-11.8,30.4-29.7c0-9.8-4-16.7-7.9-21.1
	C72.8,22.9,73,23.5,73.3,24.3z"/>
<g class="st6">
	<path class="st2" d="M25.3,89.7V76.1h4.8c4,0,6.8,2.8,6.8,6.8c0,4-2.7,6.8-6.7,6.8H25.3z M27.7,78.3v9.2H30c2.7,0,4.4-1.8,4.4-4.6
		c0-2.9-1.7-4.6-4.5-4.6H27.7z"/>
	<path class="st2" d="M44.5,82.6h-0.8c-1.6,0-2.7,0.9-2.7,2.7v4.5h-2.3v-9.2h2.1l0.1,1.3c0.4-0.9,1.3-1.5,2.5-1.5c0.3,0,0.6,0,1,0.1
		V82.6z"/>
	<path class="st2" d="M54.6,80.5v9.2h-2.1l-0.2-1.2c-0.6,0.9-1.8,1.5-3,1.5c-2.1,0-3.4-1.4-3.4-3.7v-5.8h2.3v5c0,1.8,0.7,2.5,2,2.5
		c1.4,0,2.1-0.8,2.1-2.6v-4.8H54.6z"/>
	<path class="st2" d="M57,80.5h2.1l0.1,1.4c0.6-1.1,1.8-1.7,3.2-1.7c2.6,0,4.3,1.9,4.3,4.8c0,2.9-1.6,5-4.3,5
		c-1.4,0-2.6-0.5-3.2-1.5V94H57V80.5z M61.9,87.9c1.6,0,2.6-1.2,2.6-2.8c0-1.6-1-2.8-2.6-2.8c-1.6,0-2.6,1.2-2.6,2.8
		C59.3,86.8,60.3,87.9,61.9,87.9z"/>
	<path class="st2" d="M68.1,87.1c0-1.7,1.2-2.8,3.4-2.9l2.8-0.2v-0.2c0-1.3-0.7-1.8-1.9-1.8c-1.3,0-2.1,0.6-2.1,1.5h-1.9
		c0-2,1.6-3.3,4.1-3.3c2.5,0,4,1.3,4,3.9v5.6h-2l-0.2-1.4c-0.4,1-1.6,1.6-3.1,1.6C69.3,90,68.1,88.9,68.1,87.1z M74.3,86v-0.5
		l-1.9,0.1c-1.4,0.1-2,0.6-2,1.3c0,0.8,0.6,1.3,1.6,1.3C73.4,88.3,74.3,87.4,74.3,86z"/>
	<path class="st2" d="M78.8,89.7V75.9H81v13.9H78.8z"/>
</g>
</svg>
