<?xml version="1.0" encoding="utf-8"?>
<!-- Generator: Adobe Illustrator 24.1.3, SVG Export Plug-In . SVG Version: 6.00 Build 0)  -->
<svg version="1.1"
	 id="svg6" xmlns:inkscape="http://www.inkscape.org/namespaces/inkscape" xmlns:sodipodi="http://sodipodi.sourceforge.net/DTD/sodipodi-0.dtd" xmlns:svg="http://www.w3.org/2000/svg"
	 xmlns="http://www.w3.org/2000/svg" xmlns:xlink="http://www.w3.org/1999/xlink" x="0px" y="0px" viewBox="0 0 100 100"
	 style="enable-background:new 0 0 100 100;" xml:space="preserve">
<style type="text/css">
	.st0{fill:#3D5A98;}
	.st1{fill:#FFFFFF;}
	.st2{enable-background:new    ;}
</style>
<sodipodi:namedview  bordercolor="#000000" borderopacity="0.25" id="namedview8" inkscape:current-layer="svg6" inkscape:cx="46.320869" inkscape:cy="59.589867" inkscape:deskcolor="#d1d1d1" inkscape:pagecheckerboard="0" inkscape:pageopacity="0.0" inkscape:showpageshadow="2" inkscape:window-height="1009" inkscape:window-maximized="1" inkscape:window-width="1920" inkscape:window-x="-8" inkscape:window-y="-8" inkscape:zoom="8.29" pagecolor="#ffffff" showgrid="false">
	</sodipodi:namedview>
<path id="rect2" class="st0" d="M15.6,1.4h68.7c2.4,0,4.3,1.9,4.3,4.3v68.7c0,2.4-1.9,4.3-4.3,4.3H15.6c-2.4,0-4.3-1.9-4.3-4.3V5.6
	C11.4,3.3,13.3,1.4,15.6,1.4z"/>
<path id="path4" class="st1" d="M64.7,78.6V48.7h10L76.2,37H64.7v-7.4c0-3.4,0.9-5.7,5.8-5.7h6.2V13.5c-3-0.3-6-0.5-9-0.4
	c-8.9,0-15,5.4-15,15.4V37h-10v11.7h10v29.9H64.7z"/>
<g class="st2">
	<path class="st0" d="M11.8,93.3v5.6H9.4V85.2h8.4v2.2h-6v3.7h5.1v2.1H11.8z"/>
	<path class="st0" d="M18.5,96.3c0-1.7,1.2-2.8,3.4-2.9l2.8-0.2v-0.2c0-1.3-0.7-1.8-1.9-1.8c-1.3,0-2.1,0.6-2.1,1.5h-1.9
		c0-2,1.6-3.3,4.1-3.3c2.5,0,4,1.3,4,3.9v5.6h-2l-0.2-1.4c-0.4,1-1.6,1.6-3.1,1.6C19.7,99.1,18.5,98,18.5,96.3z M24.7,95.2v-0.5
		l-1.9,0.1c-1.4,0.1-2,0.6-2,1.3c0,0.8,0.6,1.3,1.6,1.3C23.8,97.4,24.7,96.6,24.7,95.2z"/>
	<path class="st0" d="M33.2,89.4c2.5,0,4.2,1.4,4.5,3.6h-2.3c-0.3-1-1-1.6-2.1-1.6c-1.5,0-2.4,1.1-2.4,2.8s0.9,2.8,2.4,2.8
		c1.1,0,1.9-0.6,2.2-1.6h2.3c-0.3,2.1-2.1,3.6-4.5,3.6c-2.8,0-4.6-1.9-4.6-4.9C28.6,91.4,30.5,89.4,33.2,89.4z"/>
	<path class="st0" d="M38.9,94.3c0-2.9,1.9-4.9,4.6-4.9c2.8,0,4.5,1.8,4.5,4.7v0.7l-6.9,0c0.2,1.6,1,2.4,2.5,2.4
		c1.3,0,2.1-0.5,2.3-1.4H48c-0.4,2-2.1,3.2-4.5,3.2C40.8,99.1,38.9,97.1,38.9,94.3z M41.1,93.4h4.6c0-1.3-0.9-2.1-2.2-2.1
		C42.1,91.3,41.3,92,41.1,93.4z"/>
	<path class="st0" d="M49.8,98.9V85h2.3v6c0.6-1,1.8-1.6,3.2-1.6c2.6,0,4.2,2.1,4.2,5c0,2.8-1.7,4.8-4.4,4.8c-1.4,0-2.6-0.6-3.1-1.7
		l-0.1,1.4H49.8z M54.7,97c1.6,0,2.6-1.2,2.6-2.8s-1-2.8-2.6-2.8c-1.6,0-2.6,1.2-2.6,2.8C52.1,95.9,53.1,97,54.7,97z"/>
	<path class="st0" d="M65.7,89.4c2.9,0,4.9,2,4.9,4.9s-2.1,4.9-4.9,4.9c-2.9,0-4.9-2-4.9-4.9S62.9,89.4,65.7,89.4z M65.7,97.1
		c1.6,0,2.6-1.1,2.6-2.8c0-1.7-1.1-2.8-2.6-2.8s-2.6,1.1-2.6,2.8C63.1,95.9,64.2,97.1,65.7,97.1z"/>
	<path class="st0" d="M76.9,89.4c2.9,0,4.9,2,4.9,4.9s-2.1,4.9-4.9,4.9c-2.9,0-4.9-2-4.9-4.9S74,89.4,76.9,89.4z M76.9,97.1
		c1.6,0,2.6-1.1,2.6-2.8c0-1.7-1.1-2.8-2.6-2.8s-2.6,1.1-2.6,2.8C74.2,95.9,75.3,97.1,76.9,97.1z"/>
	<path class="st0" d="M83.6,98.9V85h2.3v8.5l3.6-3.9h2.9l-3.5,3.7l3.4,5.6h-2.6L87.2,95l-1.3,1.4v2.5H83.6z"/>
</g>
</svg>
