<?xml version="1.0" encoding="utf-8"?>
<!-- Generator: Adobe Illustrator 24.1.3, SVG Export Plug-In . SVG Version: 6.00 Build 0)  -->
<svg version="1.1"
	 id="svg12" sodipodi:docname="figma.svg" xmlns:inkscape="http://www.inkscape.org/namespaces/inkscape" xmlns:sodipodi="http://sodipodi.sourceforge.net/DTD/sodipodi-0.dtd" xmlns:svg="http://www.w3.org/2000/svg"
	 xmlns="http://www.w3.org/2000/svg" xmlns:xlink="http://www.w3.org/1999/xlink" x="0px" y="0px" viewBox="0 0 100 100"
	 style="enable-background:new 0 0 100 100;" xml:space="preserve">
<style type="text/css">
	.st0{fill:#0ACF83;}
	.st1{fill:#A259FF;}
	.st2{fill:#F24E1E;}
	.st3{fill:#FF7262;}
	.st4{fill:#1ABCFE;}
	.st5{enable-background:new    ;}
</style>
<sodipodi:namedview  bordercolor="#000000" borderopacity="0.25" id="namedview14" inkscape:deskcolor="#d1d1d1" inkscape:pagecheckerboard="0" inkscape:pageopacity="0.0" inkscape:showpageshadow="2" pagecolor="#ffffff" showgrid="false">
	</sodipodi:namedview>
<path id="path2" class="st0" d="M39.4,79.2c7.2,0,12.9-5.8,12.9-12.9V53.3H39.4c-7.2,0-12.9,5.8-12.9,12.9S32.2,79.2,39.4,79.2z"/>
<path id="path4" class="st1" d="M26.5,40.4c0-7.2,5.8-12.9,12.9-12.9h12.9v25.9H39.4C32.2,53.3,26.5,47.6,26.5,40.4z"/>
<path id="path6" class="st2" d="M26.5,14.5c0-7.2,5.8-12.9,12.9-12.9h12.9v25.9H39.4C32.2,27.5,26.5,21.7,26.5,14.5z"/>
<path id="path8" class="st3" d="M52.3,1.6h12.9c7.2,0,12.9,5.8,12.9,12.9s-5.8,12.9-12.9,12.9H52.3V1.6z"/>
<path id="path10" class="st4" d="M78.2,40.4c0,7.2-5.8,12.9-12.9,12.9c-7.2,0-12.9-5.8-12.9-12.9s5.8-12.9,12.9-12.9
	C72.4,27.5,78.2,33.2,78.2,40.4z"/>
<g class="st5">
	<path class="st1" d="M28,89.2v5.6h-2.4V81.2h8.4v2.2h-6v3.7h5.1v2.1H28z"/>
	<path class="st1" d="M35.6,82.4c0-0.8,0.6-1.4,1.4-1.4c0.7,0,1.4,0.6,1.4,1.4c0,0.8-0.6,1.4-1.4,1.4C36.2,83.7,35.6,83.1,35.6,82.4
		z M35.9,85.6h2.3v9.2h-2.3V85.6z"/>
	<path class="st1" d="M44.4,85.3c1.4,0,2.5,0.6,3,1.6l0.1-1.3h2.1v8.8c0,3.1-1.8,5-4.8,5c-2.6,0-4.5-1.5-4.7-4h2.3
		c0.1,1.2,1.1,1.9,2.5,1.9c1.6,0,2.6-1,2.6-2.5v-1.5c-0.6,0.9-1.7,1.4-3,1.4c-2.6,0-4.3-2-4.3-4.6C40,87.3,41.7,85.3,44.4,85.3z
		 M44.8,92.6c1.6,0,2.5-1.1,2.5-2.7c0-1.6-1-2.6-2.5-2.6c-1.5,0-2.5,1.1-2.5,2.6C42.3,91.5,43.3,92.6,44.8,92.6z"/>
	<path class="st1" d="M52,94.8v-9.2h2.1l0.2,1.1c0.5-0.8,1.4-1.4,2.7-1.4c1.4,0,2.4,0.7,2.9,1.8c0.5-1.1,1.5-1.8,2.9-1.8
		c2.2,0,3.5,1.3,3.5,3.5v6H64v-5.4c0-1.3-0.7-2-1.8-2c-1.1,0-1.9,0.7-1.9,2.2v5.2H58v-5.4c0-1.3-0.7-2-1.8-2c-1.1,0-2,0.7-2,2.2v5.2
		H52z"/>
	<path class="st1" d="M68.1,92.2c0-1.7,1.2-2.8,3.4-2.9l2.8-0.2v-0.2c0-1.3-0.7-1.8-1.9-1.8c-1.3,0-2.1,0.6-2.1,1.5h-1.9
		c0-2,1.6-3.3,4.1-3.3c2.5,0,4,1.3,4,3.9v5.6h-2l-0.2-1.4c-0.4,1-1.6,1.6-3.1,1.6C69.3,95.1,68.1,93.9,68.1,92.2z M74.3,91.1v-0.5
		l-1.9,0.1c-1.4,0.1-2,0.6-2,1.3c0,0.8,0.6,1.3,1.6,1.3C73.4,93.3,74.3,92.5,74.3,91.1z"/>
</g>
</svg>
