<?xml version="1.0" encoding="utf-8"?>
<!-- Generator: Adobe Illustrator 24.1.3, SVG Export Plug-In . SVG Version: 6.00 Build 0)  -->
<svg version="1.1"
	 id="svg19" sodipodi:docname="flutter.svg" xmlns:inkscape="http://www.inkscape.org/namespaces/inkscape" xmlns:sodipodi="http://sodipodi.sourceforge.net/DTD/sodipodi-0.dtd" xmlns:svg="http://www.w3.org/2000/svg"
	 xmlns="http://www.w3.org/2000/svg" xmlns:xlink="http://www.w3.org/1999/xlink" x="0px" y="0px" viewBox="0 0 100 100"
	 style="enable-background:new 0 0 100 100;" xml:space="preserve">
<style type="text/css">
	.st0{fill:#3FB6D3;}
	.st1{fill:#27AACD;}
	.st2{fill:#19599A;}
	.st3{fill:url(#path17_1_);}
	.st4{enable-background:new    ;}
</style>
<sodipodi:namedview  bordercolor="#000000" borderopacity="0.25" id="namedview21" inkscape:deskcolor="#d1d1d1" inkscape:pagecheckerboard="0" inkscape:pageopacity="0.0" inkscape:showpageshadow="2" pagecolor="#ffffff" showgrid="false">
	</sodipodi:namedview>
<g id="g4" transform="matrix(0.82683355,0,0,0.82683355,10.427576,0.80520551)">
	<path id="path2" class="st0" d="M6.9,49.9l50-50.2h30.8L22.3,65.1L6.9,49.9z M56.9,99.8h30.8L61,73.1L87.6,46H56.9L30.2,72.8
		L56.9,99.8z"/>
</g>
<path id="path6" class="st1" d="M60.9,61.3L47.9,48.4L35.4,61l12.5,12.7L60.9,61.3z"/>
<path id="path8" class="st2" d="M82.9,83.3l-22-22L47.9,73.7l9.5,9.6H82.9z"/>
<linearGradient id="path17_1_" gradientUnits="userSpaceOnUse" x1="405.7522" y1="-196.8754" x2="433.2122" y2="-179.9144" gradientTransform="matrix(0.646 0 0 -0.646 -215.6044 -51.3767)">
	<stop  offset="0" style="stop-color:#1B4E94"/>
	<stop  offset="0.63" style="stop-color:#1A5497"/>
	<stop  offset="1" style="stop-color:#195A9B"/>
</linearGradient>
<path id="path17" class="st3" d="M47.9,73.7l19.9-5.4l-7-7L47.9,73.7z"/>
<g class="st4">
	<path class="st0" d="M25.7,92.5v5.6h-2.4V84.4h8.4v2.2h-6v3.7h5.1v2.1H25.7z"/>
	<path class="st0" d="M33.6,98.1V84.2h2.3v13.9H33.6z"/>
	<path class="st0" d="M46.8,88.9v9.2h-2.1l-0.2-1.2c-0.6,0.9-1.8,1.5-3,1.5c-2.1,0-3.4-1.4-3.4-3.7v-5.8h2.3v5c0,1.8,0.7,2.5,2,2.5
		c1.4,0,2.1-0.8,2.1-2.6v-4.8H46.8z"/>
	<path class="st0" d="M50,98.1v-7.3h-1.8v-1.9H50V86h2.3v2.9h1.8v1.9h-1.8v7.3H50z"/>
	<path class="st0" d="M56.6,98.1v-7.3h-1.8v-1.9h1.8V86h2.3v2.9h1.8v1.9h-1.8v7.3H56.6z"/>
	<path class="st0" d="M61.5,93.5c0-2.9,1.9-4.9,4.6-4.9c2.8,0,4.5,1.8,4.5,4.7V94l-6.9,0c0.2,1.6,1,2.4,2.5,2.4
		c1.3,0,2.1-0.5,2.3-1.4h2.1c-0.4,2-2.1,3.2-4.5,3.2C63.4,98.3,61.5,96.3,61.5,93.5z M63.7,92.6h4.6c0-1.3-0.9-2.1-2.2-2.1
		C64.7,90.5,63.9,91.2,63.7,92.6z"/>
	<path class="st0" d="M78.2,90.9h-0.8c-1.6,0-2.7,0.9-2.7,2.7v4.5h-2.3v-9.2h2.1l0.1,1.3c0.4-0.9,1.3-1.5,2.5-1.5c0.3,0,0.6,0,1,0.1
		V90.9z"/>
</g>
</svg>
