<?xml version="1.0" encoding="utf-8"?>
<!-- Generator: Adobe Illustrator 24.1.3, SVG Export Plug-In . SVG Version: 6.00 Build 0)  -->
<svg version="1.1"
	 id="svg8" sodipodi:docname="git.svg" xmlns:inkscape="http://www.inkscape.org/namespaces/inkscape" xmlns:sodipodi="http://sodipodi.sourceforge.net/DTD/sodipodi-0.dtd" xmlns:svg="http://www.w3.org/2000/svg"
	 xmlns="http://www.w3.org/2000/svg" xmlns:xlink="http://www.w3.org/1999/xlink" x="0px" y="0px" viewBox="0 0 100 100"
	 style="enable-background:new 0 0 100 100;" xml:space="preserve">
<style type="text/css">
	.st0{fill:#F34F29;}
	.st1{fill:none;}
	.st2{enable-background:new    ;}
</style>
<sodipodi:namedview  bordercolor="#000000" borderopacity="0.25" id="namedview10" inkscape:deskcolor="#d1d1d1" inkscape:pagecheckerboard="0" inkscape:pageopacity="0.0" inkscape:showpageshadow="2" pagecolor="#ffffff" showgrid="false">
	</sodipodi:namedview>
<path id="path4" class="st0" d="M41.2,48.2L23.4,30.4c-1-1-2.7-1-3.7,0L16,34.1l4.7,4.7c1.1-0.4,2.4-0.1,3.2,0.7
	c0.8,0.8,1.1,2.1,0.7,3.2l4.5,4.5c1.6-0.6,3.4,0.3,4,1.9c0.4,1.1,0.1,2.4-0.7,3.2c-1.2,1.2-3.2,1.2-4.4,0c-0.9-0.9-1.2-2.2-0.7-3.4
	l-4.2-4.2l0,11.1c1.5,0.8,2.2,2.6,1.4,4.2c-0.2,0.3-0.3,0.6-0.6,0.8c-1.2,1.2-3.2,1.2-4.4,0c-1.2-1.2-1.2-3.2,0-4.4
	c0.3-0.3,0.6-0.5,1-0.7V44.6c-1.6-0.7-2.4-2.5-1.7-4.1c0,0,0,0,0,0l-4.6-4.6L2,48.1c-1,1-1,2.7,0,3.7c0,0,0,0,0,0l17.8,17.8
	c1,1,2.7,1,3.7,0l17.7-17.7C42.2,50.9,42.2,49.2,41.2,48.2C41.2,48.2,41.2,48.2,41.2,48.2z"/>
<path id="path6" class="st1" d="M1.2,29.6h97.5v40.7H1.2V29.6z"/>
<g class="st2">
	<path d="M55.3,38.9c3,0,5.4,1.3,6.5,3.4l0.3-2.8h4.6v19c0,6.7-4,10.9-10.5,10.9c-5.8,0-9.7-3.3-10.3-8.6h4.9
		c0.3,2.6,2.3,4.1,5.4,4.1c3.4,0,5.6-2.2,5.6-5.5v-3.3c-1.3,1.9-3.7,3-6.6,3c-5.7,0-9.4-4.3-9.4-10.1C45.8,43.2,49.6,38.9,55.3,38.9
		z M56.1,54.8c3.4,0,5.5-2.4,5.5-5.9c0-3.4-2.1-5.8-5.5-5.8c-3.3,0-5.4,2.5-5.4,5.8C50.7,52.3,52.9,54.8,56.1,54.8z"/>
	<path d="M71.2,32.5c0-1.7,1.3-3,3-3c1.6,0,3,1.3,3,3c0,1.7-1.3,3-3,3C72.6,35.5,71.2,34.1,71.2,32.5z M71.8,39.5h4.9v20h-4.9V39.5z
		"/>
	<path d="M83.7,59.5V43.6h-3.9v-4.1h3.9v-6.2h4.9v6.2h3.9v4.1h-3.9v15.9H83.7z"/>
</g>
</svg>
