<?xml version="1.0" encoding="utf-8"?>
<!-- Generator: Adobe Illustrator 24.1.3, SVG Export Plug-In . SVG Version: 6.00 Build 0)  -->
<svg version="1.1"
	 id="svg10" sodipodi:docname="github.svg" xmlns:inkscape="http://www.inkscape.org/namespaces/inkscape" xmlns:sodipodi="http://sodipodi.sourceforge.net/DTD/sodipodi-0.dtd" xmlns:svg="http://www.w3.org/2000/svg"
	 xmlns="http://www.w3.org/2000/svg" xmlns:xlink="http://www.w3.org/1999/xlink" x="0px" y="0px" viewBox="0 0 100 100"
	 style="enable-background:new 0 0 100 100;" xml:space="preserve">
<style type="text/css">
	.st0{fill-rule:evenodd;clip-rule:evenodd;fill:#181616;}
	.st1{fill:#181616;}
	.st2{enable-background:new    ;}
</style>
<sodipodi:namedview  bordercolor="#000000" borderopacity="0.25" id="namedview12" inkscape:deskcolor="#d1d1d1" inkscape:pagecheckerboard="0" inkscape:pageopacity="0.0" inkscape:showpageshadow="2" pagecolor="#ffffff" showgrid="false">
	</sodipodi:namedview>
<g id="g6">
	<path id="path2" class="st0" d="M50,1.2c-18.4,0-33.2,14.9-33.2,33.2c0,14.7,9.5,27.1,22.7,31.5c1.7,0.3,2.3-0.7,2.3-1.6
		c0-0.8,0-3.4,0-6.2c-9.2,2-11.2-3.9-11.2-3.9c-1.5-3.8-3.7-4.9-3.7-4.9c-3-2.1,0.2-2,0.2-2c3.3,0.2,5.1,3.4,5.1,3.4
		c3,5.1,7.8,3.6,9.7,2.8c0.3-2.1,1.2-3.6,2.1-4.4c-7.4-0.8-15.1-3.7-15.1-16.4c0-3.6,1.3-6.6,3.4-8.9c-0.3-0.8-1.5-4.2,0.3-8.8
		c0,0,2.8-0.9,9.1,3.4c2.7-0.7,5.5-1.1,8.3-1.1c2.8,0,5.7,0.4,8.3,1.1c6.3-4.3,9.1-3.4,9.1-3.4c1.8,4.6,0.7,8,0.3,8.8
		c2.1,2.3,3.4,5.3,3.4,8.9c0,12.8-7.8,15.6-15.2,16.4c1.2,1,2.3,3.1,2.3,6.2c0,4.4,0,8,0,9.1c0,0.9,0.6,1.9,2.3,1.6
		c13.2-4.4,22.7-16.9,22.7-31.5C83.2,16.1,68.4,1.2,50,1.2z"/>
	<path id="path4" class="st1" d="M29.4,48.9c-0.1,0.2-0.3,0.2-0.6,0.1c-0.2-0.1-0.4-0.3-0.3-0.5c0.1-0.2,0.3-0.2,0.6-0.1
		C29.3,48.5,29.4,48.7,29.4,48.9L29.4,48.9z M30.7,50.4c-0.2,0.1-0.5,0.1-0.7-0.2c-0.2-0.2-0.3-0.5-0.1-0.7c0.2-0.1,0.5-0.1,0.7,0.2
		C30.8,49.9,30.9,50.3,30.7,50.4L30.7,50.4z M32,52.3c-0.2,0.1-0.5,0-0.7-0.3c-0.2-0.3-0.2-0.6,0-0.8c0.2-0.1,0.5,0,0.7,0.3
		C32.2,51.8,32.2,52.2,32,52.3L32,52.3z M33.8,54.2c-0.2,0.2-0.6,0.1-0.9-0.1c-0.3-0.3-0.4-0.6-0.2-0.8c0.2-0.2,0.6-0.1,0.9,0.1
		C33.9,53.6,34,54,33.8,54.2L33.8,54.2z M36.3,55.2c-0.1,0.3-0.5,0.4-0.8,0.3c-0.4-0.1-0.6-0.4-0.5-0.7c0.1-0.3,0.5-0.4,0.8-0.3
		C36.1,54.7,36.4,55,36.3,55.2L36.3,55.2z M39,55.4c0,0.3-0.3,0.5-0.7,0.5c-0.4,0-0.7-0.2-0.7-0.5c0-0.3,0.3-0.5,0.7-0.5
		C38.7,54.9,39,55.2,39,55.4z M41.5,55c0,0.3-0.2,0.5-0.6,0.6c-0.4,0.1-0.7-0.1-0.8-0.4c0-0.3,0.2-0.5,0.6-0.6
		C41.1,54.6,41.5,54.7,41.5,55L41.5,55z"/>
</g>
<g class="st2">
	<path d="M5.7,87.6c0,4.9,2.8,7.6,6.9,7.6c3.8,0,6.1-2.1,6.1-5.6v-0.1h-6.6v-3.4h10.2v12.3h-3.2l-0.2-2.5c-1.2,1.7-3.7,2.8-6.7,2.8
		C6,98.8,1.7,94.3,1.7,87.5c0-6.7,4.3-11.4,10.9-11.4c5,0,8.9,2.9,9.5,7.4h-4c-0.7-2.6-2.9-3.8-5.5-3.8C8.2,79.7,5.7,82.9,5.7,87.6z
		"/>
	<path d="M25.5,78.4c0-1.2,1-2.2,2.2-2.2c1.2,0,2.2,1,2.2,2.2s-1,2.2-2.2,2.2C26.5,80.6,25.5,79.7,25.5,78.4z M25.9,83.6h3.7v14.8
		h-3.7V83.6z"/>
	<path d="M34.7,98.4V86.7h-2.8v-3.1h2.8V79h3.7v4.6h2.9v3.1h-2.9v11.8H34.7z"/>
	<path d="M44.1,98.4V76.5h3.8v9.1h9.7v-9.1h3.8v21.9h-3.8v-9.3h-9.7v9.3H44.1z"/>
	<path d="M79.5,83.6v14.8h-3.4l-0.3-2c-0.9,1.4-2.8,2.4-4.8,2.4c-3.4,0-5.4-2.3-5.4-5.9v-9.3h3.7v8c0,2.8,1.1,4,3.1,4
		c2.3,0,3.4-1.3,3.4-4.2v-7.8H79.5z"/>
	<path d="M83.3,98.4V76.1h3.7v9.7c1-1.6,2.9-2.6,5.2-2.6c4.2,0,6.8,3.3,6.8,8c0,4.6-2.8,7.7-7,7.7c-2.2,0-4.1-1-5-2.7l-0.2,2.3H83.3
		z M91.1,95.5c2.6,0,4.1-1.9,4.1-4.5s-1.5-4.5-4.1-4.5c-2.5,0-4.2,1.9-4.2,4.5S88.6,95.5,91.1,95.5z"/>
</g>
</svg>
