<?xml version="1.0" encoding="utf-8"?>
<!-- Generator: Adobe Illustrator 24.1.3, SVG Export Plug-In . SVG Version: 6.00 Build 0)  -->
<svg version="1.1"
	 id="svg20" sodipodi:docname="graphql.svg" xmlns:inkscape="http://www.inkscape.org/namespaces/inkscape" xmlns:sodipodi="http://sodipodi.sourceforge.net/DTD/sodipodi-0.dtd" xmlns:svg="http://www.w3.org/2000/svg"
	 xmlns="http://www.w3.org/2000/svg" xmlns:xlink="http://www.w3.org/1999/xlink" x="0px" y="0px" viewBox="0 0 100 100"
	 style="enable-background:new 0 0 100 100;" xml:space="preserve">
<style type="text/css">
	.st0{fill:#E434AA;}
	.st1{enable-background:new    ;}
</style>
<sodipodi:namedview  bordercolor="#000000" borderopacity="0.25" id="namedview22" inkscape:deskcolor="#d1d1d1" inkscape:pagecheckerboard="0" inkscape:pageopacity="0.0" inkscape:showpageshadow="2" pagecolor="#ffffff" showgrid="false">
	</sodipodi:namedview>
<g id="g18" transform="matrix(0.80340824,0,0,0.80340824,12.581829,-0.218127)">
	<path id="path2" class="st0" d="M10.9,75.7l-3.6-2.1l40-69.3L51,6.4L10.9,75.7z"/>
	<path id="path4" class="st0" d="M6.5,68.1h80.1v4.1H6.5V68.1z"/>
	<path id="path6" class="st0" d="M48.2,93.6L8.1,70.4l2.1-3.6L50.2,90L48.2,93.6z M83,33.3L42.9,10.2L45,6.6L85,29.7L83,33.3z"/>
	<path id="path8" class="st0" d="M10.2,33.3l-2.1-3.6L48.2,6.6l2.1,3.6L10.2,33.3z"/>
	<path id="path10" class="st0" d="M82.2,75.7l-40-69.3l3.6-2.1l40,69.3L82.2,75.7z M9.7,26.9h4.2v46.3H9.7L9.7,26.9z"/>
	<path id="path12" class="st0" d="M79.3,26.9h4.1v46.3h-4.1V26.9z"/>
	<path id="path14" class="st0" d="M47.5,91.8l-1.8-3.1l34.8-20.1l1.8,3.1L47.5,91.8z"/>
	<path id="path16" class="st0" d="M88.9,74.5c-2.4,4.2-7.7,5.6-11.9,3.2c-4.2-2.4-5.6-7.8-3.2-11.9c2.4-4.2,7.8-5.6,11.9-3.2
		C89.9,65,91.4,70.4,88.9,74.5 M19.3,34.3c-2.4,4.2-7.8,5.6-11.9,3.2c-4.2-2.4-5.6-7.8-3.2-11.9c2.4-4.2,7.8-5.6,11.9-3.2
		C20.3,24.8,21.7,30.1,19.3,34.3 M4.2,74.5c-2.4-4.2-1-9.5,3.2-11.9c4.2-2.4,9.5-1,11.9,3.2c2.4,4.2,1,9.5-3.2,11.9
		C11.9,80.1,6.6,78.7,4.2,74.5 M73.8,34.3c-2.4-4.2-1-9.5,3.2-11.9c4.2-2.4,9.5-1,11.9,3.2c2.4,4.2,1,9.5-3.2,11.9
		C81.6,39.9,76.2,38.5,73.8,34.3 M46.6,99c-4.8,0-8.7-3.9-8.7-8.7c0,0,0,0,0,0c0-4.8,3.9-8.7,8.7-8.7c0,0,0,0,0,0
		c4.8,0,8.7,3.9,8.7,8.7c0,0,0,0,0,0C55.3,95.1,51.4,99,46.6,99 M46.6,18.6c-4.8,0-8.7-3.9-8.7-8.7c0,0,0,0,0,0
		c0-4.8,3.9-8.7,8.7-8.7c0,0,0,0,0,0c4.8,0,8.7,3.9,8.7,8.7c0,0,0,0,0,0C55.3,14.6,51.4,18.6,46.6,18.6
		C46.6,18.6,46.6,18.6,46.6,18.6"/>
</g>
<g class="st1">
	<path class="st0" d="M14.2,88.3c0,3,1.8,4.7,4.3,4.7c2.4,0,3.8-1.3,3.8-3.5v-0.1h-4.1v-2.1h6.3v7.7h-2l-0.1-1.6
		c-0.7,1-2.3,1.8-4.1,1.8c-3.8,0-6.5-2.8-6.5-7c0-4.1,2.7-7.1,6.8-7.1c3.1,0,5.5,1.8,5.9,4.6h-2.5c-0.4-1.6-1.8-2.4-3.5-2.4
		C15.8,83.4,14.2,85.4,14.2,88.3z"/>
	<path class="st0" d="M32.5,87.9h-0.8c-1.6,0-2.7,0.9-2.7,2.7v4.5h-2.3v-9.2h2.1l0.1,1.3c0.4-0.9,1.3-1.5,2.5-1.5c0.3,0,0.6,0,1,0.1
		V87.9z"/>
	<path class="st0" d="M33.3,92.4c0-1.7,1.2-2.8,3.4-2.9l2.8-0.2v-0.2c0-1.3-0.7-1.8-1.9-1.8c-1.3,0-2.1,0.6-2.1,1.5h-1.9
		c0-2,1.6-3.3,4.1-3.3c2.5,0,4,1.3,4,3.9v5.6h-2l-0.2-1.4c-0.4,1-1.6,1.6-3.1,1.6C34.5,95.3,33.3,94.2,33.3,92.4z M39.5,91.3v-0.5
		L37.6,91c-1.4,0.1-2,0.6-2,1.3c0,0.8,0.6,1.3,1.6,1.3C38.6,93.6,39.5,92.7,39.5,91.3z"/>
	<path class="st0" d="M43.9,85.8h2.1l0.1,1.4c0.6-1.1,1.8-1.7,3.2-1.7c2.6,0,4.3,1.9,4.3,4.8c0,2.9-1.6,5-4.3,5
		c-1.4,0-2.6-0.5-3.2-1.5v5.5h-2.3V85.8z M48.8,93.2c1.6,0,2.6-1.2,2.6-2.8c0-1.6-1-2.8-2.6-2.8c-1.6,0-2.6,1.2-2.6,2.8
		C46.2,92.1,47.3,93.2,48.8,93.2z"/>
	<path class="st0" d="M55.5,95.1V81.2h2.3V87c0.6-0.9,1.7-1.5,3-1.5c2.3,0,3.5,1.4,3.5,3.8v5.7H62v-5.1c0-1.5-0.8-2.3-1.9-2.3
		c-1.4,0-2.3,1-2.3,2.4v5H55.5z"/>
	<path class="st0" d="M76,94.4c-1,0.6-2.1,0.9-3.4,0.9c-3.9,0-6.6-2.9-6.6-7.1c0-4.1,2.7-7.1,6.6-7.1s6.6,2.9,6.6,7.1
		c0,2-0.6,3.6-1.7,4.9l1.5,1.6l-1.5,1.4L76,94.4z M72.6,83.5c-2.5,0-4.1,1.8-4.1,4.8c0,2.9,1.6,4.8,4.1,4.8c0.7,0,1.3-0.1,1.8-0.4
		l-1.8-2l1.5-1.4l1.8,2c0.5-0.8,0.8-1.8,0.8-3C76.8,85.3,75.1,83.5,72.6,83.5z"/>
	<path class="st0" d="M83.9,92.9h5.7v2.2h-8.1V81.4h2.4V92.9z"/>
</g>
</svg>
