<?xml version="1.0" encoding="utf-8"?>
<!-- Generator: Adobe Illustrator 24.1.3, SVG Export Plug-In . SVG Version: 6.00 Build 0)  -->
<svg version="1.1"
	 id="svg12" inkscape:version="1.2.2 (732a01da63, 2022-12-09)" sodipodi:docname="html.svg" xmlns:inkscape="http://www.inkscape.org/namespaces/inkscape" xmlns:sodipodi="http://sodipodi.sourceforge.net/DTD/sodipodi-0.dtd" xmlns:svg="http://www.w3.org/2000/svg"
	 xmlns="http://www.w3.org/2000/svg" xmlns:xlink="http://www.w3.org/1999/xlink" x="0px" y="0px" viewBox="0 0 100 100"
	 style="enable-background:new 0 0 100 100;" xml:space="preserve">
<style type="text/css">
	.st0{fill:#E44D26;}
	.st1{fill:#F16529;}
	.st2{fill:#EBEBEB;}
	.st3{fill:#FFFFFF;}
	.st4{enable-background:new    ;}
</style>
<sodipodi:namedview  bordercolor="#000000" borderopacity="0.25" id="namedview14" inkscape:current-layer="svg12" inkscape:cx="49.577805" inkscape:cy="78.890229" inkscape:deskcolor="#d1d1d1" inkscape:pagecheckerboard="0" inkscape:pageopacity="0.0" inkscape:showpageshadow="2" inkscape:window-height="1009" inkscape:window-maximized="1" inkscape:window-width="1920" inkscape:window-x="1912" inkscape:window-y="-8" inkscape:zoom="8.29" pagecolor="#ffffff" showgrid="false">
	</sodipodi:namedview>
<path id="path2" class="st0" d="M21.8,70.9L15.5,0.4h69l-6.3,70.5L50,78.7L21.8,70.9z"/>
<path id="path4" class="st1" d="M50,72.7l22.8-6.3l5.4-60.2H50V72.7z"/>
<path id="path6" class="st2" d="M50,32.3H38.6l-0.8-8.9H50v-8.6H28.3l0.2,2.3L30.7,41H50V32.3z M50,54.8L50,54.8l-9.7-2.6l-0.6-6.9
	H31l1.2,13.6L50,63.8l0,0V54.8z"/>
<path id="path10" class="st3" d="M50,32.3V41h10.6l-1,11.2L50,54.8v9l17.7-4.9l0.1-1.5l2-22.8l0.2-2.3h-2.3H50z M50,14.8v8.6h20.9
	l0.2-1.9l0.4-4.4l0.2-2.3H50z"/>
<g class="st4">
	<path d="M26.5,94.8V81.2h2.4v5.6h6v-5.6h2.4v13.6h-2.4V89h-6v5.8H26.5z"/>
	<path d="M39.1,81.2h10.4v2.2h-4v11.4h-2.4V83.4h-4V81.2z"/>
	<path d="M51.3,94.8V81.2h2.3L58.1,92l4.4-10.9h2.4v13.6h-2.3v-4.2c0-2.7,0-3.5,0.1-4.5l-3.5,8.7H57l-3.5-8.7
		c0.1,0.8,0.1,2.1,0.1,3.8v4.9H51.3z"/>
	<path d="M70.2,92.6h5.7v2.2h-8.1V81.2h2.4V92.6z"/>
</g>
</svg>
