<?xml version="1.0" encoding="utf-8"?>
<!-- Generator: Adobe Illustrator 24.1.3, SVG Export Plug-In . SVG Version: 6.00 Build 0)  -->
<svg version="1.1"
	 id="svg4" sodipodi:docname="illustrator.svg" xmlns:inkscape="http://www.inkscape.org/namespaces/inkscape" xmlns:sodipodi="http://sodipodi.sourceforge.net/DTD/sodipodi-0.dtd" xmlns:svg="http://www.w3.org/2000/svg"
	 xmlns="http://www.w3.org/2000/svg" xmlns:xlink="http://www.w3.org/1999/xlink" x="0px" y="0px" viewBox="0 0 100 100"
	 style="enable-background:new 0 0 100 100;" xml:space="preserve">
<style type="text/css">
	.st0{fill:#330000;}
	.st1{enable-background:new    ;}
	.st2{fill-rule:evenodd;clip-rule:evenodd;fill:#FAA625;}
</style>
<sodipodi:namedview  bordercolor="#000000" borderopacity="0.25" id="namedview6" inkscape:deskcolor="#d1d1d1" inkscape:pagecheckerboard="0" inkscape:pageopacity="0.0" inkscape:showpageshadow="2" pagecolor="#ffffff" showgrid="false">
	</sodipodi:namedview>
<g id="layer1" inkscape:groupmode="layer" inkscape:label="Layer 1">
	<rect id="rect220" x="17" y="7.2" class="st0" width="65.2" height="69"/>
	<g class="st1">
		<path class="st0" d="M13.6,98.3h-2.4V84.7h2.4V98.3z"/>
		<path class="st0" d="M16.3,98.3V84.4h2.3v13.9H16.3z"/>
		<path class="st0" d="M21,98.3V84.4h2.3v13.9H21z"/>
		<path class="st0" d="M34.1,89.1v9.2H32l-0.2-1.2c-0.6,0.9-1.8,1.5-3,1.5c-2.1,0-3.4-1.4-3.4-3.7v-5.8h2.3v5c0,1.8,0.7,2.5,2,2.5
			c1.4,0,2.1-0.8,2.1-2.6v-4.8H34.1z"/>
		<path class="st0" d="M37.8,95.5c0,0.8,0.6,1.3,1.7,1.3c1.1,0,1.6-0.4,1.6-1.1c0-0.5-0.2-0.8-1.1-1l-1.7-0.4
			c-1.7-0.4-2.5-1.2-2.5-2.6c0-1.8,1.5-2.9,3.7-2.9c2.1,0,3.5,1.2,3.5,3h-2.2c0-0.8-0.5-1.3-1.4-1.3c-0.9,0-1.4,0.4-1.4,1.1
			c0,0.5,0.4,0.9,1.2,1l1.7,0.4c1.5,0.4,2.3,1.1,2.3,2.5c0,1.9-1.6,3-3.9,3c-2.3,0-3.8-1.2-3.8-3H37.8z"/>
		<path class="st0" d="M45.8,98.3V91H44v-1.9h1.8v-2.9h2.3v2.9h1.8V91h-1.8v7.3H45.8z"/>
		<path class="st0" d="M57.1,91.2h-0.8c-1.6,0-2.7,0.9-2.7,2.7v4.5h-2.3v-9.2h2.1l0.1,1.3c0.4-0.9,1.3-1.5,2.5-1.5
			c0.3,0,0.6,0,1,0.1V91.2z"/>
		<path class="st0" d="M57.8,95.7c0-1.7,1.2-2.8,3.4-2.9l2.8-0.2v-0.2c0-1.3-0.7-1.8-1.9-1.8c-1.3,0-2.1,0.6-2.1,1.5h-1.9
			c0-2,1.6-3.3,4.1-3.3c2.5,0,4,1.3,4,3.9v5.6h-2l-0.2-1.4c-0.4,1-1.6,1.6-3.1,1.6C59,98.6,57.8,97.4,57.8,95.7z M64,94.6v-0.5
			l-1.9,0.1c-1.4,0.1-2,0.6-2,1.3c0,0.8,0.6,1.3,1.6,1.3C63.1,96.8,64,96,64,94.6z"/>
		<path class="st0" d="M69.2,98.3V91h-1.8v-1.9h1.8v-2.9h2.3v2.9h1.8V91h-1.8v7.3H69.2z"/>
		<path class="st0" d="M79,88.8c2.9,0,4.9,2,4.9,4.9c0,2.9-2.1,4.9-4.9,4.9c-2.9,0-4.9-2-4.9-4.9C74.1,90.8,76.1,88.8,79,88.8z
			 M79,96.5c1.6,0,2.6-1.1,2.6-2.8s-1.1-2.8-2.6-2.8s-2.6,1.1-2.6,2.8S77.4,96.5,79,96.5z"/>
		<path class="st0" d="M91.5,91.2h-0.8C89,91.2,88,92,88,93.8v4.5h-2.3v-9.2h2.1l0.1,1.3c0.4-0.9,1.3-1.5,2.5-1.5c0.3,0,0.6,0,1,0.1
			V91.2z"/>
	</g>
</g>
<g id="layer2" inkscape:groupmode="layer" inkscape:label="Layer 2">
	<path id="path2" class="st2" d="M11.8,0.8v82.3c0.6,0.1,0.6,0.2,0.8,0.2c22,0,44.1,0,66.1,0c3,0,6,0,9,0c0.2,0,0.5-0.1,0.5-0.2
		l0-82.3H11.8z M80.9,41.9v31.7c0,1.1-0.2,1-1.1,1h-59c-1,0-1.1,0.1-1.1-1V10.1c0-1.1,0.1-1.5,1.1-1.5h58.9c1.1,0,1.2,0.4,1.2,1.5
		V41.9z M50.3,26.5c-0.1-0.4-0.4-0.5-0.7-0.5c-1.9,0-3.8,0-5.7,0c-0.6,0-0.9,0.2-1,0.8c-2.7,9-5.3,18-8,27c-0.4,1.5-0.9,2.9-1.3,4.5
		c1.8,0,3.4,0,5,0c0.5,0,0.8-0.2,0.9-0.7c0.7-2.6,1.4-5.1,2.1-7.7c0.2-0.6,0.4-0.8,1-0.8c2.7,0,5.4,0,8.1,0c0.5,0,0.7,0.2,0.9,0.7
		c0.7,2.6,1.5,5.1,2.3,7.7c0.2,0.5,0.3,0.7,0.9,0.7c0.8-0.1,1.6-0.1,2.4-0.1h2.8l0-0.2C56.6,47.6,53.4,37.1,50.3,26.5z M42.7,44.6
		c1.2-4.6,2.5-9.1,3.7-13.5c1.2,4.4,2.5,8.9,3.8,13.5H42.7z M60.9,58.4H67V34.8h-6.1V58.4z M64,25.4c-1.8,0-3.1,1.4-3.1,3.2
		c0,1.9,1.3,3.2,3.1,3.2c1.9,0,3.2-1.3,3.1-3.2C67.1,26.7,65.8,25.4,64,25.4z"/>
</g>
</svg>
