<?xml version="1.0" encoding="utf-8"?>
<!-- Generator: Adobe Illustrator 24.1.3, SVG Export Plug-In . SVG Version: 6.00 Build 0)  -->
<svg version="1.1"
	 id="svg6" sodipodi:docname="javascript.svg" xmlns:inkscape="http://www.inkscape.org/namespaces/inkscape" xmlns:sodipodi="http://sodipodi.sourceforge.net/DTD/sodipodi-0.dtd" xmlns:svg="http://www.w3.org/2000/svg"
	 xmlns="http://www.w3.org/2000/svg" xmlns:xlink="http://www.w3.org/1999/xlink" x="0px" y="0px" viewBox="0 0 100 100"
	 style="enable-background:new 0 0 100 100;" xml:space="preserve">
<style type="text/css">
	.st0{fill:#F0DB4F;}
	.st1{fill:#323330;}
	.st2{enable-background:new    ;}
</style>
<sodipodi:namedview  bordercolor="#000000" borderopacity="0.25" id="namedview8" inkscape:current-layer="svg6" inkscape:cx="49.577805" inkscape:cy="59.589867" inkscape:deskcolor="#d1d1d1" inkscape:pagecheckerboard="0" inkscape:pageopacity="0.0" inkscape:showpageshadow="2" inkscape:window-height="1009" inkscape:window-maximized="1" inkscape:window-width="1920" inkscape:window-x="-8" inkscape:window-y="-8" inkscape:zoom="8.29" pagecolor="#ffffff" showgrid="false">
	</sodipodi:namedview>
<path id="path2" class="st0" d="M11.2,1.3h77.5v77.5H11.2V1.3z"/>
<path id="path4" class="st1" d="M82.4,60.3c-0.6-3.5-2.9-6.5-9.7-9.3c-2.4-1.1-5-1.9-5.8-3.7c-0.3-1-0.3-1.6-0.1-2.3
	c0.5-2.1,3-2.7,4.9-2.1c1.3,0.4,2.4,1.4,3.2,2.9c3.3-2.2,3.3-2.2,5.7-3.6c-0.9-1.3-1.3-1.9-1.9-2.5c-2-2.2-4.8-3.4-9.1-3.3l-2.3,0.3
	c-2.2,0.6-4.3,1.7-5.5,3.2c-3.7,4.2-2.6,11.5,1.8,14.5c4.4,3.3,10.9,4.1,11.7,7.1c0.8,3.8-2.8,5-6.3,4.6c-2.6-0.5-4.1-1.9-5.7-4.3
	c-2.9,1.7-2.9,1.7-5.9,3.4c0.7,1.5,1.5,2.2,2.6,3.6c5.6,5.7,19.7,5.4,22.2-3.2C82.3,65.4,83,63.4,82.4,60.3z M53.4,36.9h-7.3l0,18.7
	c0,4,0.2,7.6-0.4,8.8c-1.1,2.2-3.8,1.9-5.1,1.5c-1.3-0.6-1.9-1.5-2.7-2.8c-0.2-0.4-0.4-0.6-0.4-0.7l-5.9,3.6c1,2,2.4,3.8,4.3,4.9
	c2.8,1.7,6.5,2.2,10.4,1.3c2.5-0.7,4.7-2.3,5.9-4.6c1.7-3,1.3-6.7,1.3-10.8C53.4,50.3,53.4,43.6,53.4,36.9z"/>
<g class="st2">
	<path class="st1" d="M4.6,90.2h2.3V91c0,1,0.6,1.9,1.9,1.9s1.9-0.8,1.9-2v-9.7h2.4V91c0,2.4-1.7,4-4.3,4c-2.8,0-4.2-1.7-4.2-4.1
		V90.2z"/>
	<path class="st1" d="M15.3,92.2c0-1.7,1.2-2.8,3.4-2.9l2.8-0.2v-0.2c0-1.3-0.7-1.8-1.9-1.8c-1.3,0-2.1,0.6-2.1,1.5h-1.9
		c0-2,1.6-3.3,4.1-3.3c2.5,0,4,1.3,4,3.9v5.6h-2l-0.2-1.4c-0.4,1-1.6,1.6-3.1,1.6C16.5,95.1,15.3,93.9,15.3,92.2z M21.5,91.1v-0.5
		l-1.9,0.1c-1.4,0.1-2,0.6-2,1.3c0,0.8,0.6,1.3,1.6,1.3C20.6,93.4,21.5,92.5,21.5,91.1z"/>
	<path class="st1" d="M24.5,85.6h2.4l1.6,4.2c0.4,1.1,0.7,2.1,0.8,2.6c0.1-0.6,0.5-1.5,0.9-2.6l1.7-4.2h2.4l-3.8,9.2h-2.2L24.5,85.6
		z"/>
	<path class="st1" d="M34.7,92.2c0-1.7,1.2-2.8,3.4-2.9l2.8-0.2v-0.2c0-1.3-0.7-1.8-1.9-1.8c-1.3,0-2.1,0.6-2.1,1.5h-1.9
		c0-2,1.6-3.3,4.1-3.3c2.5,0,4,1.3,4,3.9v5.6h-2l-0.2-1.4c-0.4,1-1.6,1.6-3.1,1.6C35.9,95.1,34.7,93.9,34.7,92.2z M40.9,91.1v-0.5
		L39,90.8c-1.4,0.1-2,0.6-2,1.3c0,0.8,0.6,1.3,1.6,1.3C40,93.4,40.9,92.5,40.9,91.1z"/>
	<path class="st1" d="M49.7,80.9c2.8,0,4.5,1.5,4.6,4h-2.4c-0.1-1.2-0.9-1.9-2.2-1.9c-1.5,0-2.4,0.7-2.4,1.8c0,1,0.5,1.5,1.7,1.8
		l2.1,0.5c2.3,0.5,3.5,1.7,3.5,3.7c0,2.5-2,4.2-5,4.2c-2.9,0-4.8-1.5-4.9-4h2.4c0,1.2,1,1.8,2.5,1.8c1.6,0,2.6-0.7,2.6-1.8
		c0-0.9-0.5-1.5-1.6-1.7l-2.2-0.5c-2.3-0.5-3.5-1.8-3.5-3.9C44.9,82.6,46.9,80.9,49.7,80.9z"/>
	<path class="st1" d="M60.5,85.3c2.5,0,4.2,1.4,4.5,3.6h-2.3c-0.3-1-1-1.6-2.1-1.6c-1.5,0-2.4,1.1-2.4,2.8S59,93,60.5,93
		c1.1,0,1.9-0.6,2.2-1.6H65c-0.3,2.1-2.1,3.6-4.5,3.6c-2.8,0-4.6-1.9-4.6-4.9C55.9,87.3,57.7,85.3,60.5,85.3z"/>
	<path class="st1" d="M72.4,87.7h-0.8c-1.6,0-2.7,0.9-2.7,2.7v4.5h-2.3v-9.2h2.1l0.1,1.3c0.4-0.9,1.3-1.5,2.5-1.5c0.3,0,0.6,0,1,0.1
		V87.7z"/>
	<path class="st1" d="M73.7,82.4c0-0.8,0.6-1.4,1.4-1.4c0.7,0,1.4,0.6,1.4,1.4s-0.6,1.4-1.4,1.4C74.4,83.8,73.7,83.2,73.7,82.4z
		 M74,85.6h2.3v9.2H74V85.6z"/>
	<path class="st1" d="M78.6,85.6h2.1l0.1,1.4c0.6-1.1,1.8-1.7,3.2-1.7c2.6,0,4.3,1.9,4.3,4.8c0,2.9-1.6,5-4.3,5
		c-1.4,0-2.6-0.5-3.2-1.5v5.5h-2.3V85.6z M83.5,93c1.6,0,2.6-1.2,2.6-2.8s-1-2.8-2.6-2.8c-1.6,0-2.6,1.2-2.6,2.8
		C80.9,91.9,81.9,93,83.5,93z"/>
	<path class="st1" d="M90.9,94.8v-7.3h-1.8v-1.9h1.8v-2.9h2.3v2.9H95v1.9h-1.8v7.3H90.9z"/>
</g>
</svg>
