<?xml version="1.0" encoding="utf-8"?>
<!-- Generator: Adobe Illustrator 24.1.3, SVG Export Plug-In . SVG Version: 6.00 Build 0)  -->
<svg version="1.1"
	 id="svg14" sodipodi:docname="java.svg" xmlns:inkscape="http://www.inkscape.org/namespaces/inkscape" xmlns:sodipodi="http://sodipodi.sourceforge.net/DTD/sodipodi-0.dtd" xmlns:svg="http://www.w3.org/2000/svg"
	 xmlns="http://www.w3.org/2000/svg" xmlns:xlink="http://www.w3.org/1999/xlink" x="0px" y="0px" viewBox="0 0 100 100"
	 style="enable-background:new 0 0 100 100;" xml:space="preserve">
<style type="text/css">
	.st0{fill:#0074BD;}
	.st1{fill:#EA2D2E;}
	.st2{enable-background:new    ;}
</style>
<sodipodi:namedview  bordercolor="#000000" borderopacity="0.25" id="namedview16" inkscape:deskcolor="#d1d1d1" inkscape:pagecheckerboard="0" inkscape:pageopacity="0.0" inkscape:showpageshadow="2" pagecolor="#ffffff" showgrid="false">
	</sodipodi:namedview>
<path id="path2" class="st0" d="M41.1,53c0,0-2.6,1.5,1.8,2c5.3,0.6,8,0.5,13.9-0.6c0,0,1.5,1,3.7,1.8C47.4,61.8,30.7,55.9,41.1,53z
	 M39.5,45.6c0,0-2.9,2.1,1.5,2.6c5.7,0.6,10.2,0.6,18-0.9c0,0,1.1,1.1,2.8,1.7C45.8,53.7,28.1,49.4,39.5,45.6z"/>
<path id="path4" class="st1" d="M53,33.1c3.2,3.7-0.8,7.1-0.8,7.1s8.2-4.2,4.4-9.6c-3.5-5-6.2-7.4,8.4-15.9C65,14.7,42,20.5,53,33.1
	z"/>
<path id="path6" class="st0" d="M70.4,58.4c0,0,1.9,1.6-2.1,2.8c-7.6,2.3-31.6,3-38.3,0.1c-2.4-1,2.1-2.5,3.5-2.8
	c1.5-0.3,2.3-0.3,2.3-0.3c-2.7-1.9-17.2,3.7-7.4,5.3C55.3,67.9,77.4,61.6,70.4,58.4z M42.3,38c0,0-12.2,2.9-4.3,4
	c3.3,0.4,10,0.3,16.2-0.2c5.1-0.4,10.1-1.3,10.1-1.3s-1.8,0.8-3.1,1.6c-12.4,3.3-36.4,1.7-29.5-1.6C37.6,37.7,42.3,38,42.3,38z
	 M64.2,50.2c12.6-6.5,6.8-12.8,2.7-12c-1,0.2-1.4,0.4-1.4,0.4s0.4-0.6,1.1-0.8c8-2.8,14.2,8.3-2.6,12.8C64,50.6,64.2,50.4,64.2,50.2
	z"/>
<path id="path8" class="st1" d="M56.6,1c0,0,7,7-6.6,17.7c-10.9,8.6-2.5,13.5,0,19.1c-6.4-5.7-11-10.8-7.9-15.5
	C46.7,15.5,59.4,12.1,56.6,1z"/>
<path id="path10" class="st0" d="M43.6,68c12.1,0.8,30.7-0.4,31.1-6.2c0,0-0.8,2.2-10,3.9c-10.3,1.9-23.1,1.7-30.6,0.5
	C34.1,66.2,35.6,67.5,43.6,68z"/>
<g class="st2">
	<path class="st1" d="M29,84.1h2.3v0.8c0,1,0.6,1.9,1.9,1.9s1.9-0.8,1.9-2v-9.7h2.4V85c0,2.4-1.7,4-4.3,4c-2.8,0-4.2-1.7-4.2-4.1
		V84.1z"/>
	<path class="st1" d="M39.7,86.2c0-1.7,1.2-2.8,3.4-2.9l2.8-0.2v-0.2c0-1.3-0.7-1.8-1.9-1.8c-1.3,0-2.1,0.6-2.1,1.5h-1.9
		c0-2,1.6-3.3,4.1-3.3c2.5,0,4,1.3,4,3.9v5.6h-2l-0.2-1.4c-0.4,1-1.6,1.6-3.1,1.6C40.9,89,39.7,87.9,39.7,86.2z M45.9,85v-0.5
		l-1.9,0.1c-1.4,0.1-2,0.6-2,1.3c0,0.8,0.6,1.3,1.6,1.3C45,87.3,45.9,86.5,45.9,85z"/>
	<path class="st1" d="M48.9,79.6h2.4l1.6,4.2c0.4,1.1,0.7,2.1,0.8,2.6c0.1-0.6,0.5-1.5,0.9-2.6l1.7-4.2h2.4l-3.8,9.2h-2.2L48.9,79.6
		z"/>
	<path class="st1" d="M59.1,86.2c0-1.7,1.2-2.8,3.4-2.9l2.8-0.2v-0.2c0-1.3-0.7-1.8-1.9-1.8c-1.3,0-2.1,0.6-2.1,1.5h-1.9
		c0-2,1.6-3.3,4.1-3.3c2.5,0,4,1.3,4,3.9v5.6h-2l-0.2-1.4c-0.4,1-1.6,1.6-3.1,1.6C60.3,89,59.1,87.9,59.1,86.2z M65.3,85v-0.5
		l-1.9,0.1c-1.4,0.1-2,0.6-2,1.3c0,0.8,0.6,1.3,1.6,1.3C64.4,87.3,65.3,86.5,65.3,85z"/>
</g>
<g class="st2">
	<path class="st1" d="M66.9,76.4v-0.5h2.6v0.5h-1V79h-0.5v-2.6H66.9z M69.9,79v-3.1h0.5l1.1,2.6l1.1-2.6h0.5V79h-0.5v-2l-0.9,2h-0.5
		l-0.9-2v2H69.9z"/>
</g>
</svg>
