<?xml version="1.0" encoding="utf-8"?>
<!-- Generator: Adobe Illustrator 24.1.3, SVG Export Plug-In . SVG Version: 6.00 Build 0)  -->
<svg version="1.1"
	 id="svg6" sodipodi:docname="jquery.svg" xmlns:inkscape="http://www.inkscape.org/namespaces/inkscape" xmlns:sodipodi="http://sodipodi.sourceforge.net/DTD/sodipodi-0.dtd" xmlns:svg="http://www.w3.org/2000/svg"
	 xmlns="http://www.w3.org/2000/svg" xmlns:xlink="http://www.w3.org/1999/xlink" x="0px" y="0px" viewBox="0 0 100 100"
	 style="enable-background:new 0 0 100 100;" xml:space="preserve">
<style type="text/css">
	.st0{fill:#0868AC;}
	.st1{enable-background:new    ;}
	.st2{fill:#323330;}
</style>
<sodipodi:namedview  bordercolor="#000000" borderopacity="0.25" id="namedview8" inkscape:deskcolor="#d1d1d1" inkscape:pagecheckerboard="0" inkscape:pageopacity="0.0" inkscape:showpageshadow="2" pagecolor="#ffffff" showgrid="false">
	</sodipodi:namedview>
<path id="path2" class="st0" d="M21.7,16c-5.7,8.3-5,19-0.6,27.8l0.3,0.6l0.2,0.4l0.1,0.2l0.2,0.4c0.1,0.2,0.3,0.5,0.4,0.7l0.2,0.4
	c0.2,0.3,0.3,0.5,0.5,0.8l0.2,0.3c0.2,0.3,0.5,0.7,0.7,1l0,0l0.1,0.2c0.2,0.3,0.4,0.6,0.6,0.9l0.2,0.3c0.2,0.2,0.4,0.5,0.6,0.7
	l0.2,0.3c0.3,0.3,0.5,0.6,0.8,0.9l0,0l0,0c0.3,0.3,0.6,0.6,0.8,0.9l0.3,0.3c0.2,0.2,0.4,0.4,0.7,0.7l0.3,0.3
	c0.3,0.3,0.6,0.6,0.9,0.8l0,0l0.2,0.1c0.3,0.2,0.6,0.5,0.8,0.7L31,56c0.2,0.2,0.5,0.4,0.7,0.5l0.4,0.3c0.3,0.2,0.5,0.4,0.8,0.6
	l0.3,0.2l0.1,0.1c0.2,0.2,0.5,0.3,0.8,0.5l0.3,0.2c0.4,0.2,0.8,0.5,1.2,0.7l0.3,0.2c0.3,0.2,0.6,0.3,0.9,0.5l0.5,0.3l0.6,0.3
	l0.1,0.1l0.3,0.1c0.3,0.2,0.7,0.3,1,0.5l0.2,0.1c0.4,0.2,0.8,0.3,1.2,0.5l0.3,0.1c0.4,0.1,0.7,0.3,1.1,0.4l0.1,0
	c0.4,0.1,0.8,0.3,1.2,0.4l0.3,0.1c0.4,0.1,0.8,0.3,1.3,0.4c27.8,5.1,35.8-16.7,35.8-16.7c-6.8,8.8-18.8,11.2-30.2,8.6
	c-0.4-0.1-0.9-0.2-1.3-0.4l-0.3-0.1c-0.4-0.1-0.8-0.3-1.2-0.4L47.7,54c-0.4-0.1-0.7-0.3-1.1-0.4l-0.3-0.1c-0.4-0.2-0.8-0.3-1.2-0.5
	l-0.2-0.1c-0.3-0.1-0.7-0.3-1-0.5l-0.3-0.1c-0.3-0.1-0.5-0.3-0.8-0.4l-0.5-0.3c-0.3-0.2-0.6-0.3-0.9-0.5l-0.3-0.2
	c-0.4-0.2-0.8-0.5-1.2-0.7L39.6,50c-0.3-0.2-0.6-0.4-0.8-0.6l-0.3-0.2c-0.3-0.2-0.5-0.4-0.8-0.6l-0.4-0.3c-0.2-0.2-0.5-0.4-0.7-0.6
	l-0.3-0.3c-0.3-0.2-0.6-0.5-0.9-0.8l-0.1-0.1c-0.3-0.3-0.6-0.6-0.9-0.9l-0.3-0.3c-0.2-0.2-0.5-0.4-0.7-0.7l-0.3-0.3
	c-0.3-0.3-0.6-0.6-0.8-0.9l0,0c-0.3-0.3-0.6-0.6-0.8-1l-0.2-0.3c-0.2-0.2-0.4-0.5-0.6-0.8l-0.2-0.3c-0.2-0.3-0.5-0.6-0.7-0.9
	c-6.3-8.6-8.6-20.5-3.5-30.3 M39.5,9c-4.2,6-3.9,14-0.7,20.3c0.5,1.1,1.2,2.1,1.8,3.1c0.6,0.9,1.3,2,2.1,2.7c0.3,0.3,0.6,0.7,0.9,1
	l0.2,0.2c0.3,0.3,0.6,0.6,1,0.9l0,0l0,0c0.4,0.3,0.7,0.6,1.1,0.9l0.3,0.2c0.4,0.3,0.8,0.6,1.2,0.8l0,0l0.5,0.3l0.3,0.2
	c0.3,0.2,0.6,0.4,0.9,0.5l0.1,0.1c0.3,0.1,0.5,0.3,0.8,0.4l0.3,0.1l0.5,0.3l0.1,0c0.4,0.2,0.7,0.4,1.1,0.5l0.2,0.1
	c0.3,0.1,0.6,0.3,0.9,0.4l0.4,0.1c0.3,0.1,0.6,0.2,0.8,0.3l0.4,0.1c0.4,0.1,0.8,0.3,1.2,0.4c21.4,3.6,26.4-13,26.4-13
	c-4.5,6.4-13.1,9.5-22.3,7.1c-0.4-0.1-0.8-0.2-1.2-0.4l-0.4-0.1c-0.3-0.1-0.6-0.2-0.8-0.3l-0.4-0.1c-0.3-0.1-0.6-0.2-0.9-0.4
	l-0.2-0.1c-0.4-0.2-0.8-0.3-1.1-0.5L54.5,35l-0.3-0.2c-0.2-0.1-0.5-0.3-0.7-0.4l-0.2-0.1c-0.3-0.2-0.6-0.3-0.9-0.5l-0.3-0.2
	l-0.6-0.4c-0.4-0.3-0.8-0.6-1.2-0.8l-0.3-0.2c-4-3.2-7.2-7.5-8.8-12.5c-1.6-5.1-1.3-10.9,1.5-15.5 M54.5,3.8
	c-2.4,3.6-2.7,8.1-1,12.1c1.8,4.2,5.5,7.5,9.7,9.1l0.5,0.2l0.2,0.1c0.3,0.1,0.5,0.2,0.8,0.2c11.8,2.3,15.1-6.1,15.9-7.3
	c-2.8,4.1-7.5,5-13.3,3.6c-0.5-0.1-0.9-0.3-1.4-0.4c-0.6-0.2-1.1-0.4-1.7-0.7c-1-0.5-2-1.1-2.9-1.8c-5.2-3.9-8.4-11.5-5-17.6"/>
<g class="st1">
	<path class="st2" d="M14.5,90.1c0.4,0.1,0.6,0.1,1,0.1c1,0,1.3-0.6,1.3-1.7V75.8h2.8v13c0,2.4-1.4,4-3.8,4c-0.5,0-0.9,0-1.7-0.3
		L14.5,90.1z M16.5,71.9c0-0.9,0.8-1.7,1.7-1.7c0.9,0,1.7,0.7,1.7,1.7c0,0.9-0.8,1.7-1.7,1.7C17.2,73.6,16.5,72.8,16.5,71.9z"/>
	<path class="st2" d="M34.3,86.4c-1.2,0.7-2.6,1.1-4.2,1.1c-4.8,0-8.1-3.6-8.1-8.7c0-5.1,3.3-8.7,8.2-8.7c4.8,0,8.2,3.6,8.2,8.7
		c0,2.4-0.7,4.5-2,6l1.8,2l-1.9,1.7L34.3,86.4z M30.1,72.9c-3.1,0-5.1,2.3-5.1,5.9c0,3.6,2,5.9,5.1,5.9c0.8,0,1.6-0.2,2.2-0.5
		l-2.2-2.5l1.9-1.7l2.2,2.5c0.6-1,1-2.2,1-3.7C35.1,75.2,33.2,72.9,30.1,72.9z"/>
	<path class="st2" d="M51.1,75.8v11.4h-2.6l-0.2-1.5c-0.7,1.1-2.2,1.8-3.7,1.8c-2.6,0-4.2-1.8-4.2-4.6v-7.1h2.8V82
		c0,2.2,0.9,3,2.4,3c1.8,0,2.6-1,2.6-3.2v-6H51.1z"/>
	<path class="st2" d="M53.1,81.5c0-3.6,2.3-6,5.7-6c3.4,0,5.6,2.3,5.6,5.8v0.9l-8.6,0c0.2,2,1.3,3,3.1,3c1.5,0,2.6-0.6,2.9-1.7h2.6
		c-0.5,2.5-2.6,4-5.5,4C55.5,87.5,53.1,85.1,53.1,81.5z M55.9,80.4h5.7c0-1.6-1.1-2.6-2.8-2.6C57.1,77.8,56.1,78.7,55.9,80.4z"/>
	<path class="st2" d="M73.7,78.4h-1c-2,0-3.3,1.1-3.3,3.3v5.5h-2.8V75.9h2.6l0.2,1.7c0.5-1.1,1.6-1.9,3.1-1.9c0.4,0,0.8,0,1.2,0.2
		V78.4z"/>
	<path class="st2" d="M75,90.1h1.7c1.1,0,1.8-0.3,2.3-1.6l0.3-0.9l-4.6-11.9h3l2.9,8.3l3.1-8.3h2.9L81,89.8c-0.9,2.1-2,3-3.9,3
		c-0.8,0-1.5-0.1-2.1-0.3V90.1z"/>
</g>
</svg>
