<?xml version="1.0" encoding="utf-8"?>
<!-- Generator: Adobe Illustrator 24.1.3, SVG Export Plug-In . SVG Version: 6.00 Build 0)  -->
<svg version="1.1"
	 id="svg45" xmlns:inkscape="http://www.inkscape.org/namespaces/inkscape" xmlns:sodipodi="http://sodipodi.sourceforge.net/DTD/sodipodi-0.dtd" xmlns:svg="http://www.w3.org/2000/svg"
	 xmlns="http://www.w3.org/2000/svg" xmlns:xlink="http://www.w3.org/1999/xlink" x="0px" y="0px" viewBox="0 0 100 100"
	 style="enable-background:new 0 0 100 100;" xml:space="preserve">
<style type="text/css">
	.st0{fill:url(#path13_1_);}
	.st1{fill:url(#path24_1_);}
	.st2{fill:url(#path43_1_);}
	.st3{enable-background:new    ;}
	.st4{fill:#F48912;}
</style>
<sodipodi:namedview  bordercolor="#000000" borderopacity="0.25" id="namedview47" inkscape:current-layer="svg45" inkscape:cx="46.320869" inkscape:cy="61.399276" inkscape:deskcolor="#d1d1d1" inkscape:pagecheckerboard="0" inkscape:pageopacity="0.0" inkscape:showpageshadow="2" inkscape:window-height="1009" inkscape:window-maximized="1" inkscape:window-width="1920" inkscape:window-x="-8" inkscape:window-y="-8" inkscape:zoom="8.29" pagecolor="#ffffff" showgrid="false">
	</sodipodi:namedview>
<linearGradient id="path13_1_" gradientUnits="userSpaceOnUse" x1="72.9292" y1="17.9047" x2="125.1272" y2="74.9207" gradientTransform="matrix(0.621 0 0 -0.621 -42.4219 41.62)">
	<stop  offset="0" style="stop-color:#1C93C1"/>
	<stop  offset="0.163" style="stop-color:#2391C0"/>
	<stop  offset="0.404" style="stop-color:#378BBE"/>
	<stop  offset="0.696" style="stop-color:#587EB9"/>
	<stop  offset="0.995" style="stop-color:#7F6CB1"/>
</linearGradient>
<path id="path13" class="st0" d="M10.3,0.3h40.6l-40.6,40V0.3z"/>
<linearGradient id="path24_1_" gradientUnits="userSpaceOnUse" x1="128.3702" y1="-82.5652" x2="180.8052" y2="-28.2672" gradientTransform="matrix(0.621 0 0 -0.621 -42.4219 41.62)">
	<stop  offset="0" style="stop-color:#1C93C1"/>
	<stop  offset="0.216" style="stop-color:#2D8EBF"/>
	<stop  offset="0.64" style="stop-color:#587EB9"/>
	<stop  offset="0.995" style="stop-color:#7F6CB1"/>
</linearGradient>
<path id="path24" class="st1" d="M89.7,79.7L50.4,39.1L10.3,79.7H89.7z"/>
<linearGradient id="path43_1_" gradientUnits="userSpaceOnUse" x1="88.0629" y1="-28.6456" x2="177.3038" y2="64.4874" gradientTransform="matrix(0.621 0 0 -0.621 -42.4219 41.62)">
	<stop  offset="0" style="stop-color:#C757A7"/>
	<stop  offset="4.600000e-02" style="stop-color:#CA5A9E"/>
	<stop  offset="0.241" style="stop-color:#D66779"/>
	<stop  offset="0.428" style="stop-color:#E17357"/>
	<stop  offset="0.6" style="stop-color:#E97C3A"/>
	<stop  offset="0.756" style="stop-color:#EF8324"/>
	<stop  offset="0.888" style="stop-color:#F28817"/>
	<stop  offset="0.982" style="stop-color:#F48912"/>
</linearGradient>
<path id="path43" class="st2" d="M10.3,79.7L89.7,0.3H50.4L10.3,39.8V79.7z"/>
<g class="st3">
	<path class="st4" d="M28.6,91.8l5.5-7.2H37l-4.5,5.8l4.6,7.8h-2.8l-3.4-5.8l-2.3,2.9v2.9h-2.4V84.6h2.4V91.8z"/>
	<path class="st4" d="M42.2,88.8c2.9,0,4.9,2,4.9,4.9c0,2.9-2.1,4.9-4.9,4.9c-2.9,0-4.9-2-4.9-4.9C37.3,90.8,39.3,88.8,42.2,88.8z
		 M42.2,96.5c1.6,0,2.6-1.1,2.6-2.8s-1.1-2.8-2.6-2.8c-1.6,0-2.6,1.1-2.6,2.8S40.6,96.5,42.2,96.5z"/>
	<path class="st4" d="M49.7,98.3v-7.3h-1.8V89h1.8v-2.9H52V89h1.8v1.9H52v7.3H49.7z"/>
	<path class="st4" d="M55.2,98.3V84.4h2.3v13.9H55.2z"/>
	<path class="st4" d="M59.6,85.8c0-0.8,0.6-1.4,1.4-1.4c0.7,0,1.4,0.6,1.4,1.4s-0.6,1.4-1.4,1.4C60.2,87.2,59.6,86.6,59.6,85.8z
		 M59.9,89h2.3v9.2h-2.3V89z"/>
	<path class="st4" d="M64.5,98.3V89h2.1l0.2,1.2c0.6-0.9,1.7-1.5,2.9-1.5c2.3,0,3.5,1.4,3.5,3.8v5.7H71v-5.1c0-1.5-0.8-2.3-1.9-2.3
		c-1.4,0-2.3,1-2.3,2.5v5H64.5z"/>
</g>
</svg>
