<?xml version="1.0" encoding="utf-8"?>
<!-- Generator: Adobe Illustrator 24.1.3, SVG Export Plug-In . SVG Version: 6.00 Build 0)  -->
<svg version="1.1"
	 id="svg6" sodipodi:docname="laravel.svg" xmlns:inkscape="http://www.inkscape.org/namespaces/inkscape" xmlns:sodipodi="http://sodipodi.sourceforge.net/DTD/sodipodi-0.dtd" xmlns:svg="http://www.w3.org/2000/svg"
	 xmlns="http://www.w3.org/2000/svg" xmlns:xlink="http://www.w3.org/1999/xlink" x="0px" y="0px" viewBox="0 0 100 100"
	 style="enable-background:new 0 0 100 100;" xml:space="preserve">
<style type="text/css">
	.st0{fill-rule:evenodd;clip-rule:evenodd;fill:#FD4F31;}
	.st1{enable-background:new    ;}
	.st2{fill:#FD4F31;}
</style>
<sodipodi:namedview  bordercolor="#000000" borderopacity="0.25" id="namedview8" inkscape:deskcolor="#d1d1d1" inkscape:pagecheckerboard="0" inkscape:pageopacity="0.0" inkscape:showpageshadow="2" pagecolor="#ffffff" showgrid="false">
	</sodipodi:namedview>
<path id="path2" class="st0" d="M20.8,1.4c-0.7,0.1-1.4,0-2.1,0.2c-1.5,0.4-2.8,1.1-4,2.1c-0.7,0.6-1.3,1.2-1.8,2
	c-0.8,1.2-1.3,2.4-1.6,3.8c0.1,0.2,0.2,0.4,0.3,0.6c0.8,1.3,1.5,2.5,2.3,3.8l2,3.3c0.6,1,1.2,2,1.8,3.1l2.9,4.8l2,3.3
	c0.9,1.6,1.9,3.2,2.8,4.7l3.5,5.8c1,1.7,2,3.3,3,5l0.1,0.2c0.1,0,0.3,0,0.4,0c1.3-0.3,2.6-0.6,4-0.9c2.1-0.5,4.3-1,6.4-1.5l3.4-0.8
	c2.2-0.5,4.3-1,6.5-1.6c2.2-0.5,4.4-1.1,6.6-1.6c1.1-0.3,2.2-0.5,3.3-0.8c2.1-0.5,4.3-1,6.4-1.5l7-1.7l0.4-0.1l-0.1-0.2l-1.9-2.7
	l-1.9-2.7l-2-2.9l-1.9-2.7l-1.9-2.7l-2-2.8c-0.6-0.9-1.3-1.8-1.9-2.7l-1-1.4c-0.2-0.2-0.3-0.5-0.4-0.7c-0.2-0.6,0-1,0.4-1.4
	c0.2-0.2,0.5-0.3,0.8-0.4c0.4-0.1,0.8-0.2,1.2-0.3c0.8-0.2,1.7-0.3,2.5-0.4l2.9-0.5c0.6-0.1,1.2-0.2,1.8-0.3
	c0.8-0.1,1.6-0.3,2.5-0.4C74.4,8,75.2,7.9,76,7.7l2.6-0.4L80.4,7c0.7-0.1,1.4-0.2,2.1-0.3c0.9-0.1,1.7-0.3,2.6-0.4
	c0.5-0.1,1-0.1,1.5,0c0.4,0.1,0.7,0.3,1.1,0.5l0.4,0.3c0-0.1,0-0.2,0-0.2c-0.6-1.3-1.5-2.4-2.6-3.4c-1-0.9-2.2-1.5-3.5-1.9
	c-0.8-0.2-1.5-0.1-2.3-0.2 M44.8,79.1c0,0-0.1-0.3-0.1-0.4c-0.9-1.6-1.9-3.3-2.8-4.9c-1.2-2-2.3-4-3.4-6c-1.2-2.2-2.4-4.3-3.6-6.5
	c-1.1-2.1-2.3-4.1-3.4-6.2c-0.7-1.2-1.4-2.5-2.1-3.7l-0.2-0.3l-0.3,0.1c-0.7,0.2-1.3,0.3-2,0.5c-0.9,0.2-1.8,0.5-2.8,0.7
	c-2.1,0.5-4.2,1.1-6.2,1.6c-2.1,0.5-4.3,1.1-6.4,1.6c-0.1,0,0.1,0-0.5,0.1V69c0.3,0.4,0.2,0.2,0.2,0.3c0,0.4,0.1,0.8,0.2,1.2
	c0.3,1.4,0.8,2.7,1.7,3.9c1.2,1.8,2.8,3,4.8,3.8c0.7,0.3,1.5,0.5,2.2,0.6l0.8,0.2"/>
<path id="path4" class="st0" d="M13.4,48.6c2.4-0.6,4.9-1.2,7.3-1.7c1.1-0.3,2.1-0.5,3.2-0.8c0.5-0.1,1.1-0.2,1.6-0.4
	c0.5-0.1,0.5-0.3,0.3-0.7c-0.4-0.6-0.7-1.2-1.1-1.8l-3.1-5.4l-3.1-5.4c-1.1-1.8-2.1-3.7-3.2-5.5l-2.7-4.7c-0.4-0.7-0.9-1.4-1.3-2
	c-0.1-0.1,0.3-0.3-0.4-0.3v29.4c0,0,0.3,0,0.4-0.1L13.4,48.6z M88.6,69.6c-1,0.3-1.9,0.7-2.9,1L79.2,73c-1.2,0.4-2.4,0.9-3.6,1.3
	c-2.5,0.9-4.9,1.8-7.4,2.6c-1.4,0.5-2.9,1.1-4.3,1.7c-0.4,0.1-0.8,0.6-1.2,0.6h16.4l0.4-0.2c0.4,0,0.8-0.1,1.2-0.2
	c1.7-0.3,3.2-1,4.5-2.1c1-0.8,1.9-1.8,2.5-3c0.7-1.2,1.1-2.4,1.3-3.8c0-0.1,0.1-0.2,0-0.4C88.9,69.5,88.7,69.6,88.6,69.6z
	 M87.2,47.5c-0.7-1-1.5-2-2.2-3c-1-1.4-2-2.7-3-4.1c-0.4-0.6-0.8-1.1-1.2-1.7c-0.1-0.2-0.3-0.2-0.4-0.2l-0.1,0
	c-1.8,0.4-3.7,0.9-5.5,1.3l-3.3,0.8L65,42.3c-2.1,0.5-4.2,1-6.4,1.5l-6.6,1.6c-2.2,0.5-4.3,1.1-6.5,1.6l-6.3,1.5
	c-1.1,0.3-2.2,0.5-3.3,0.8c-0.2,0-0.3,0-0.5,0.2l0.1,0.3c2,3.4,4,6.8,6,10.3c1.2,2,2.3,4,3.5,6c0.7,1.1,1.3,2.3,2,3.4
	c0.7,1.3,1.5,2.5,2.3,3.8c0.2,0.4,0.5,0.7,0.8,1.1c0.2,0.2,0.4,0.4,0.6,0.6c0.3,0.2,0.5,0.2,0.8,0.1c0.2,0,0.3-0.1,0.5-0.1l0.6-0.2
	c2-0.7,4-1.4,6-2.1c1.6-0.5,3.1-1.1,4.7-1.6c1.6-0.5,3.1-1.1,4.7-1.6l4.6-1.6c1.6-0.5,3.2-1.1,4.7-1.6c1.9-0.7,3.9-1.3,5.8-2
	c1.9-0.6,3.7-1.3,5.6-1.9c0.1,0,0.2-0.1,0.3-0.2l0-0.3c0-3.9,0-7.8,0-11.6c0-0.2-0.1-0.4-0.2-0.5C88.4,49.1,87.8,48.3,87.2,47.5
	L87.2,47.5z M86.9,11c-0.4-0.6-1-0.7-1.7-0.5c-0.3,0.1-0.6,0.1-0.9,0.2c-1,0.2-2,0.4-3,0.5c-1.4,0.3-2.9,0.5-4.3,0.8
	c-1.1,0.2-2.3,0.4-3.4,0.6L69,13.3c-0.2,0-0.4,0.1-0.6,0.1c-0.3,0.1-0.3,0.3-0.2,0.5c0.1,0.2,0.2,0.4,0.4,0.6c1,1.3,1.9,2.6,2.9,3.9
	c1.3,1.8,2.6,3.6,4,5.4c1.1,1.5,2.2,3.1,3.3,4.6c0.9,1.2,1.8,2.4,2.6,3.6l0.2,0.2l7.6-1.9l0-0.4c0-5.3,0-10.6,0-15.8
	c0-0.2-0.1-0.4-0.2-0.6c-0.6-0.8-1.3-1.6-1.9-2.4L86.9,11z M88.9,36.6c-1.2,0.3-2.3,0.5-3.5,0.9c0.1,0.2,3.4,4.6,3.5,4.8l0.1,0.1
	l0-0.3l0-1.8c0-1.1,0-2.1,0-3.2c0-0.1,0-0.3-0.1-0.4L88.9,36.6z"/>
<g class="st1">
	<path class="st2" d="M13.4,92.5h5.7v2.2H11V81.1h2.4V92.5z"/>
	<path class="st2" d="M20.1,94.7l4.9-13.6h2.4l4.9,13.6h-2.5l-1.1-3.2h-5.1l-1.1,3.2H20.1z M24.4,89.5h3.7l-1.6-4.4
		c-0.1-0.4-0.2-0.8-0.3-1c-0.1,0.3-0.2,0.7-0.3,1L24.4,89.5z"/>
	<path class="st2" d="M34.2,94.7V81.1h5.2c3.1,0,4.9,1.6,4.9,4.3c0,1.8-0.9,3.1-2.5,3.8l2.6,5.6h-2.6l-2.3-5.1h-2.9v5.1H34.2z
		 M36.6,87.5h2.8c1.5,0,2.4-0.8,2.4-2.2c0-1.4-0.9-2.1-2.4-2.1h-2.8V87.5z"/>
	<path class="st2" d="M45.4,94.7l4.9-13.6h2.4l4.9,13.6h-2.5L54,91.5H49l-1.1,3.2H45.4z M49.7,89.5h3.7l-1.6-4.4
		c-0.1-0.4-0.2-0.8-0.3-1c-0.1,0.3-0.2,0.7-0.3,1L49.7,89.5z"/>
	<path class="st2" d="M56.1,81.1h2.5l3,7.9c0.3,0.8,0.6,1.6,0.9,2.7c0.3-1.2,0.6-2,0.9-2.7l2.9-7.9h2.5l-5.1,13.6h-2.5L56.1,81.1z"
		/>
	<path class="st2" d="M70.5,94.7V81.1h8.5v2.2h-6.1v3.5h5.4v2.1h-5.4v3.6h6.1v2.2H70.5z"/>
	<path class="st2" d="M83.9,92.5h5.7v2.2h-8.1V81.1h2.4V92.5z"/>
</g>
</svg>
