<?xml version="1.0" encoding="utf-8"?>
<!-- Generator: Adobe Illustrator 24.1.3, SVG Export Plug-In . SVG Version: 6.00 Build 0)  -->
<svg version="1.1"
	 id="svg6" xmlns:inkscape="http://www.inkscape.org/namespaces/inkscape" xmlns:sodipodi="http://sodipodi.sourceforge.net/DTD/sodipodi-0.dtd" xmlns:svg="http://www.w3.org/2000/svg"
	 xmlns="http://www.w3.org/2000/svg" xmlns:xlink="http://www.w3.org/1999/xlink" x="0px" y="0px" viewBox="0 0 100 100"
	 style="enable-background:new 0 0 100 100;" xml:space="preserve">
<style type="text/css">
	.st0{fill:#0076B2;}
	.st1{fill:#FFFFFF;}
	.st2{enable-background:new    ;}
</style>
<sodipodi:namedview  bordercolor="#000000" borderopacity="0.25" id="namedview8" inkscape:current-layer="svg6" inkscape:cx="46.320869" inkscape:cy="59.589867" inkscape:deskcolor="#d1d1d1" inkscape:pagecheckerboard="0" inkscape:pageopacity="0.0" inkscape:showpageshadow="2" inkscape:window-height="1009" inkscape:window-maximized="1" inkscape:window-width="1920" inkscape:window-x="-8" inkscape:window-y="-8" inkscape:zoom="8.29" pagecolor="#ffffff" showgrid="false">
	</sodipodi:namedview>
<path id="path2" class="st0" d="M83.7,0.4H16.3c-3.2,0-5.8,2.5-5.8,5.7v67.7c0,3.2,2.7,5.7,5.8,5.7h67.5c3.2,0,5.8-2.5,5.8-5.7V6.1
	C89.5,2.9,86.9,0.4,83.7,0.4z"/>
<path id="path4" class="st1" d="M22.1,30.1h11.7v37.8H22.1V30.1z M28,11.3c3.8,0,6.8,3,6.8,6.8c0,3.8-3,6.8-6.8,6.8
	c-3.8,0-6.8-3-6.8-6.8c0,0,0,0,0,0C21.2,14.3,24.3,11.3,28,11.3 M41.3,30.1h11.3v5.2h0.2c1.6-3,5.4-6.1,11.1-6.1
	c11.9,0,14.1,7.8,14.1,18v20.8H66.1V49.5c0-4.4-0.1-10-6.1-10c-6,0-7.1,4.8-7.1,9.7v18.7H41.3V30.1z"/>
<g class="st2">
	<path class="st0" d="M16.2,96.4h5.7v2.2h-8.1V84.9h2.4V96.4z"/>
	<path class="st0" d="M23.3,86.1c0-0.8,0.6-1.4,1.4-1.4c0.7,0,1.4,0.6,1.4,1.4s-0.6,1.4-1.4,1.4C23.9,87.5,23.3,86.9,23.3,86.1z
		 M23.5,89.3h2.3v9.2h-2.3V89.3z"/>
	<path class="st0" d="M28.2,98.6v-9.2h2.1l0.2,1.2c0.6-0.9,1.7-1.5,2.9-1.5c2.3,0,3.5,1.4,3.5,3.8v5.7h-2.3v-5.1
		c0-1.5-0.8-2.3-1.9-2.3c-1.4,0-2.3,1-2.3,2.5v5H28.2z"/>
	<path class="st0" d="M39.2,98.6V84.7h2.3v8.5l3.6-3.9h2.9L44.4,93l3.4,5.6h-2.6l-2.4-3.9l-1.3,1.4v2.5H39.2z"/>
	<path class="st0" d="M48.2,93.9c0-2.9,1.9-4.9,4.6-4.9c2.8,0,4.5,1.8,4.5,4.7v0.7l-6.9,0c0.2,1.6,1,2.4,2.5,2.4
		c1.3,0,2.1-0.5,2.3-1.4h2.1c-0.4,2-2.1,3.2-4.5,3.2C50.2,98.8,48.2,96.8,48.2,93.9z M50.5,93h4.6c0-1.3-0.9-2.1-2.2-2.1
		C51.5,90.9,50.7,91.6,50.5,93z"/>
	<path class="st0" d="M58.6,94c0-2.9,1.7-4.9,4.5-4.9c1.3,0,2.4,0.5,3,1.5v-5.8h2.3v13.9h-2.1l-0.1-1.4c-0.6,1.1-1.8,1.7-3.2,1.7
		C60.3,98.8,58.6,96.8,58.6,94z M66.1,93.9c0-1.7-1-2.8-2.6-2.8s-2.6,1.2-2.6,2.8s1,2.8,2.6,2.8S66.1,95.6,66.1,93.9z"/>
	<path class="st0" d="M73.5,98.6h-2.4V84.9h2.4V98.6z"/>
	<path class="st0" d="M76.1,98.6v-9.2h2.1l0.2,1.2c0.6-0.9,1.7-1.5,2.9-1.5c2.3,0,3.5,1.4,3.5,3.8v5.7h-2.3v-5.1
		c0-1.5-0.8-2.3-1.9-2.3c-1.4,0-2.3,1-2.3,2.5v5H76.1z"/>
</g>
</svg>
