<?xml version="1.0" encoding="utf-8"?>
<!-- Generator: Adobe Illustrator 24.1.3, SVG Export Plug-In . SVG Version: 6.00 Build 0)  -->
<svg version="1.1"
	 id="svg77" sodipodi:docname="maya.svg" xmlns:inkscape="http://www.inkscape.org/namespaces/inkscape" xmlns:sodipodi="http://sodipodi.sourceforge.net/DTD/sodipodi-0.dtd" xmlns:svg="http://www.w3.org/2000/svg"
	 xmlns="http://www.w3.org/2000/svg" xmlns:xlink="http://www.w3.org/1999/xlink" x="0px" y="0px" viewBox="0 0 100 100"
	 style="enable-background:new 0 0 100 100;" xml:space="preserve">
<style type="text/css">
	.st0{fill:url(#path61_1_);}
	.st1{fill:url(#path63_1_);}
	.st2{fill:url(#path65_1_);}
	.st3{fill:url(#path67_1_);}
	.st4{fill:url(#path69_1_);}
	.st5{fill:url(#path71_1_);}
	.st6{fill:url(#path73_1_);}
	.st7{enable-background:new    ;}
	.st8{fill:#149B9A;}
</style>
<sodipodi:namedview  bordercolor="#000000" borderopacity="0.25" id="namedview79" inkscape:deskcolor="#d1d1d1" inkscape:pagecheckerboard="0" inkscape:pageopacity="0.0" inkscape:showpageshadow="2" pagecolor="#ffffff" showgrid="false">
	</sodipodi:namedview>
<linearGradient id="path61_1_" gradientUnits="userSpaceOnUse" x1="271.2138" y1="800.9434" x2="259.5338" y2="805.8494" gradientTransform="matrix(0.7813 0 0 0.7813 -138.25 -571.2813)">
	<stop  offset="9.000000e-02" style="stop-color:#1A5964"/>
	<stop  offset="0.3" style="stop-color:#137078"/>
	<stop  offset="0.5" style="stop-color:#0E8085"/>
	<stop  offset="0.66" style="stop-color:#0C858A"/>
	<stop  offset="1" style="stop-color:#0A8B8F"/>
</linearGradient>
<path id="path61" class="st0" d="M71.9,77.5h2V31.3L70,37v36L71.9,77.5z"/>
<linearGradient id="path63_1_" gradientUnits="userSpaceOnUse" x1="270.2345" y1="777.1039" x2="295.3895" y2="793.0599" gradientTransform="matrix(0.7813 0 0 0.7813 -138.25 -571.2813)">
	<stop  offset="0" style="stop-color:#079EA0"/>
	<stop  offset="0.43" style="stop-color:#14878E"/>
	<stop  offset="1" style="stop-color:#256A77"/>
</linearGradient>
<path id="path63" class="st1" d="M71.9,77.5V32.6L86.6,4.3h3.2V39L75.7,77.5H71.9"/>
<linearGradient id="path65_1_" gradientUnits="userSpaceOnUse" x1="280.46" y1="744.797" x2="280.46" y2="830.059" gradientTransform="matrix(0.7813 0 0 0.7813 -138.25 -571.2813)">
	<stop  offset="0" style="stop-color:#B4B4B4"/>
	<stop  offset="0.8" style="stop-color:#03ABAB"/>
	<stop  offset="1" style="stop-color:#137980"/>
</linearGradient>
<path id="path65" class="st2" d="M89.8,77.5h-18c1.9-3.7,9.1-18.8,12.2-30.9c5.5-21.2,5.8-37.3,5.8-37.3V77.5z"/>
<linearGradient id="path67_1_" gradientUnits="userSpaceOnUse" x1="237.1437" y1="778.2254" x2="299.7717" y2="766.0164" gradientTransform="matrix(0.7813 0 0 0.7813 -138.25 -571.2813)">
	<stop  offset="0" style="stop-color:#0F5D64"/>
	<stop  offset="0.1" style="stop-color:#097A7E"/>
	<stop  offset="0.23" style="stop-color:#049395"/>
	<stop  offset="0.34" style="stop-color:#01A3A3"/>
	<stop  offset="0.43" style="stop-color:#00A8A8"/>
	<stop  offset="1" style="stop-color:#4EBCC1"/>
</linearGradient>
<path id="path67" class="st3" d="M89.8,4.3H66.1L49.4,44.1l7,19.3H57c0.2,0,0.6-0.2,1.3-1.2C61,57.2,89.8,4.3,89.8,4.3z"/>
<linearGradient id="path69_1_" gradientUnits="userSpaceOnUse" x1="180.0798" y1="790.1822" x2="210.3268" y2="772.6752" gradientTransform="matrix(0.7813 0 0 0.7813 -138.25 -571.2813)">
	<stop  offset="0" style="stop-color:#00A9A9"/>
	<stop  offset="0.65" style="stop-color:#049496"/>
	<stop  offset="1" style="stop-color:#088286"/>
</linearGradient>
<path id="path69" class="st4" d="M10.2,78l2-0.5L29.5,46V35.8L12.1,5.5l-2-1V78z"/>
<linearGradient id="path71_1_" gradientUnits="userSpaceOnUse" x1="190.0058" y1="806.2687" x2="214.6458" y2="804.9047" gradientTransform="matrix(0.7813 0 0 0.7813 -138.25 -571.2813)">
	<stop  offset="0" style="stop-color:#20626E"/>
	<stop  offset="1" style="stop-color:#069D9F"/>
</linearGradient>
<path id="path71" class="st5" d="M29.5,37.7c-1.5,4.5-5.1,15.2-8.8,22C14.1,72.4,10.2,78,10.2,78s15.2,1.3,19.3-3.7V38.4V37.7z"/>
<linearGradient id="path73_1_" gradientUnits="userSpaceOnUse" x1="222.0195" y1="735.2781" x2="218.1535" y2="814.4951" gradientTransform="matrix(0.7813 0 0 0.7813 -138.25 -571.2813)">
	<stop  offset="0" style="stop-color:#99CBD2"/>
	<stop  offset="0.9" style="stop-color:#498F93"/>
	<stop  offset="1" style="stop-color:#2E7B7D"/>
</linearGradient>
<path id="path73" class="st6" d="M42.3,62.1c0.6,1.2,1,1.3,1.2,1.3H57c0.2-0.2,0.2-0.2,0.2-0.5c-0.1-0.2-0.2-0.5-0.2-0.9L33.3,2.3
	L10.2,4.5C10.2,4.5,39.5,57.1,42.3,62.1z"/>
<g class="st7">
	<path class="st8" d="M40.1,95.3V81.7h2.3l4.4,10.9l4.4-10.9h2.4v13.6h-2.3v-4.2c0-2.7,0-3.5,0.1-4.5l-3.5,8.7h-2.2l-3.5-8.7
		c0.1,0.8,0.1,2.1,0.1,3.8v4.9H40.1z"/>
	<path class="st8" d="M55.3,95.3l4.9-13.6h2.4l4.9,13.6h-2.5L64,92.1h-5.1l-1.1,3.2H55.3z M59.6,90.1h3.7l-1.6-4.4
		c-0.1-0.4-0.2-0.8-0.3-1c-0.1,0.3-0.2,0.7-0.3,1L59.6,90.1z"/>
	<path class="st8" d="M66.6,81.7h2.7l2.7,5c0.2,0.4,0.3,0.7,0.5,1c0.2-0.3,0.2-0.6,0.5-1l2.7-5h2.6l-4.6,8.3v5.4h-2.4v-5.4
		L66.6,81.7z"/>
	<path class="st8" d="M77.1,95.3l4.9-13.6h2.4l4.9,13.6h-2.5l-1.1-3.2h-5.1l-1.1,3.2H77.1z M81.4,90.1h3.7l-1.6-4.4
		c-0.1-0.4-0.2-0.8-0.3-1c-0.1,0.3-0.2,0.7-0.3,1L81.4,90.1z"/>
</g>
</svg>
