<?xml version="1.0" encoding="utf-8"?>
<!-- Generator: Adobe Illustrator 24.1.3, SVG Export Plug-In . SVG Version: 6.00 Build 0)  -->
<svg version="1.1"
	 id="svg46" sodipodi:docname="mongodb.svg" xmlns:inkscape="http://www.inkscape.org/namespaces/inkscape" xmlns:sodipodi="http://sodipodi.sourceforge.net/DTD/sodipodi-0.dtd" xmlns:svg="http://www.w3.org/2000/svg"
	 xmlns="http://www.w3.org/2000/svg" xmlns:xlink="http://www.w3.org/1999/xlink" x="0px" y="0px" viewBox="0 0 100 100"
	 style="enable-background:new 0 0 100 100;" xml:space="preserve">
<style type="text/css">
	.st0{fill-rule:evenodd;clip-rule:evenodd;fill:#439934;}
	.st1{fill-rule:evenodd;clip-rule:evenodd;fill:#45A538;}
	.st2{fill-rule:evenodd;clip-rule:evenodd;fill:#46A037;}
	.st3{fill-rule:evenodd;clip-rule:evenodd;fill:#409433;}
	.st4{fill-rule:evenodd;clip-rule:evenodd;fill:#4FAA41;}
	.st5{fill-rule:evenodd;clip-rule:evenodd;fill:#4AA73C;}
	.st6{fill-rule:evenodd;clip-rule:evenodd;fill:#57AE47;}
	.st7{fill-rule:evenodd;clip-rule:evenodd;fill:#60B24F;}
	.st8{fill-rule:evenodd;clip-rule:evenodd;fill:#A9AA88;}
	.st9{fill-rule:evenodd;clip-rule:evenodd;fill:#B6B598;}
	.st10{fill-rule:evenodd;clip-rule:evenodd;fill:#C2C1A7;}
	.st11{fill-rule:evenodd;clip-rule:evenodd;fill:#CECDB7;}
	.st12{fill-rule:evenodd;clip-rule:evenodd;fill:#DBDAC7;}
	.st13{fill-rule:evenodd;clip-rule:evenodd;fill:#EBE9DC;}
	.st14{enable-background:new    ;}
	.st15{fill:#50382B;}
	.st16{fill:#94795D;}
</style>
<sodipodi:namedview  bordercolor="#000000" borderopacity="0.25" id="namedview48" inkscape:deskcolor="#d1d1d1" inkscape:pagecheckerboard="0" inkscape:pageopacity="0.0" inkscape:showpageshadow="2" pagecolor="#ffffff" showgrid="false">
	</sodipodi:namedview>
<path id="path14" class="st0" d="M64.3,26.2c1,2.8,1.6,5.6,1.9,8.5c0.3,3.6,0.2,7.2-0.6,10.8l-0.1,0.3c-0.2,0-0.5,0-0.7,0
	c-2,0.3-4,0.6-6,1c-2.1,0.3-4.1,0.7-6.2,1c-0.7,0.1-1.6,0-1.9,1l-0.1,0l0.1-6l-0.1-14.5l1-0.2c1.6-0.3,3.1-0.5,4.7-0.8
	c1.9-0.3,3.7-0.6,5.6-0.9C62.7,26.4,63.5,26.3,64.3,26.2z"/>
<path id="path16" class="st1" d="M48.6,66.3c-1-0.9-2.1-1.7-3-2.6c-5.2-4.9-9-10.7-10.9-17.6c-0.5-1.9-0.9-3.9-1-5.8
	c-0.1-1.4-0.2-2.8-0.1-4.2c0.3-3.7,0.8-7.3,1.9-10.8l0.1-0.1c0.1,0.1,0.3,0.3,0.3,0.4c1,3.1,2.1,6.2,3.1,9.3
	c3.3,9.7,6.5,19.5,9.8,29.2c0.1,0.2,0.2,0.3,0.3,0.5L48.6,66.3z"/>
<path id="path18" class="st2" d="M64.3,26.2c-0.8,0.1-1.7,0.2-2.5,0.4c-1.9,0.3-3.7,0.6-5.6,0.9c-1.6,0.2-3.1,0.5-4.7,0.8l-1,0.2
	l0-0.6c0-0.5-0.1-1-0.1-1.5l-0.1-9.8c0-2-0.1-4.1-0.1-6.1c0-1.3-0.1-2.5-0.1-3.8c0-0.7-0.1-1.4-0.2-2c0-0.4,0-0.8,0-1.2
	c0.5,0.9,1,1.9,1.5,2.8c0.8,1.5,2.1,2.6,3.2,3.8C59.2,14.5,62.4,20,64.3,26.2z"/>
<path id="path20" class="st3" d="M50.6,48.8l0.1,0c0.3-1,1.2-0.9,1.9-1c2-0.4,4.1-0.7,6.2-1c2-0.3,4-0.6,6-1c0.2,0,0.5,0,0.7,0
	c-0.4,1.3-0.7,2.7-1.1,4c-0.5,1.5-1.2,2.9-1.9,4.3c-1,2.1-2.3,4-3.8,5.8c-1.1,1.4-2.4,2.7-3.7,3.9c-0.7,0.7-1.5,1.3-2.3,1.9
	l-0.2-0.1L51.8,65L51,63.3c-0.5-1.9-0.8-3.9-0.8-5.9l0-0.3l0.1-1.4c0-0.5,0.1-1,0.1-1.5C50.5,52.4,50.5,50.6,50.6,48.8L50.6,48.8z"
	/>
<path id="path22" class="st4" d="M50.6,48.8c-0.1,1.8-0.1,3.6-0.2,5.3c0,0.5-0.1,1-0.1,1.5l-0.5,0.2c-1-3-2-5.9-3-8.9
	c-1.6-4.9-3.3-9.8-4.9-14.7c-1.3-4-2.7-7.9-4-11.9c-0.1-0.2-0.2-0.3-0.4-0.5l2.9-5.4c0.1,0.2,0.2,0.3,0.3,0.5c1.4,4,2.7,8,4,12
	c1.7,5.2,3.5,10.4,5.2,15.6c0.1,0.2,0.2,0.4,0.3,0.6l0.4-0.5L50.6,48.8z"/>
<path id="path24" class="st5" d="M37.6,19.9c0.1,0.2,0.3,0.3,0.4,0.5c1.3,3.9,2.7,7.9,4,11.9c1.6,4.9,3.3,9.8,4.9,14.7
	c1,3,2,5.9,3,8.9l0.5-0.2l-0.1,1.4l-0.1,0.3c-0.2,1.6-0.3,3.2-0.5,4.8c-0.1,0.8-0.3,1.6-0.5,2.4c-0.1-0.2-0.3-0.3-0.3-0.5
	c-3.3-9.7-6.5-19.5-9.8-29.2c-1-3.1-2.1-6.2-3.1-9.3c-0.1-0.2-0.2-0.3-0.3-0.4L37.6,19.9z"/>
<path id="path26" class="st6" d="M50.7,42.9l-0.4,0.5c-0.1-0.2-0.2-0.4-0.3-0.6c-1.7-5.2-3.5-10.4-5.2-15.6c-1.3-4-2.7-8-4-12
	c-0.1-0.2-0.2-0.4-0.3-0.5l3.6-4.8c0.1,0.2,0.3,0.3,0.3,0.5c1,2.9,2,5.9,3,8.8c0.9,2.7,1.8,5.5,2.8,8.2c0.1,0.2,0.3,0.3,0.4,0.5
	l0,0.6L50.7,42.9z"/>
<path id="path28" class="st7" d="M50.6,27.8c-0.1-0.2-0.4-0.3-0.4-0.5c-0.9-2.7-1.8-5.5-2.8-8.2c-1-2.9-2-5.9-3-8.8
	c-0.1-0.2-0.2-0.3-0.3-0.5c1.2-1.2,2.3-2.3,3.5-3.4c1.1-1,2-2,2-3.6l0.1-0.3L50,3.2c0,0.4,0,0.8,0,1.2c0,0.7,0.2,1.4,0.2,2
	c0.1,1.3,0.1,2.5,0.1,3.8c0,2,0.1,4.1,0.1,6.1l0.1,9.8C50.5,26.7,50.6,27.2,50.6,27.8z"/>
<path id="path30" class="st8" d="M49.2,64.6c0.2-0.8,0.4-1.6,0.5-2.4c0.2-1.6,0.3-3.2,0.5-4.8l0,0l0,0c0,2,0.3,4,0.8,5.9
	c-0.1,0.1-0.3,0.3-0.3,0.4c-0.4,1.2-0.8,2.5-1.3,3.7c-0.1,0.2-0.2,0.3-0.3,0.4l-0.4-1.5L49.2,64.6z"/>
<path id="path32" class="st9" d="M49.1,67.9c0.1-0.1,0.3-0.3,0.3-0.4c0.4-1.2,0.8-2.5,1.3-3.7c0.1-0.2,0.2-0.3,0.3-0.4l0.7,1.6
	c-0.1,0.2-0.4,0.4-0.4,0.6l-1.4,4.2c-0.1,0.2-0.3,0.3-0.4,0.4L49.1,67.9z"/>
<path id="path34" class="st10" d="M49.5,70.2c0.1-0.1,0.3-0.3,0.4-0.4l1.4-4.2c0.1-0.2,0.3-0.4,0.4-0.6l0.7,0.6
	c-0.3,0.3-0.5,0.7-0.4,1.3l-0.2,0.7c-0.1,0.1-0.2,0.2-0.3,0.4c-0.5,1.4-1,2.9-1.5,4.3c-0.1,0.2-0.2,0.3-0.4,0.5L49.5,70.2z"/>
<path id="path36" class="st11" d="M49.7,72.7c0.1-0.2,0.3-0.3,0.4-0.5c0.5-1.4,1-2.9,1.5-4.3c0-0.1,0.2-0.2,0.3-0.4l-0.3,3.3
	c-0.1,0.1-0.2,0.2-0.2,0.3l-1,2.9c-0.1,0.2-0.2,0.4-0.3,0.6c-0.1-0.1-0.3-0.2-0.3-0.4C49.7,73.7,49.7,73.2,49.7,72.7z"/>
<path id="path38" class="st12" d="M50,74.6c0.1-0.2,0.2-0.4,0.3-0.6l1-2.9c0-0.1,0.2-0.2,0.2-0.3l0,2.2l-0.7,1.9L50,74.6z"/>
<path id="path40" class="st13" d="M50.8,74.9l0.7-1.9l0.2,2.2L50.8,74.9z"/>
<path id="path42" class="st11" d="M52.1,66.8c-0.1-0.5,0.1-0.9,0.4-1.3l0.2,0.1L52.1,66.8z"/>
<path id="path44" class="st4" d="M50.2,57.5L50.2,57.5L50.2,57.5l0-0.3L50.2,57.5z"/>
<g class="st14">
	<path class="st15" d="M5.2,93.9v-9.2h2.1l0.2,1.1c0.5-0.8,1.4-1.4,2.7-1.4c1.4,0,2.4,0.7,2.9,1.8c0.5-1.1,1.5-1.8,2.9-1.8
		c2.2,0,3.5,1.3,3.5,3.5v6h-2.3v-5.4c0-1.3-0.7-2-1.8-2c-1.1,0-1.9,0.7-1.9,2.2v5.2h-2.3v-5.4c0-1.3-0.7-2-1.8-2c-1.1,0-2,0.7-2,2.2
		v5.2H5.2z"/>
	<path class="st15" d="M26.1,84.4c2.9,0,4.9,2,4.9,4.9c0,2.9-2.1,4.9-4.9,4.9c-2.9,0-4.9-2-4.9-4.9C21.2,86.4,23.3,84.4,26.1,84.4z
		 M26.1,92.1c1.6,0,2.6-1.1,2.6-2.8s-1.1-2.8-2.6-2.8c-1.6,0-2.6,1.1-2.6,2.8S24.6,92.1,26.1,92.1z"/>
	<path class="st15" d="M32.9,93.9v-9.2H35l0.2,1.2c0.6-0.9,1.7-1.5,2.9-1.5c2.3,0,3.5,1.4,3.5,3.8v5.7h-2.3v-5.1
		c0-1.5-0.8-2.3-1.9-2.3c-1.4,0-2.3,1-2.3,2.5v5H32.9z"/>
	<path class="st15" d="M47.7,84.4c1.4,0,2.5,0.6,3,1.6l0.1-1.3H53v8.8c0,3.1-1.8,5-4.8,5c-2.6,0-4.5-1.5-4.7-4h2.3
		c0.1,1.2,1.1,1.9,2.5,1.9c1.6,0,2.6-1,2.6-2.5v-1.5c-0.6,0.9-1.7,1.4-3,1.4c-2.6,0-4.3-2-4.3-4.6C43.3,86.4,45.1,84.4,47.7,84.4z
		 M48.1,91.7c1.6,0,2.5-1.1,2.5-2.7c0-1.6-1-2.7-2.5-2.7c-1.5,0-2.5,1.1-2.5,2.7C45.6,90.6,46.6,91.7,48.1,91.7z"/>
	<path class="st15" d="M59.7,84.4c2.9,0,4.9,2,4.9,4.9c0,2.9-2.1,4.9-4.9,4.9s-4.9-2-4.9-4.9C54.8,86.4,56.9,84.4,59.7,84.4z
		 M59.7,92.1c1.6,0,2.7-1.1,2.7-2.8s-1.1-2.8-2.7-2.8c-1.6,0-2.7,1.1-2.7,2.8S58.1,92.1,59.7,92.1z"/>
</g>
<g class="st14">
	<path class="st16" d="M67.5,93.9V80.3h4.8c4,0,6.8,2.8,6.8,6.8c0,4-2.7,6.8-6.7,6.8H67.5z M69.9,82.5v9.2h2.3
		c2.7,0,4.4-1.8,4.4-4.6c0-2.9-1.7-4.6-4.5-4.6H69.9z"/>
	<path class="st16" d="M81.4,80.3h5.4c2.7,0,4.3,1.4,4.3,3.7c0,1.5-0.7,2.6-2,3.1c1.4,0.5,2.2,1.5,2.2,3.1c0,2.3-1.6,3.7-4.4,3.7
		h-5.5V80.3z M83.7,82.4v3.7h2.9c1.3,0,2-0.7,2-1.9c0-1.2-0.7-1.8-2.1-1.8H83.7z M83.7,88.1v3.7h3c1.3,0,2.1-0.7,2.1-1.9
		c0-1.2-0.8-1.8-2.1-1.8H83.7z"/>
</g>
</svg>
