<?xml version="1.0" encoding="utf-8"?>
<!-- Generator: Adobe Illustrator 24.1.3, SVG Export Plug-In . SVG Version: 6.00 Build 0)  -->
<svg version="1.1"
	 id="svg8" sodipodi:docname="mysql.svg" xmlns:inkscape="http://www.inkscape.org/namespaces/inkscape" xmlns:sodipodi="http://sodipodi.sourceforge.net/DTD/sodipodi-0.dtd" xmlns:svg="http://www.w3.org/2000/svg"
	 xmlns="http://www.w3.org/2000/svg" xmlns:xlink="http://www.w3.org/1999/xlink" x="0px" y="0px" viewBox="0 0 100 100"
	 style="enable-background:new 0 0 100 100;" xml:space="preserve">
<style type="text/css">
	.st0{fill:#00618A;}
	.st1{enable-background:new    ;}
	.st2{fill:#E48E00;}
</style>
<sodipodi:namedview  bordercolor="#000000" borderopacity="0.25" id="namedview10" inkscape:deskcolor="#d1d1d1" inkscape:pagecheckerboard="0" inkscape:pageopacity="0.0" inkscape:showpageshadow="2" pagecolor="#ffffff" showgrid="false">
	</sodipodi:namedview>
<path id="path6" class="st0" d="M95.6,48.3c-2-0.1-3.5,0.1-4.8,0.7c-0.4,0.2-0.9,0.2-1,0.6c0.2,0.2,0.2,0.5,0.4,0.8
	c0.3,0.5,0.8,1.2,1.3,1.5c0.5,0.4,1,0.8,1.6,1.1c1,0.6,2,0.9,3,1.5c0.5,0.3,1.1,0.8,1.6,1.2c0.3,0.2,0.4,0.5,0.8,0.6v-0.1
	c-0.2-0.2-0.2-0.5-0.4-0.8l-0.7-0.7c-0.7-0.9-1.6-1.8-2.6-2.5c-0.8-0.6-2.5-1.3-2.8-2.2L91.9,50c0.5-0.1,1.2-0.3,1.7-0.4
	c0.8-0.2,1.6-0.2,2.5-0.4l1.2-0.3v-0.2c-0.4-0.5-0.8-1.1-1.2-1.5c-1.3-1.1-2.6-2.1-4-3c-0.8-0.5-1.8-0.8-2.6-1.2
	c-0.3-0.1-0.8-0.2-1-0.4c-0.4-0.6-0.7-1.3-1-1.9c-0.7-1.4-1.4-2.8-2-4.3c-0.4-1-0.7-1.9-1.2-2.8c-2.5-4.2-5.3-6.7-9.5-9.2
	c-0.9-0.5-2-0.7-3.1-1l-1.9-0.1c-0.4-0.2-0.8-0.6-1.1-0.8c-1.4-0.9-5-2.8-6.1-0.3c-0.7,1.6,1,3.2,1.6,4c0.4,0.6,0.9,1.2,1.2,1.9
	c0.2,0.4,0.2,0.8,0.4,1.3c0.4,1.1,0.8,2.3,1.3,3.3c0.3,0.5,0.6,1.1,0.9,1.5c0.2,0.3,0.6,0.4,0.6,0.8c-0.3,0.5-0.4,1.2-0.6,1.9
	C67,39.5,67.3,43,68.6,45c0.4,0.6,1.3,2,2.6,1.5c1.1-0.5,0.9-1.9,1.2-3.1c0.1-0.3,0-0.5,0.2-0.7v0.1l1,2c0.7,1.2,2.1,2.5,3.2,3.3
	c0.6,0.4,1,1.2,1.8,1.5v-0.1h-0.1c-0.1-0.2-0.4-0.3-0.6-0.5c-0.4-0.4-0.9-1-1.3-1.5c-1-1.4-1.9-2.9-2.7-4.5
	c-0.4-0.8-0.7-1.6-1.1-2.4c-0.1-0.3-0.1-0.7-0.4-0.9c-0.4,0.6-0.9,1-1.2,1.7c-0.4,1.1-0.5,2.4-0.7,3.7l-0.1,0.1
	c-0.8-0.2-1.1-1-1.3-1.7c-0.7-1.7-0.9-4.6-0.2-6.6c0.2-0.5,0.9-2.2,0.6-2.6c-0.1-0.5-0.6-0.8-0.9-1.1c-0.4-0.5-0.7-1-0.9-1.6
	c-0.6-1.4-0.9-2.9-1.5-4.3c-0.3-0.7-0.8-1.3-1.2-1.9c-0.5-0.6-1-1.1-1.3-1.9c-0.1-0.3-0.3-0.7-0.1-1c0.1-0.2,0.1-0.3,0.3-0.3
	c0.3-0.3,1.2,0.1,1.6,0.2c0.9,0.4,1.7,0.7,2.4,1.2c0.4,0.2,0.7,0.7,1.2,0.8h0.5c0.8,0.2,1.7,0.1,2.4,0.3c1.3,0.4,2.5,1,3.5,1.7
	c3.2,2,5.9,4.9,7.7,8.4c0.3,0.6,0.4,1.1,0.7,1.7c0.5,1.2,1.2,2.4,1.7,3.6c0.5,1.2,1,2.3,1.7,3.3c0.4,0.5,1.9,0.8,2.5,1.1
	c0.5,0.2,1.2,0.4,1.7,0.7c0.8,0.5,1.7,1.1,2.5,1.7C94.3,47.2,95.5,47.8,95.6,48.3z M70.5,26.9c-0.3,0-0.7,0-1,0.1v0.1h0.1
	c0.2,0.4,0.5,0.7,0.8,1l0.6,1.2l0.1-0.1c0.3-0.2,0.5-0.6,0.5-1.2c-0.1-0.1-0.2-0.3-0.3-0.5C71,27.3,70.7,27.1,70.5,26.9z"/>
<g class="st1">
	<path class="st0" d="M4.8,70.8V51.3h3.3l6.3,15.5l6.3-15.5h3.4v19.5h-3.3v-6c0-3.9,0-5.1,0.2-6.5l-5,12.5h-3.1L7.9,58.3
		c0.2,1.2,0.2,3,0.2,5.4v7H4.8z"/>
	<path class="st0" d="M26.8,74.1h1.9c1.3,0,2.1-0.3,2.6-1.8l0.4-1l-5.3-13.7h3.4l3.4,9.6l3.6-9.6h3.4l-6.5,16.1
		c-1,2.5-2.4,3.5-4.5,3.5c-0.9,0-1.7-0.1-2.4-0.3V74.1z"/>
</g>
<g class="st1">
	<path class="st2" d="M49.4,51.2c3.9,0,6.5,2.2,6.6,5.7h-3.4c-0.1-1.7-1.3-2.7-3.2-2.7c-2.1,0-3.5,1-3.5,2.6c0,1.4,0.7,2.2,2.4,2.5
		l3.1,0.7c3.3,0.7,5,2.4,5,5.3c0,3.6-2.8,6-7.1,6c-4.2,0-6.9-2.2-7-5.7h3.4c0,1.7,1.4,2.6,3.5,2.6c2.3,0,3.7-1,3.7-2.6
		c0-1.3-0.7-2.1-2.3-2.4l-3.1-0.7c-3.3-0.7-5-2.6-5-5.6C42.5,53.5,45.3,51.2,49.4,51.2z"/>
	<path class="st2" d="M72.6,70.1c-1.4,0.8-3,1.3-4.9,1.3c-5.6,0-9.4-4.1-9.4-10.1c0-5.9,3.9-10.1,9.4-10.1c5.6,0,9.5,4.1,9.5,10.1
		c0,2.8-0.9,5.2-2.4,7l2.1,2.3l-2.2,1.9L72.6,70.1z M67.7,54.4c-3.6,0-5.9,2.6-5.9,6.8c0,4.2,2.3,6.8,5.9,6.8c1,0,1.8-0.2,2.6-0.6
		l-2.6-2.9l2.2-1.9l2.6,2.9c0.7-1.1,1.1-2.6,1.1-4.3C73.6,57.1,71.3,54.4,67.7,54.4z"/>
	<path class="st2" d="M83.8,67.9h8.2V71H80.3V51.5h3.4V67.9z"/>
</g>
</svg>
