<?xml version="1.0" encoding="utf-8"?>
<!-- Generator: Adobe Illustrator 24.1.3, SVG Export Plug-In . SVG Version: 6.00 Build 0)  -->
<svg version="1.1"
	 id="svg14" sodipodi:docname="nuxtjs.svg" xmlns:inkscape="http://www.inkscape.org/namespaces/inkscape" xmlns:sodipodi="http://sodipodi.sourceforge.net/DTD/sodipodi-0.dtd" xmlns:svg="http://www.w3.org/2000/svg"
	 xmlns="http://www.w3.org/2000/svg" xmlns:xlink="http://www.w3.org/1999/xlink" x="0px" y="0px" viewBox="0 0 100 100"
	 style="enable-background:new 0 0 100 100;" xml:space="preserve">
<style type="text/css">
	.st0{fill:#00C58E;}
	.st1{fill:#108775;}
	.st2{fill:#2F495E;}
	.st3{enable-background:new    ;}
	.st4{fill:#2E495E;}
	.st5{fill:#00C48D;}
</style>
<sodipodi:namedview  bordercolor="#000000" borderopacity="0.25" id="namedview16" inkscape:deskcolor="#d1d1d1" inkscape:pagecheckerboard="0" inkscape:pageopacity="0.0" inkscape:showpageshadow="2" pagecolor="#ffffff" showgrid="false">
	</sodipodi:namedview>
<path id="path2" class="st0" d="M7.7,58.8l-0.1-0.1c-0.1-0.2-0.1-0.4-0.1-0.7h-6l8.9-15.8l3.7,6.7l1.2-0.9l-3.7-6.7
	c-0.1-0.1-0.5-0.8-1.2-0.8c-0.3,0-0.8,0.1-1.2,0.8l-9,15.9c-0.1,0.2-0.4,0.9-0.1,1.5c0.2,0.3,0.6,0.7,1.3,0.7H9
	C8.2,59.5,7.9,59.1,7.7,58.8z"/>
<path id="path4" class="st1" d="M24.8,57.4l-7.2-13c-0.1-0.1-0.5-0.8-1.2-0.8c-0.3,0-0.8,0.2-1.2,0.8l-0.9,1.6v3l2.2-3.7L23.5,58
	h-2.7c0,0.3,0,0.5-0.1,0.8l-0.1,0.1c-0.3,0.6-1.2,0.7-1.3,0.7h4.2c0.2,0,0.9-0.1,1.3-0.7C25.1,58.5,25.2,58,24.8,57.4z"/>
<path id="path6" class="st2" d="M20.8,58.8L20.8,58.8l0.1-0.2C21,58.4,21,58.2,21,58l-0.2-0.7l-5.7-9.9l-0.8-1.5h-0.1l-0.8,1.5
	l-5.7,9.9L7.5,58c-0.1,0.3,0,0.6,0.1,0.8c0.2,0.3,0.6,0.7,1.3,0.7h10.5C19.6,59.5,20.5,59.4,20.8,58.8z M14.2,48.9l5.2,9H9
	L14.2,48.9z"/>
<g class="st3">
	<path class="st4" d="M28,58.9V45.2h2.4l6.4,9.7v-9.7h2.4v13.6h-2.4l-6.4-9.7v9.7H28z"/>
	<path class="st4" d="M42.1,45.2h2.4v8.5c0,2,1.1,3,3,3s3-1.1,3-3v-8.5h2.4v8.7c0,3.2-2.1,5.2-5.4,5.2c-3.3,0-5.4-2-5.4-5.2V45.2z"
		/>
	<path class="st4" d="M54.7,45.2h2.8l1.7,2.4c0.6,0.8,1,1.6,1.5,2.6l3.2-5h2.8L62.2,52l4.5,6.8h-2.8l-1.5-2.3
		c-0.6-0.9-1.1-1.7-1.6-2.7l-3.3,5h-2.8l4.6-6.8L54.7,45.2z"/>
	<path class="st4" d="M67.3,45.2h10.4v2.2h-4v11.4h-2.4V47.4h-4V45.2z"/>
</g>
<g class="st3">
	<path class="st5" d="M78.3,54.2h2.3V55c0,1,0.6,1.9,1.9,1.9s1.9-0.8,1.9-2v-9.7h2.4v9.8c0,2.4-1.7,4-4.3,4c-2.8,0-4.2-1.7-4.2-4.1
		V54.2z"/>
	<path class="st5" d="M93.8,45c2.8,0,4.5,1.5,4.6,4H96c-0.1-1.2-0.9-1.9-2.2-1.9c-1.5,0-2.4,0.7-2.4,1.8c0,1,0.5,1.5,1.7,1.8
		l2.1,0.5c2.3,0.5,3.5,1.7,3.5,3.7c0,2.5-2,4.2-5,4.2c-2.9,0-4.8-1.5-4.9-4h2.4c0,1.2,1,1.8,2.5,1.8c1.6,0,2.6-0.7,2.6-1.8
		c0-0.9-0.5-1.5-1.6-1.7l-2.2-0.5c-2.3-0.5-3.5-1.8-3.5-3.9C88.9,46.6,90.9,45,93.8,45z"/>
</g>
</svg>
