<?xml version="1.0" encoding="utf-8"?>
<!-- Generator: Adobe Illustrator 24.1.3, SVG Export Plug-In . SVG Version: 6.00 Build 0)  -->
<svg version="1.1"
	 id="svg4" sodipodi:docname="photoshop.svg" xmlns:inkscape="http://www.inkscape.org/namespaces/inkscape" xmlns:sodipodi="http://sodipodi.sourceforge.net/DTD/sodipodi-0.dtd" xmlns:svg="http://www.w3.org/2000/svg"
	 xmlns="http://www.w3.org/2000/svg" xmlns:xlink="http://www.w3.org/1999/xlink" x="0px" y="0px" viewBox="0 0 100 100"
	 style="enable-background:new 0 0 100 100;" xml:space="preserve">
<style type="text/css">
	.st0{fill:#001C33;}
	.st1{enable-background:new    ;}
	.st2{fill:#2DA2F6;}
	.st3{fill-rule:evenodd;clip-rule:evenodd;fill:#2DA2F6;}
</style>
<sodipodi:namedview  bordercolor="#000000" borderopacity="0.25" id="namedview6" inkscape:deskcolor="#d1d1d1" inkscape:pagecheckerboard="0" inkscape:pageopacity="0.0" inkscape:showpageshadow="2" pagecolor="#ffffff" showgrid="false">
	</sodipodi:namedview>
<g id="layer2" inkscape:groupmode="layer" inkscape:label="Layer 2">
	<rect id="rect2745" x="16.4" y="7.1" class="st0" width="67.9" height="66.7"/>
</g>
<g id="layer1" inkscape:groupmode="layer" inkscape:label="Layer 1">
	<g class="st1">
		<path class="st2" d="M8.5,90.8v4.7H6.1V81.9h5.4c2.7,0,4.5,1.8,4.5,4.5c0,2.6-1.8,4.5-4.5,4.5H8.5z M8.5,84v4.7H11
			c1.6,0,2.5-0.9,2.5-2.4c0-1.5-0.9-2.3-2.5-2.3H8.5z"/>
		<path class="st2" d="M17.7,95.5V81.7H20v5.9c0.6-0.9,1.7-1.5,3-1.5c2.3,0,3.5,1.4,3.5,3.8v5.7h-2.3v-5.1c0-1.5-0.8-2.3-1.9-2.3
			c-1.4,0-2.3,1-2.3,2.4v5H17.7z"/>
		<path class="st2" d="M33.1,86.1c2.9,0,4.9,2,4.9,4.9c0,2.9-2.1,4.9-4.9,4.9c-2.9,0-4.9-2-4.9-4.9C28.1,88,30.2,86.1,33.1,86.1z
			 M33.1,93.7c1.6,0,2.6-1.1,2.6-2.8s-1.1-2.8-2.6-2.8c-1.6,0-2.6,1.1-2.6,2.8S31.5,93.7,33.1,93.7z"/>
		<path class="st2" d="M40.6,95.5v-7.3h-1.8v-1.9h1.8v-2.9h2.3v2.9h1.8v1.9h-1.8v7.3H40.6z"/>
		<path class="st2" d="M50.4,86.1c2.9,0,4.9,2,4.9,4.9c0,2.9-2.1,4.9-4.9,4.9c-2.9,0-4.9-2-4.9-4.9C45.4,88,47.5,86.1,50.4,86.1z
			 M50.4,93.7c1.6,0,2.6-1.1,2.6-2.8s-1.1-2.8-2.6-2.8c-1.6,0-2.6,1.1-2.6,2.8S48.8,93.7,50.4,93.7z"/>
		<path class="st2" d="M58.5,92.7c0,0.8,0.6,1.3,1.7,1.3c1.1,0,1.6-0.4,1.6-1.1c0-0.5-0.2-0.8-1.1-1l-1.7-0.4
			c-1.7-0.4-2.5-1.2-2.5-2.6c0-1.8,1.5-2.9,3.7-2.9c2.1,0,3.5,1.2,3.5,3h-2.2c0-0.8-0.5-1.3-1.4-1.3c-0.9,0-1.4,0.4-1.4,1.1
			c0,0.5,0.4,0.9,1.2,1l1.7,0.4c1.5,0.4,2.3,1.1,2.3,2.5c0,1.9-1.6,3-3.9,3c-2.3,0-3.8-1.2-3.8-3H58.5z"/>
		<path class="st2" d="M65.7,95.5V81.7H68v5.9c0.6-0.9,1.7-1.5,3-1.5c2.3,0,3.5,1.4,3.5,3.8v5.7h-2.3v-5.1c0-1.5-0.8-2.3-1.9-2.3
			c-1.4,0-2.3,1-2.3,2.4v5H65.7z"/>
		<path class="st2" d="M81.1,86.1c2.9,0,4.9,2,4.9,4.9c0,2.9-2.1,4.9-4.9,4.9s-4.9-2-4.9-4.9C76.2,88,78.3,86.1,81.1,86.1z
			 M81.1,93.7c1.6,0,2.7-1.1,2.7-2.8s-1.1-2.8-2.7-2.8c-1.6,0-2.7,1.1-2.7,2.8S79.5,93.7,81.1,93.7z"/>
		<path class="st2" d="M87.9,86.3H90l0.1,1.4c0.6-1.1,1.8-1.7,3.2-1.7c2.6,0,4.3,1.9,4.3,4.8c0,2.9-1.6,5-4.3,5
			c-1.4,0-2.6-0.5-3.2-1.5v5.5h-2.3V86.3z M92.7,93.7c1.6,0,2.6-1.2,2.6-2.8c0-1.6-1-2.8-2.6-2.8c-1.6,0-2.6,1.2-2.6,2.8
			C90.2,92.6,91.2,93.7,92.7,93.7z"/>
	</g>
	<path id="path2" class="st3" d="M88.6,1.4c-22.3,0-44.6,0-66.9,0c-3.2,0-6.4,0-9.6,0c-0.2,0-0.7,0.1-0.7,0.1v77.7h77.7V1.6
		C89.1,1.5,88.8,1.4,88.6,1.4z M80.7,71.6c-20.1,0-40.2,0-60.3,0c-1,0-1,0-1-1V10.3c0-1,0-0.7,1-0.7h60.3c1,0,1-0.2,1,0.8v30.1
		c0,10.1,0,20.1,0,30.2C81.7,71.4,81.5,71.6,80.7,71.6z M45.8,25.4c-4.1-1-8.2-0.5-12.4-0.1c-0.9,0.1-1,0.5-1,1.2
		c0,9.4,0,18.7,0,28.1v0.5h5.5v-11c3.1,0.2,5.9,0.2,8.7-0.8c4.4-1.6,6.6-5,6.4-10C52.8,29.4,50.2,26.4,45.8,25.4z M44.6,39.2
		c-2,1-4.1,0.9-6.2,0.7c-0.2,0-0.4-0.3-0.4-0.5c0-3.3,0-6.6,0-9.9c1.9-0.3,3.8-0.4,5.6,0c2.3,0.6,3.6,2,3.8,4.3
		C47.7,36.1,46.6,38.2,44.6,39.2z M65.1,43.5c-0.9-0.5-1.9-0.8-2.8-1.3c-0.9-0.4-1.7-0.8-2.6-1.3c-0.6-0.3-0.8-0.9-0.8-1.6
		c0-1.2,0.8-2.1,2.2-2.2c1-0.1,2.1,0,3.1,0.2c0.8,0.2,1.7,0.6,2.5,0.9l1.1-3.9c-2.1-1-4.2-1.4-6.3-1.3c-1.9,0.1-3.6,0.5-5.1,1.6
		c-2.9,2-4.3,7.3,0,10.1c1.1,0.7,2.4,1.2,3.6,1.8c0.8,0.4,1.5,0.7,2.2,1.1c0.9,0.5,1.2,1.4,1,2.4c-0.2,1-0.8,1.6-1.7,1.8
		c-1,0.2-2.1,0.3-3.2,0.1c-1.4-0.3-2.8-0.8-4.3-1.2c-0.3,1-0.5,2.1-0.9,3.1c-0.2,0.6-0.1,0.9,0.5,1.1c3.5,1.4,7,1.7,10.5,0.4
		c2.6-0.9,4.3-2.8,4.5-5.7C68.8,46.9,67.6,44.9,65.1,43.5L65.1,43.5z"/>
</g>
</svg>
