<?xml version="1.0" encoding="utf-8"?>
<!-- Generator: Adobe Illustrator 24.1.3, SVG Export Plug-In . SVG Version: 6.00 Build 0)  -->
<svg version="1.1"
	 id="svg14" sodipodi:docname="postgresql.svg" xmlns:inkscape="http://www.inkscape.org/namespaces/inkscape" xmlns:sodipodi="http://sodipodi.sourceforge.net/DTD/sodipodi-0.dtd" xmlns:svg="http://www.w3.org/2000/svg"
	 xmlns="http://www.w3.org/2000/svg" xmlns:xlink="http://www.w3.org/1999/xlink" x="0px" y="0px" viewBox="0 0 100 100"
	 style="enable-background:new 0 0 100 100;" xml:space="preserve">
<style type="text/css">
	.st0{fill:#336791;}
	.st1{fill:#FFFFFF;}
	.st2{enable-background:new    ;}
</style>
<sodipodi:namedview  bordercolor="#000000" borderopacity="0.25" id="namedview16" inkscape:deskcolor="#d1d1d1" inkscape:pagecheckerboard="0" inkscape:pageopacity="0.0" inkscape:showpageshadow="2" pagecolor="#ffffff" showgrid="false">
	</sodipodi:namedview>
<path id="path2" d="M67.2,59.4c0.5-4.1,0.3-4.7,3.4-4l0.8,0.1c2.4,0.1,5.4-0.4,7.2-1.2c3.9-1.8,6.2-4.8,2.4-4
	C72.2,52,71.6,49,71.6,49c9.3-13.7,13.1-31.2,9.8-35.4C72.3,2,56.5,7.5,56.3,7.6l-0.1,0c-1.7-0.4-3.7-0.6-5.8-0.6
	c-4-0.1-7,1-9.3,2.8c0,0-28.1-11.6-26.8,14.6c0.3,5.6,8,42.1,17.2,31.1c3.4-4,6.6-7.4,6.6-7.4c1.6,1.1,3.5,1.6,5.6,1.4l0.2-0.1
	c0,0.5,0,1,0.1,1.6c-2.4,2.6-1.7,3.1-6.4,4.1c-4.8,1-2,2.7-0.1,3.2c2.2,0.6,7.4,1.3,10.8-3.5L48,55.2c0.9,0.7,0.9,5.3,1,8.6
	c0.1,3.3,0.4,6.3,1,8.1c0.7,1.8,1.5,6.5,7.7,5.1C62.8,75.9,66.8,74.3,67.2,59.4"/>
<path id="path4" d="M55.6,80.3c-2.7,0-4.5-1.1-5.6-2.1c-1.6-1.5-2.3-3.5-2.7-4.7L47.2,73c-0.8-2.1-1-5.2-1.2-9.1
	c0-0.6,0-1.2-0.1-1.8c0-0.5,0-1.1-0.1-1.7c-1,0.5-2,0.8-3.1,1c-1.9,0.3-4,0.2-6.2-0.3c-1.5-0.4-3.1-1.2-4-2.4
	c-2.6,2.3-5.2,2-6.5,1.5c-2.4-0.8-4.6-3.1-6.6-6.9c-1.5-2.8-2.9-6.3-4.2-10.7c-2.3-7.5-3.8-15.5-3.9-18.1c-0.4-8.1,1.8-14,6.5-17.3
	C25.2,1.9,36.5,5,40.7,6.5c2.8-1.7,6-2.5,9.7-2.4c2,0,3.9,0.2,5.6,0.5c1.8-0.6,5.4-1.4,9.6-1.3c7.6,0.1,13.9,3.1,18.2,8.6
	c3.1,3.9,1.6,12.2,0.4,16.8C82.5,35,79.6,41.8,76,47.8c1,0,2.4-0.1,4.4-0.5c3.9-0.8,5.1,1.3,5.4,2.2c1.3,3.8-4.2,6.7-5.9,7.5
	c-2.2,1-5.7,1.6-8.6,1.5l-0.1,0l-0.8-0.1L70.3,59l-0.1,0.6C70,67.2,68.9,72,66.7,75.1c-2.3,3.3-5.6,4.2-8.4,4.9
	C57.4,80.2,56.5,80.3,55.6,80.3z M49.8,52.8c1.8,1.4,1.9,4.1,2.1,9.1c0,0.6,0,1.2,0.1,1.8c0.1,1.7,0.2,5.6,0.8,7.2
	c0.1,0.2,0.2,0.5,0.2,0.7c0.7,2.1,1,3.1,4,2.5c2.5-0.5,3.7-1,4.7-2.4c1.4-2.1,2.3-6.2,2.4-12.3l3,0.1l-3-0.4l0.1-0.7
	c0.3-2.5,0.5-4.2,2.1-5.4c1.3-0.9,2.8-0.9,4-0.6c-1.3-1-1.7-2.2-1.8-2.6l-0.3-1.2l0.7-1c4.1-6,7.4-13.4,9.2-20.3
	c1.8-7.1,1.3-10.8,0.7-11.6c-7.4-9.4-20.2-5.5-21.5-5.1l-0.2,0.1l-1.1,0.2l-0.6-0.1c-1.6-0.3-3.4-0.5-5.3-0.5
	c-3-0.1-5.4,0.7-7.4,2.2l-1.4,1l-1.6-0.7c-3.4-1.4-13.4-4.2-18.7-0.5c-2.9,2.1-4.3,6.1-4,12.1c0.1,2,1.4,9.4,3.6,16.6
	c3,10,5.8,13.3,7,13.6c0.2,0.1,0.7-0.3,1.2-1c3.4-4.1,6.6-7.5,6.7-7.6l1.7-1.8l2.1,1.4c0.8,0.6,1.8,0.9,2.7,0.9l5-4.3l-0.7,7.4
	c0,0.2,0,0.4,0,0.8l0.2,1.4L46,52.9L45.9,53l2.8,1.3L49.8,52.8z"/>
<path id="path6" class="st0" d="M81,50.2C72.2,52,71.6,49,71.6,49c9.3-13.7,13.1-31.2,9.8-35.4C72.3,2,56.5,7.5,56.3,7.6l-0.1,0
	c-1.7-0.4-3.7-0.6-5.8-0.6c-4-0.1-7,1-9.3,2.8c0,0-28.1-11.6-26.8,14.6c0.3,5.6,8,42.1,17.2,31.1c3.4-4,6.6-7.4,6.6-7.4
	c1.6,1.1,3.5,1.6,5.6,1.4l0.2-0.1c0,0.5,0,1,0.1,1.6c-2.4,2.6-1.7,3.1-6.4,4.1c-4.8,1-2,2.7-0.1,3.2c2.2,0.6,7.4,1.3,10.8-3.5
	L48,55.2c0.9,0.7,1.6,4.8,1.5,8.5s-0.2,6.2,0.5,8.2c0.7,2,1.5,6.5,7.7,5.1c5.2-1.1,7.9-4,8.3-8.8c0.3-3.4,0.9-2.9,0.9-6l0.5-1.4
	c0.6-4.6,0.1-6.1,3.3-5.4l0.8,0.1c2.4,0.1,5.4-0.4,7.2-1.2C82.5,52.4,84.8,49.4,81,50.2z"/>
<path id="path8" class="st1" d="M55.9,78.4c-5.2,0-6.8-4.1-7.5-5.8c-1-2.5-1.2-12-1-19.8c0-0.6,0.5-1,1.1-0.9c0.5,0,0.9,0.5,0.9,1
	c-0.3,9,0.1,17.2,0.8,19c1.1,2.8,2.9,5.3,7.7,4.3c4.6-1,6.4-2.7,7.1-7.2c0.6-3.4,1.8-13.2,1.9-15.1c0-0.6,0.5-1,1.1-0.9
	c0.6,0,1,0.5,0.9,1.1l0,0c-0.2,2-1.3,11.7-1.9,15.3c-0.9,5.3-3.3,7.7-8.7,8.8C57.6,78.3,56.8,78.4,55.9,78.4z M27.9,58.4
	c-0.5,0-0.9-0.1-1.3-0.2c-3.4-1.1-6.6-6.6-9.5-16.3c-2.3-7.4-3.7-15.1-3.8-17.6c-0.4-7.4,1.5-12.7,5.7-15.6c8.2-5.8,22-0.3,22.5,0
	c0.5,0.2,0.8,0.8,0.5,1.3c-0.2,0.5-0.8,0.7-1.3,0.5v0c-0.1-0.1-13.3-5.3-20.6-0.2c-3.5,2.5-5.2,7.2-4.8,13.9
	c0.1,2.1,1.4,9.6,3.7,17.1c2.6,8.6,5.6,14.1,8.2,15c0.4,0.1,1.6,0.5,3.4-1.6c3.3-4,6.4-7.2,6.4-7.3c0.4-0.4,1-0.4,1.4,0
	c0.4,0.4,0.4,1,0,1.4c0,0-3,3.2-6.3,7.1C30.6,57.8,29.1,58.4,27.9,58.4z M71.5,49.9c-0.6,0-1-0.4-1-1c0-0.2,0.1-0.4,0.2-0.6
	c9.4-13.9,12.6-30.6,9.8-34.2C77,9.6,72,7.2,65.7,7.1c-4.7-0.1-8.4,1.1-9,1.3l-0.2,0.1c-0.6,0.2-1.1-0.1-1.3-0.5
	c-0.2-0.5,0-1,0.4-1.3l0.3-0.1l0,0l0,0c1-0.4,4.8-1.5,9.5-1.5c7,0.1,12.8,2.8,16.7,7.8c1.9,2.4,1.9,7.9,0,15
	c-1.9,7.3-5.4,15.2-9.8,21.6C72.2,49.8,71.9,49.9,71.5,49.9z M72,56.4c-1.6,0-3-0.2-3.9-0.7c-0.9-0.5-1-1.2-1.1-1.6
	c-0.2-4.2,2.1-5,3.3-5.3c-0.2-0.3-0.4-0.5-0.6-0.8C69,47,68.1,45.8,67.3,44c-0.1-0.3-0.5-0.9-0.9-1.7c-2.3-4-6.9-12.4-3.9-16.7
	c1.4-2,4.2-2.8,8.3-2.3c-1.2-3.7-6.9-15.1-20.5-15.3c-4.1-0.1-7.4,1.2-10,3.7c-5.6,5.7-5.4,16-5.4,16.1c0,0.6-0.4,1-1,1
	c-0.6,0-1-0.4-1-1c0-0.5-0.2-11.3,6-17.6c2.9-2.9,6.8-4.4,11.4-4.3c8.7,0.1,14.3,4.6,17.5,8.2c3.4,4,5.1,8.4,5.3,9.9
	c0.1,1.1-0.7,1.3-0.8,1.4l-0.4,0c-4-0.6-6.6-0.2-7.6,1.3c-2.3,3.3,2.1,11.2,4,14.6c0.5,0.9,0.8,1.5,1,1.9c0.6,1.5,1.4,2.5,2.1,3.3
	c0.6,0.7,1.1,1.3,1.2,2.1c0.1,0.1,1.3,1.9,8.2,0.4c1.7-0.4,2.8-0.1,3.1,0.9c0.6,1.9-2.9,4.1-4.8,5C77.2,55.8,74.4,56.4,72,56.4z
	 M69.1,53.8c0.2,0.2,1.3,0.6,3.6,0.5c2-0.1,4.2-0.5,5.5-1.1c1.6-0.8,2.7-1.6,3.3-2.2l-0.3,0.1c-4.4,0.9-7.6,0.8-9.3-0.4
	c-0.1-0.1-0.2-0.2-0.3-0.3c-0.2,0.1-0.4,0.1-0.5,0.2C70,50.9,68.9,51.2,69.1,53.8z M40.4,59.4c-1.1,0-2.3-0.1-3.4-0.4
	c-1.2-0.3-3.3-1.2-3.3-2.7c0-1.7,2.5-2.2,3.4-2.4c3.4-0.7,3.6-1,4.6-2.3c0.3-0.4,0.7-0.9,1.2-1.5c0.8-0.9,1.6-1.3,2.5-1.3
	c0.6,0,1.1,0.2,1.5,0.4c1.1,0.4,2,1.5,2.3,2.8c0.3,1.2,0.2,2.3-0.4,3.1C46.8,57.9,43.9,59.4,40.4,59.4z M35.9,56.3
	c0.3,0.2,0.9,0.5,1.6,0.7c1,0.3,2,0.4,3,0.4c2.9,0,5.2-1.2,6.8-3.5c0.3-0.5,0.2-1.1,0.2-1.4c-0.2-0.7-0.7-1.3-1.2-1.5
	c-0.3-0.1-0.5-0.2-0.7-0.2c-0.1,0-0.4,0-1,0.6c-0.5,0.5-0.8,1-1.1,1.4c-1.3,1.7-1.9,2.2-5.8,3C36.6,56,36.1,56.2,35.9,56.3
	L35.9,56.3z M43.6,51.7c-0.5,0-0.9-0.4-1-0.9c0-0.2,0-0.3,0-0.5c-2.6,0-5-1.1-6.9-3.1c-2.4-2.5-3.4-5.9-3-9.4c0.5-3.8,0.3-7.2,0.2-9
	c0-0.4,0-0.7,0-1.1c0-0.3,0-1.2,2.8-2.6c1-0.5,3-1.4,5.2-1.6c3.6-0.4,6,1.2,6.7,4.6c1.9,9,0.2,12.9-1.1,15.8c-0.2,0.5-0.5,1-0.7,1.5
	l-0.2,0.4c-0.7,1.8-1.3,3.4-1.1,4.6c0.1,0.5-0.3,1.1-0.8,1.1L43.6,51.7z M34.9,28.1l0,0.7c0.1,1.9,0.3,5.4-0.2,9.4
	c-0.4,2.9,0.5,5.7,2.4,7.7c1.5,1.6,3.6,2.5,5.6,2.5h0c0.2-1,0.6-2,1-3.1l0.2-0.4c0.2-0.6,0.4-1.1,0.7-1.7c1.3-2.8,2.8-6.3,1-14.6
	c-0.4-1.6-1.2-2.6-2.6-2.9C40.1,25,35.8,27.2,34.9,28.1z M40.9,27.6c0,0.4,0.7,1.3,1.6,1.4c0.9,0.1,1.7-0.6,1.7-1
	c0-0.4-0.7-0.7-1.6-0.9C41.8,27.1,41,27.3,40.9,27.6z M42.7,29.4l-0.3,0c-0.6-0.1-1.1-0.4-1.5-1c-0.1-0.2-0.4-0.5-0.3-0.9
	c0.1-0.5,0.6-0.7,1.5-0.7c0.2,0,0.4,0,0.6,0c0.5,0.1,0.9,0.2,1.3,0.4c0.6,0.3,0.6,0.7,0.6,0.9C44.5,28.7,43.7,29.4,42.7,29.4z
	 M41.3,27.7c0,0.2,0.6,0.9,1.3,1l0.2,0c0.7,0,1.1-0.5,1.2-0.7c-0.1-0.1-0.5-0.4-1.3-0.5c-0.2,0-0.3,0-0.5,0
	C41.6,27.5,41.3,27.6,41.3,27.7z M68.7,26.9c0,0.4-0.6,1.3-1.6,1.4c-0.9,0.1-1.7-0.6-1.7-1c0-0.4,0.7-0.7,1.6-0.9
	C67.9,26.4,68.7,26.6,68.7,26.9z M66.9,28.5c-0.9,0-1.6-0.7-1.7-1.1c-0.1-0.5,0.8-0.9,1.7-1.1c0.2,0,0.4,0,0.6,0
	c0.8,0,1.3,0.2,1.3,0.6c0,0.2-0.1,0.6-0.5,0.9c-0.2,0.2-0.6,0.6-1.2,0.7L66.9,28.5z M67.5,26.6c-0.2,0-0.4,0-0.5,0
	c-0.9,0.1-1.4,0.5-1.4,0.7c0,0.2,0.6,0.8,1.4,0.8l0.2,0c0.5-0.1,0.9-0.4,1-0.6c0.3-0.3,0.4-0.6,0.4-0.7
	C68.5,26.8,68.2,26.6,67.5,26.6z M70,47.3c-0.6,0-1-0.5-1-1c0-0.2,0.1-0.4,0.2-0.6c2.1-3.2,1.7-6.5,1.4-9.6
	c-0.2-1.3-0.3-2.7-0.3-4.1c0-1.4,0.2-2.5,0.4-3.6c0.2-1.3,0.4-2.5,0.3-4c0-0.6,0.4-1,1-1c0.5,0,1,0.4,1,0.9c0.1,1.7-0.1,3-0.3,4.4
	c-0.2,1-0.3,2.1-0.4,3.4c0,1.2,0.1,2.4,0.3,3.8c0.4,3.3,0.9,7.1-1.7,11C70.7,47.1,70.3,47.3,70,47.3z"/>
<g class="st2">
	<path d="M4.2,90.5V95H1.9V81.9h5.2c2.6,0,4.3,1.7,4.3,4.3c0,2.5-1.7,4.3-4.3,4.3H4.2z M4.2,83.9v4.5h2.4c1.6,0,2.4-0.8,2.4-2.3
		s-0.9-2.2-2.4-2.2H4.2z"/>
	<path d="M16.8,85.9c2.7,0,4.7,1.9,4.7,4.7s-2,4.7-4.7,4.7s-4.7-1.9-4.7-4.7S14,85.9,16.8,85.9z M16.8,93.2c1.5,0,2.5-1.1,2.5-2.7
		c0-1.6-1-2.7-2.5-2.7c-1.5,0-2.5,1.1-2.5,2.7C14.2,92.2,15.3,93.2,16.8,93.2z"/>
	<path d="M24.7,92.3c0,0.8,0.6,1.3,1.6,1.3c1,0,1.6-0.4,1.6-1.1c0-0.4-0.2-0.8-1-1l-1.6-0.4c-1.6-0.4-2.4-1.1-2.4-2.5
		c0-1.7,1.5-2.8,3.5-2.8c2,0,3.3,1.1,3.4,2.9h-2.1c0-0.8-0.5-1.2-1.4-1.2c-0.9,0-1.4,0.4-1.4,1.1c0,0.5,0.4,0.8,1.1,1l1.6,0.4
		c1.5,0.3,2.2,1,2.2,2.4c0,1.8-1.5,2.9-3.7,2.9c-2.2,0-3.6-1.2-3.6-2.9H24.7z"/>
	<path d="M32.4,95v-7h-1.7v-1.8h1.7v-2.8h2.2v2.8h1.7V88h-1.7v7H32.4z"/>
	<path d="M41.3,85.8c1.3,0,2.4,0.6,2.9,1.5l0.1-1.2h2v8.4c0,3-1.8,4.8-4.6,4.8c-2.5,0-4.3-1.5-4.6-3.8h2.2c0.1,1.1,1,1.8,2.4,1.8
		c1.5,0,2.5-1,2.5-2.4v-1.5c-0.6,0.8-1.6,1.3-2.9,1.3c-2.5,0-4.2-1.9-4.2-4.4C37.1,87.8,38.7,85.8,41.3,85.8z M41.6,92.9
		c1.5,0,2.4-1.1,2.4-2.6c0-1.5-0.9-2.5-2.4-2.5c-1.5,0-2.4,1.1-2.4,2.5C39.3,91.8,40.2,92.9,41.6,92.9z"/>
	<path d="M54.1,88.1h-0.8c-1.6,0-2.6,0.8-2.6,2.6V95h-2.2v-8.8h2.1l0.1,1.3c0.4-0.9,1.2-1.5,2.4-1.5c0.3,0,0.6,0,1,0.1V88.1z"/>
	<path d="M54.8,90.6c0-2.8,1.8-4.7,4.4-4.7c2.7,0,4.3,1.8,4.3,4.5v0.7l-6.7,0c0.2,1.6,1,2.3,2.4,2.3c1.2,0,2-0.5,2.2-1.3h2
		c-0.4,1.9-2,3.1-4.3,3.1C56.6,95.2,54.8,93.3,54.8,90.6z M56.9,89.7h4.4c0-1.2-0.8-2-2.2-2C57.9,87.7,57.1,88.4,56.9,89.7z"/>
</g>
<g class="st2">
	<path class="st0" d="M69.4,82.1c2.7,0,4.3,1.5,4.4,3.8h-2.3c-0.1-1.1-0.9-1.8-2.2-1.8c-1.4,0-2.3,0.7-2.3,1.8
		c0,0.9,0.5,1.5,1.6,1.7l2.1,0.4c2.2,0.5,3.3,1.6,3.3,3.6c0,2.4-1.9,4-4.8,4c-2.8,0-4.6-1.5-4.7-3.8h2.3c0,1.1,0.9,1.8,2.4,1.8
		c1.5,0,2.5-0.7,2.5-1.8c0-0.9-0.4-1.4-1.5-1.6l-2.1-0.5c-2.2-0.5-3.4-1.8-3.4-3.8C64.7,83.7,66.6,82.1,69.4,82.1z"/>
	<path class="st0" d="M84.9,94.8c-0.9,0.5-2,0.8-3.3,0.8c-3.7,0-6.3-2.8-6.3-6.8c0-4,2.6-6.8,6.3-6.8c3.7,0,6.4,2.8,6.4,6.8
		c0,1.9-0.6,3.5-1.6,4.7l1.4,1.6l-1.5,1.3L84.9,94.8z M81.6,84.3c-2.4,0-3.9,1.8-3.9,4.6s1.5,4.6,3.9,4.6c0.6,0,1.2-0.1,1.7-0.4
		l-1.7-2l1.5-1.3l1.7,2c0.5-0.8,0.8-1.7,0.8-2.9C85.6,86.1,84.1,84.3,81.6,84.3z"/>
	<path class="st0" d="M92.4,93.3h5.5v2.1h-7.8V82.3h2.3V93.3z"/>
</g>
</svg>
