<?xml version="1.0" encoding="utf-8"?>
<!-- Generator: Adobe Illustrator 24.1.3, SVG Export Plug-In . SVG Version: 6.00 Build 0)  -->
<svg version="1.1"
	 id="svg6" sodipodi:docname="prometheus.svg" xmlns:inkscape="http://www.inkscape.org/namespaces/inkscape" xmlns:sodipodi="http://sodipodi.sourceforge.net/DTD/sodipodi-0.dtd" xmlns:svg="http://www.w3.org/2000/svg"
	 xmlns="http://www.w3.org/2000/svg" xmlns:xlink="http://www.w3.org/1999/xlink" x="0px" y="0px" viewBox="0 0 100 100"
	 style="enable-background:new 0 0 100 100;" xml:space="preserve">
<style type="text/css">
	.st0{fill-rule:evenodd;clip-rule:evenodd;fill:#E75225;}
	.st1{enable-background:new    ;}
	.st2{fill:#9C9C9D;}
</style>
<sodipodi:namedview  bordercolor="#000000" borderopacity="0.25" id="namedview8" inkscape:deskcolor="#d1d1d1" inkscape:pagecheckerboard="0" inkscape:pageopacity="0.0" inkscape:showpageshadow="2" pagecolor="#ffffff" showgrid="false">
	</sodipodi:namedview>
<path id="path4" class="st0" d="M49.6,0c21.8,0,39.7,17.7,39.6,39.2c0,21.9-17.8,39.3-40.1,39.3c-21.7,0-39.4-17.7-39.4-39.6
	C9.8,17.5,27.7,0,49.6,0L49.6,0z M37.5,13.8c0.5,2.4,0,4.7-0.7,7c-0.5,1.6-1.2,3.1-1.6,4.6c-0.7,2.6-1.5,5.2-1.8,7.9
	c-0.4,3.8,1.1,7.2,3.7,10.5c-4.2-0.9-8-1.7-11.9-2.5c0,0.4,0,0.5,0,0.6c1.1,3.3,3.1,6.1,5.3,8.7c0.2,0.3,0.8,0.4,1.2,0.4
	c11.8,0,23.6,0,35.5,0c0.4,0,0.9-0.1,1.1-0.3c2.5-2.6,4.5-5.7,5.7-9.5c-4.3,0.9-8.5,1.6-12.6,2.4c0.8-1.6,1.8-3.1,2.3-4.6
	c1.8-5.3,1.1-10.5-1.6-15.4c-2.1-3.9-4.1-7.8-3-12.5c-2.3,2.2-3.1,5.1-3.7,8c-0.6,2.9-0.8,5.8-1.3,8.7c-0.1-0.1-0.1-0.1-0.1-0.2
	c-0.1-0.3-0.1-0.6-0.1-0.9c-0.3-4.8-1.2-9.4-3.2-13.8c-1.2-2.6-2.5-5.2-1.3-8.3c-0.8,0.4-1.6,0.9-2.1,1.5c-1.6,1.8-2.2,4-2.4,6.3
	c-0.1,2-0.4,4.1-0.7,6.1c-0.4,2.1-1,4.1-2.4,6.1C41.3,20.5,41.2,16.4,37.5,13.8z M68,54.7H30.9v6.4H68V54.7z M38.3,64.4
	c0,5.3,5.5,9.3,12.2,9c5.6-0.2,10.5-4.6,10.1-9H38.3z"/>
<g class="st1">
	<path class="st2" d="M3.1,90.5V95H0.8V81.8H6c2.7,0,4.4,1.7,4.4,4.3c0,2.5-1.7,4.3-4.4,4.3H3.1z M3.1,83.9v4.5h2.4
		c1.6,0,2.4-0.8,2.4-2.3s-0.9-2.2-2.4-2.2H3.1z"/>
	<path class="st2" d="M17.6,88.1h-0.8c-1.6,0-2.6,0.8-2.6,2.6V95H12v-8.9h2.1l0.1,1.3c0.4-0.9,1.2-1.5,2.4-1.5c0.3,0,0.6,0,1,0.1
		V88.1z"/>
	<path class="st2" d="M23,85.9c2.8,0,4.8,1.9,4.8,4.7s-2,4.7-4.8,4.7c-2.8,0-4.8-1.9-4.8-4.7S20.3,85.9,23,85.9z M23,93.3
		c1.5,0,2.6-1.1,2.6-2.7s-1-2.7-2.6-2.7c-1.5,0-2.6,1.1-2.6,2.7S21.5,93.3,23,93.3z"/>
	<path class="st2" d="M29.5,95v-8.9h2l0.2,1c0.5-0.7,1.4-1.3,2.6-1.3c1.4,0,2.3,0.7,2.8,1.7c0.5-1,1.5-1.7,2.9-1.7
		c2.2,0,3.4,1.3,3.4,3.4V95h-2.2v-5.3c0-1.3-0.7-2-1.7-2c-1.1,0-1.9,0.7-1.9,2.1V95h-2.2v-5.3c0-1.2-0.7-1.9-1.7-1.9
		s-1.9,0.7-1.9,2.1V95H29.5z"/>
	<path class="st2" d="M45,90.6c0-2.8,1.8-4.7,4.4-4.7c2.7,0,4.4,1.8,4.4,4.6v0.7l-6.7,0c0.2,1.6,1,2.4,2.5,2.4c1.2,0,2-0.5,2.3-1.3
		h2c-0.4,2-2,3.1-4.3,3.1C46.8,95.3,45,93.3,45,90.6z M47.1,89.7h4.5c0-1.2-0.8-2-2.2-2C48.1,87.7,47.4,88.4,47.1,89.7z"/>
	<path class="st2" d="M56.3,95V88h-1.7v-1.8h1.7v-2.8h2.2v2.8h1.7V88h-1.7V95H56.3z"/>
	<path class="st2" d="M61.6,95V81.6h2.2v5.7c0.6-0.9,1.6-1.4,2.9-1.4c2.2,0,3.4,1.4,3.4,3.7V95h-2.2v-5c0-1.5-0.7-2.2-1.9-2.2
		c-1.4,0-2.2,1-2.2,2.3V95H61.6z"/>
	<path class="st2" d="M71.7,90.6c0-2.8,1.8-4.7,4.4-4.7c2.7,0,4.4,1.8,4.4,4.6v0.7l-6.7,0c0.2,1.6,1,2.4,2.5,2.4
		c1.2,0,2-0.5,2.3-1.3h2c-0.4,2-2,3.1-4.3,3.1C73.6,95.3,71.7,93.3,71.7,90.6z M73.9,89.7h4.5c0-1.2-0.8-2-2.2-2
		C74.9,87.7,74.1,88.4,73.9,89.7z"/>
	<path class="st2" d="M90.5,86.1V95h-2l-0.2-1.2c-0.5,0.8-1.7,1.4-2.9,1.4c-2.1,0-3.3-1.4-3.3-3.6v-5.6h2.2v4.8
		c0,1.7,0.7,2.4,1.9,2.4c1.4,0,2.1-0.8,2.1-2.5v-4.7H90.5z"/>
	<path class="st2" d="M94,92.3c0,0.8,0.6,1.3,1.6,1.3c1,0,1.6-0.4,1.6-1.1c0-0.5-0.2-0.8-1-1l-1.6-0.4c-1.6-0.4-2.4-1.1-2.4-2.5
		c0-1.8,1.5-2.8,3.5-2.8c2,0,3.4,1.2,3.4,2.9H97c0-0.8-0.5-1.2-1.4-1.2c-0.9,0-1.4,0.4-1.4,1.1c0,0.5,0.4,0.8,1.2,1l1.6,0.4
		c1.5,0.3,2.3,1,2.3,2.4c0,1.8-1.5,2.9-3.7,2.9c-2.2,0-3.6-1.2-3.6-2.9H94z"/>
</g>
</svg>
