<?xml version="1.0" encoding="utf-8"?>
<!-- Generator: Adobe Illustrator 24.1.3, SVG Export Plug-In . SVG Version: 6.00 Build 0)  -->
<svg version="1.1"
	 id="svg23" sodipodi:docname="python.svg" xmlns:inkscape="http://www.inkscape.org/namespaces/inkscape" xmlns:sodipodi="http://sodipodi.sourceforge.net/DTD/sodipodi-0.dtd" xmlns:svg="http://www.w3.org/2000/svg"
	 xmlns="http://www.w3.org/2000/svg" xmlns:xlink="http://www.w3.org/1999/xlink" x="0px" y="0px" viewBox="0 0 100 100"
	 style="enable-background:new 0 0 100 100;" xml:space="preserve">
<style type="text/css">
	.st0{fill:url(#path12_1_);}
	.st1{fill:url(#path14_1_);}
	.st2{enable-background:new    ;}
	.st3{fill:#3A76A6;}
</style>
<sodipodi:namedview  bordercolor="#000000" borderopacity="0.25" id="namedview25" inkscape:deskcolor="#d1d1d1" inkscape:pagecheckerboard="0" inkscape:pageopacity="0.0" inkscape:showpageshadow="2" pagecolor="#ffffff" showgrid="false">
	</sodipodi:namedview>
<linearGradient id="path12_1_" gradientUnits="userSpaceOnUse" x1="1061.0874" y1="45.1604" x2="1161.4944" y2="131.5473" gradientTransform="matrix(0.3894 0 0 0.3929 -400.3581 -13.4791)">
	<stop  offset="0" style="stop-color:#5A9FD4"/>
	<stop  offset="1" style="stop-color:#306998"/>
</linearGradient>
<path id="path12" class="st0" d="M49.6,2.2c-2.9,0-5.7,0.3-8.2,0.7c-7.2,1.3-8.5,3.9-8.5,8.9v6.5H50v2.2H26.5c-5,0-9.3,3-10.7,8.7
	c-1.6,6.5-1.6,10.6,0,17.4c1.2,5.1,4.1,8.7,9.1,8.7h5.9v-7.8c0-5.6,4.9-10.6,10.7-10.6h17.1c4.7,0,8.5-3.9,8.5-8.7V11.8
	c0-4.6-3.9-8.1-8.5-8.9C55.5,2.4,52.5,2.2,49.6,2.2z M40.3,7.4c1.8,0,3.2,1.5,3.2,3.3c0,1.8-1.4,3.2-3.2,3.2c-1.8,0-3.2-1.5-3.2-3.2
	C37.1,8.9,38.6,7.4,40.3,7.4z"/>
<linearGradient id="path14_1_" gradientUnits="userSpaceOnUse" x1="1200.2566" y1="183.8374" x2="1164.4026" y2="133.1114" gradientTransform="matrix(0.3894 0 0 0.3929 -400.3581 -13.4791)">
	<stop  offset="0" style="stop-color:#FFD43B"/>
	<stop  offset="1" style="stop-color:#FFE873"/>
</linearGradient>
<path id="path14" class="st1" d="M69.1,20.5V28c0,5.9-5,10.8-10.7,10.8H41.4c-4.7,0-8.5,4-8.5,8.7v16.3c0,4.6,4,7.4,8.5,8.7
	c5.4,1.6,10.6,1.9,17.1,0c4.3-1.2,8.5-3.8,8.5-8.7v-6.5H50v-2.2h25.6c5,0,6.8-3.5,8.5-8.7c1.8-5.4,1.7-10.5,0-17.4
	c-1.2-4.9-3.6-8.7-8.5-8.7L69.1,20.5L69.1,20.5z M59.6,61.6c1.8,0,3.2,1.5,3.2,3.2c0,1.8-1.4,3.3-3.2,3.3c-1.8,0-3.2-1.5-3.2-3.3
	C56.3,63.1,57.8,61.6,59.6,61.6z"/>
<g class="st2">
	<path class="st3" d="M20.8,81.6h2.1l0.1,1.4c0.6-1.1,1.8-1.7,3.2-1.7c2.6,0,4.3,1.9,4.3,4.8c0,2.9-1.6,5-4.3,5
		c-1.4,0-2.6-0.5-3.2-1.5v5.5h-2.3V81.6z M25.7,89c1.6,0,2.6-1.2,2.6-2.8s-1-2.8-2.6-2.8c-1.6,0-2.6,1.2-2.6,2.8
		C23.1,87.9,24.2,89,25.7,89z"/>
	<path class="st3" d="M31.2,93.2h1.4c0.9,0,1.5-0.2,1.8-1.3l0.3-0.7L31,81.6h2.4l2.4,6.7l2.5-6.7h2.4l-4.5,11.3
		c-0.7,1.7-1.7,2.4-3.2,2.4c-0.6,0-1.2-0.1-1.7-0.2V93.2z"/>
	<path class="st3" d="M42.8,90.8v-7.3H41v-1.9h1.8v-2.9H45v2.9h1.8v1.9H45v7.3H42.8z"/>
	<path class="st3" d="M48.3,90.8V76.9h2.3v5.9c0.6-0.9,1.7-1.5,3-1.5c2.3,0,3.5,1.4,3.5,3.8v5.7h-2.3v-5.1c0-1.5-0.8-2.3-1.9-2.3
		c-1.4,0-2.3,1-2.3,2.4v5H48.3z"/>
	<path class="st3" d="M63.6,81.4c2.9,0,4.9,2,4.9,4.9s-2.1,4.9-4.9,4.9s-4.9-2-4.9-4.9S60.8,81.4,63.6,81.4z M63.6,89
		c1.6,0,2.7-1.1,2.7-2.8c0-1.7-1.1-2.8-2.7-2.8c-1.6,0-2.7,1.1-2.7,2.8C61,87.9,62.1,89,63.6,89z"/>
	<path class="st3" d="M70.4,90.8v-9.2h2.1l0.2,1.2c0.6-0.9,1.7-1.5,2.9-1.5c2.3,0,3.5,1.4,3.5,3.8v5.7h-2.3v-5.1
		c0-1.5-0.8-2.3-1.9-2.3c-1.4,0-2.3,1-2.3,2.5v5H70.4z"/>
</g>
</svg>
