<?xml version="1.0" encoding="utf-8"?>
<!-- Generator: Adobe Illustrator 24.1.3, SVG Export Plug-In . SVG Version: 6.00 Build 0)  -->
<svg version="1.1"
	 id="svg14" sodipodi:docname="raspberrypi.svg" xmlns:inkscape="http://www.inkscape.org/namespaces/inkscape" xmlns:sodipodi="http://sodipodi.sourceforge.net/DTD/sodipodi-0.dtd" xmlns:svg="http://www.w3.org/2000/svg"
	 xmlns="http://www.w3.org/2000/svg" xmlns:xlink="http://www.w3.org/1999/xlink" x="0px" y="0px" viewBox="0 0 100 100"
	 style="enable-background:new 0 0 100 100;" xml:space="preserve">
<style type="text/css">
	.st0{fill:#050606;}
	.st1{fill:#63C54D;}
	.st2{fill:#C51850;}
	.st3{enable-background:new    ;}
	.st4{fill:#231F20;}
</style>
<sodipodi:namedview  bordercolor="#000000" borderopacity="0.25" id="namedview16" inkscape:deskcolor="#d1d1d1" inkscape:pagecheckerboard="0" inkscape:pageopacity="0.0" inkscape:showpageshadow="2" pagecolor="#ffffff" showgrid="false">
	</sodipodi:namedview>
<path id="path2" class="st0" d="M9.2,37.6c-0.1,0-0.3,0-0.4,0.2c-0.4-0.1-0.7-0.2-1.1,0.1c-0.5-0.1-0.7,0.1-0.8,0.2
	c-0.1,0-0.8-0.1-1.2,0.4c-0.8-0.1-1.1,0.5-0.8,1c-0.2,0.3-0.3,0.5,0.1,1c-0.1,0.3-0.1,0.6,0.3,0.9c-0.1,0.4,0.1,0.7,0.4,0.9
	c-0.1,0.5,0.5,0.8,0.7,0.9c0.1,0.3,0.2,0.6,0.8,0.8c0.1,0.5,0.5,0.5,0.8,0.6c-1.2,0.7-2.3,1.6-2.2,3.8l-0.2,0.3
	c-1.4,0.8-2.6,3.5-0.7,5.7c0.1,0.7,0.3,1.2,0.5,1.7c0.3,2.2,2.1,3.2,2.6,3.3c0.7,0.5,1.5,1.1,2.5,1.4c1,1,2,1.4,3.1,1.4h0
	c1.1,0,2.1-0.4,3.1-1.4c1-0.4,1.8-0.9,2.5-1.4c0.5-0.1,2.4-1.1,2.6-3.3c0.2-0.5,0.4-1,0.5-1.7c2-2.2,0.7-4.8-0.7-5.7l-0.2-0.3
	c0-2.2-1-3.2-2.2-3.8c0.4-0.1,0.7-0.2,0.8-0.6c0.6-0.2,0.8-0.5,0.8-0.8c0.2-0.1,0.7-0.4,0.7-0.9c0.3-0.2,0.5-0.5,0.4-0.9
	c0.3-0.4,0.4-0.7,0.3-0.9c0.4-0.5,0.2-0.8,0.1-1c0.3-0.5,0-1.1-0.8-1c-0.3-0.5-1.1-0.4-1.2-0.4c-0.1-0.2-0.3-0.3-0.8-0.2
	c-0.3-0.3-0.7-0.2-1.1-0.1c-0.5-0.3-0.7-0.1-1.1,0c-0.5-0.2-0.7,0.1-0.9,0.2c-0.6-0.1-0.8,0.1-1.1,0.4l-0.3,0
	c-0.9,0.5-1.3,1.6-1.5,2.1c-0.2-0.5-0.6-1.6-1.5-2.1l-0.3,0c-0.3-0.3-0.5-0.6-1.1-0.4c-0.3-0.1-0.4-0.3-0.9-0.2
	C9.7,37.8,9.5,37.6,9.2,37.6L9.2,37.6"/>
<path id="path4" class="st1" d="M7.5,39.9c2.4,1.2,3.8,2.2,4.5,3c-0.4,1.5-2.4,1.6-3.2,1.6c0.2-0.1,0.3-0.2,0.3-0.3
	c-0.2-0.1-0.8,0-1.3-0.3c0.2,0,0.3-0.1,0.3-0.2c-0.4-0.1-0.9-0.3-1.2-0.5c0.1,0,0.3,0,0.5-0.1c-0.4-0.2-0.8-0.4-1.1-0.7
	c0.2,0,0.4,0,0.5-0.1c-0.3-0.2-0.6-0.4-0.9-0.7c0.3,0,0.4,0,0.5,0c-0.3-0.3-0.6-0.5-0.8-0.8c0.2,0.1,0.4,0.1,0.5,0
	c-0.1-0.2-0.5-0.3-0.7-0.8c0.2,0,0.5,0,0.5,0c-0.1-0.4-0.3-0.6-0.5-0.9c0.5,0,1.2,0,1.2,0l-0.3-0.3c0.5-0.1,0.9,0,1.3,0.1
	c0.2-0.1,0-0.3-0.2-0.4c0.4,0,0.7,0.1,1.1,0.3c0.2-0.2-0.1-0.3-0.2-0.5c0.6,0.1,0.9,0.3,1.1,0.4c0.2-0.2,0-0.3-0.1-0.5
	c0.5,0.2,0.7,0.4,0.9,0.6c0.1-0.1,0.2-0.2,0.1-0.5c0.3,0.2,0.6,0.4,0.7,0.6c0.2-0.1,0.1-0.3,0.1-0.5c0.3,0.3,0.5,0.6,0.8,0.8
	c0.1,0,0.1-0.2,0.1-0.4c0.8,0.8,1.9,2.7,0.3,3.5C11,41.4,9.3,40.6,7.5,39.9L7.5,39.9 M20.1,39.9c-2.4,1.2-3.8,2.2-4.5,3
	c0.4,1.5,2.4,1.6,3.2,1.6c-0.2-0.1-0.3-0.2-0.3-0.3c0.2-0.1,0.8,0,1.3-0.3c-0.2,0-0.3-0.1-0.3-0.2c0.4-0.1,0.9-0.3,1.2-0.5
	c-0.1,0-0.3,0-0.5-0.1c0.4-0.2,0.8-0.4,1.1-0.7c-0.2,0-0.4,0-0.5-0.1c0.3-0.2,0.6-0.4,0.9-0.7c-0.3,0-0.4,0-0.5,0
	c0.3-0.3,0.6-0.5,0.8-0.8c-0.2,0.1-0.4,0.1-0.5,0c0.1-0.2,0.5-0.3,0.7-0.8c-0.2,0-0.5,0-0.5,0c0.1-0.4,0.3-0.6,0.5-0.9
	c-0.5,0-1.2,0-1.2,0l0.3-0.3c-0.5-0.1-0.9,0-1.3,0.1c-0.2-0.1,0-0.3,0.2-0.4c-0.4,0.1-0.7,0.1-1.1,0.3c-0.2-0.2,0.1-0.3,0.2-0.5
	c-0.6,0.1-0.9,0.3-1.1,0.4c-0.2-0.2,0-0.3,0.1-0.5c-0.5,0.2-0.7,0.4-0.9,0.6c-0.1-0.1-0.2-0.2-0.1-0.5c-0.3,0.2-0.5,0.4-0.7,0.6
	c-0.2-0.1-0.1-0.3-0.1-0.5c-0.3,0.3-0.5,0.6-0.8,0.8c-0.1,0-0.1-0.2-0.1-0.4c-0.8,0.8-1.9,2.7-0.3,3.5
	C16.5,41.4,18.2,40.6,20.1,39.9"/>
<path id="path6" class="st2" d="M16.6,55.6c0,1.4-1.3,2.6-2.8,2.6c-1.6,0-2.9-1.1-2.9-2.6v0c0-1.4,1.3-2.6,2.8-2.6
	C15.4,52.9,16.6,54.1,16.6,55.6L16.6,55.6 M12.2,48.2c1.2,0.8,1.4,2.5,0.5,3.9c-0.9,1.4-2.6,1.9-3.8,1.1c-1.2-0.8-1.4-2.5-0.5-3.9
	C9.3,47.9,11,47.4,12.2,48.2 M15.4,48c-1.2,0.8-1.4,2.5-0.5,3.9c0.9,1.4,2.6,1.9,3.8,1.1c1.2-0.8,1.4-2.5,0.5-3.9
	C18.3,47.7,16.6,47.3,15.4,48 M6.4,49.4c1.3-0.3,0.4,5.2-0.6,4.7C4.6,53.2,4.2,50.6,6.4,49.4 M21.1,49.3c-1.3-0.3-0.4,5.2,0.6,4.7
	C22.9,53.2,23.2,50.5,21.1,49.3 M16.8,45.2c2.2-0.4,4,0.9,4,3.3C20.7,49.4,16,45.3,16.8,45.2 M10.7,45.1c-2.2-0.4-4,0.9-4,3.3
	C6.9,49.3,11.6,45.3,10.7,45.1 M13.8,44.6c-1.3,0-2.6,1-2.6,1.5c0,0.7,1,1.4,2.6,1.4c1.6,0,2.6-0.6,2.6-1.3
	C16.4,45.4,14.9,44.6,13.8,44.6 M13.9,59c1.1,0,2.7,0.4,2.7,0.9c0,0.5-1.4,1.7-2.8,1.7C12.4,61.6,11,60.4,11,60
	C11,59.4,12.7,58.9,13.9,59 M9.6,55.7c0.8,1,1.2,2.7,0.5,3.2c-0.6,0.4-2.2,0.2-3.3-1.3c-0.8-1.3-0.7-2.7-0.1-3.1
	C7.5,54,8.7,54.6,9.6,55.7 M17.9,55.4c-0.9,1-1.4,2.9-0.7,3.5c0.6,0.5,2.3,0.4,3.5-1.3c0.9-1.1,0.6-3,0.1-3.5
	C19.9,53.6,18.9,54.3,17.9,55.4"/>
<g class="st3">
	<path class="st4" d="M25.5,55.6v-8.4h3.2c1.9,0,3,1,3,2.6c0,1.1-0.5,1.9-1.5,2.3l1.6,3.4h-1.6l-1.4-3.1H27v3.1H25.5z M27,51.2h1.7
		c0.9,0,1.5-0.5,1.5-1.3c0-0.8-0.6-1.3-1.5-1.3H27V51.2z"/>
	<path class="st4" d="M32.5,54c0-1,0.8-1.7,2.1-1.8l1.7-0.1v-0.1c0-0.8-0.5-1.1-1.2-1.1c-0.8,0-1.3,0.3-1.3,0.9h-1.2
		c0-1.2,1-2,2.5-2c1.5,0,2.5,0.8,2.5,2.4v3.4h-1.2l-0.1-0.8c-0.2,0.6-1,1-1.9,1C33.3,55.7,32.5,55,32.5,54z M36.4,53.3V53l-1.2,0.1
		c-0.9,0.1-1.2,0.4-1.2,0.8c0,0.5,0.3,0.8,1,0.8C35.8,54.7,36.4,54.2,36.4,53.3z"/>
	<path class="st4" d="M40,53.9c0,0.5,0.4,0.8,1,0.8c0.7,0,1-0.3,1-0.7c0-0.3-0.1-0.5-0.7-0.6l-1-0.2c-1-0.2-1.5-0.7-1.5-1.6
		c0-1.1,0.9-1.8,2.2-1.8c1.3,0,2.1,0.7,2.1,1.8h-1.3c0-0.5-0.3-0.8-0.9-0.8c-0.6,0-0.9,0.3-0.9,0.7c0,0.3,0.3,0.5,0.7,0.6l1,0.2
		c1,0.2,1.4,0.7,1.4,1.5c0,1.1-1,1.9-2.4,1.9c-1.4,0-2.3-0.8-2.3-1.9H40z"/>
	<path class="st4" d="M44.4,49.9h1.3l0.1,0.9c0.3-0.7,1.1-1,2-1c1.6,0,2.7,1.2,2.7,2.9c0,1.8-1,3.1-2.7,3.1c-0.8,0-1.6-0.3-1.9-0.9
		v3.4h-1.4V49.9z M47.4,54.5c1,0,1.6-0.7,1.6-1.7S48.4,51,47.4,51c-1,0-1.6,0.7-1.6,1.7S46.4,54.5,47.4,54.5z"/>
	<path class="st4" d="M51.5,55.6v-8.5h1.4v3.7c0.4-0.6,1.1-1,2-1c1.6,0,2.6,1.3,2.6,3.1c0,1.7-1.1,2.9-2.7,2.9c-0.8,0-1.6-0.4-1.9-1
		l-0.1,0.9H51.5z M54.5,54.5c1,0,1.6-0.7,1.6-1.7S55.5,51,54.5,51c-1,0-1.6,0.7-1.6,1.7S53.5,54.5,54.5,54.5z"/>
	<path class="st4" d="M58.3,52.8c0-1.8,1.2-3,2.8-3c1.7,0,2.8,1.1,2.8,2.9v0.4l-4.3,0c0.1,1,0.6,1.5,1.6,1.5c0.8,0,1.3-0.3,1.4-0.8
		h1.3c-0.2,1.2-1.3,2-2.8,2C59.5,55.7,58.3,54.5,58.3,52.8z M59.6,52.2h2.8c0-0.8-0.5-1.3-1.4-1.3C60.3,50.9,59.8,51.4,59.6,52.2z"
		/>
	<path class="st4" d="M68.6,51.2H68c-1,0-1.6,0.5-1.6,1.6v2.8H65v-5.7h1.3l0.1,0.8c0.2-0.6,0.8-0.9,1.5-0.9c0.2,0,0.4,0,0.6,0.1
		V51.2z"/>
	<path class="st4" d="M73.1,51.2h-0.5c-1,0-1.6,0.5-1.6,1.6v2.8h-1.4v-5.7h1.3l0.1,0.8c0.2-0.6,0.8-0.9,1.5-0.9c0.2,0,0.4,0,0.6,0.1
		V51.2z"/>
	<path class="st4" d="M73.7,57.1h0.8c0.6,0,0.9-0.1,1.1-0.8l0.2-0.4l-2.3-5.9H75l1.5,4.1l1.5-4.1h1.4l-2.8,6.9c-0.4,1.1-1,1.5-2,1.5
		c-0.4,0-0.7,0-1-0.1V57.1z"/>
	<path class="st4" d="M85,52.7v2.9h-1.5v-8.4h3.3c1.7,0,2.8,1.1,2.8,2.7c0,1.6-1.1,2.8-2.8,2.8H85z M85,48.5v2.9h1.5
		c1,0,1.5-0.5,1.5-1.5s-0.6-1.4-1.5-1.4H85z"/>
	<path class="st4" d="M90.5,47.9c0-0.5,0.4-0.8,0.9-0.8c0.5,0,0.8,0.4,0.8,0.8c0,0.5-0.4,0.8-0.8,0.8C90.9,48.8,90.5,48.4,90.5,47.9
		z M90.7,49.9h1.4v5.7h-1.4V49.9z"/>
	<path class="st4" d="M93.3,49.5c0-1.4,1.1-2.4,2.5-2.4s2.4,1,2.4,2.4s-1,2.4-2.4,2.4C94.3,51.9,93.3,50.9,93.3,49.5z M97.7,49.5
		c0-1.1-0.8-2-2-2c-1.1,0-2,0.8-2,2s0.8,2,2,2C96.9,51.5,97.7,50.6,97.7,49.5z M94.8,50.8v-2.7h1.1c0.6,0,1,0.3,1,0.8
		c0,0.4-0.2,0.7-0.6,0.8l0.6,1.1h-0.5l-0.5-1h-0.7v1H94.8z M95.8,48.5h-0.6v0.9h0.6c0.3,0,0.5-0.2,0.5-0.5
		C96.4,48.7,96.2,48.5,95.8,48.5z"/>
</g>
</svg>
