<?xml version="1.0" encoding="utf-8"?>
<!-- Generator: Adobe Illustrator 24.1.3, SVG Export Plug-In . SVG Version: 6.00 Build 0)  -->
<svg version="1.1"
	 id="svg8" xmlns:inkscape="http://www.inkscape.org/namespaces/inkscape" xmlns:sodipodi="http://sodipodi.sourceforge.net/DTD/sodipodi-0.dtd" xmlns:svg="http://www.w3.org/2000/svg"
	 xmlns="http://www.w3.org/2000/svg" xmlns:xlink="http://www.w3.org/1999/xlink" x="0px" y="0px" viewBox="0 0 100 100"
	 style="enable-background:new 0 0 100 100;" xml:space="preserve">
<style type="text/css">
	.st0{fill:#61DAFB;}
	.st1{enable-background:new    ;}
</style>
<sodipodi:namedview  bordercolor="#000000" borderopacity="0.25" id="namedview10" inkscape:current-layer="svg8" inkscape:cx="46.320869" inkscape:cy="59.589867" inkscape:deskcolor="#d1d1d1" inkscape:pagecheckerboard="0" inkscape:pageopacity="0.0" inkscape:showpageshadow="2" inkscape:window-height="1009" inkscape:window-maximized="1" inkscape:window-width="1920" inkscape:window-x="-8" inkscape:window-y="-8" inkscape:zoom="8.29" pagecolor="#ffffff" showgrid="false">
	</sodipodi:namedview>
<g id="g6" transform="matrix(1.1057939,0,0,1.1057939,-6.7708067,-0.99131797)">
	<circle id="circle2" class="st0" cx="51.3" cy="37.3" r="7.3"/>
	
		<path id="path4" sodipodi:nodetypes="csccccsccccscsccccscccccccsccccccccccscccccscccccsccccccccccccccsccccccsccccscccccscsccccsccccccsccccccccscc" class="st0" d="
		M51.3,64c5.7,5.5,11.3,8.8,15.9,8.8c1.5,0,2.9-0.3,4.1-1c4.1-2.3,5.5-8.2,4.1-16.6c-0.2-1.5-0.5-3-0.9-4.5c1.6-0.5,3-0.9,4.4-1.4
		c7.9-3,12.3-7.3,12.3-11.9c0-4.7-4.4-8.9-12.3-11.9c-1.4-0.5-2.8-1-4.4-1.4c0.4-1.6,0.7-3,0.9-4.5c1.3-8.5-0.2-14.5-4.2-16.8
		c-1.2-0.7-2.6-1-4.1-1c-4.5,0-10.2,3.3-15.9,8.8C45.6,5.1,40,1.8,35.5,1.8c-1.5,0-2.9,0.3-4.1,1c-4.1,2.3-5.5,8.2-4.1,16.6
		c0.2,1.5,0.5,3,0.9,4.5c-1.6,0.5-3,0.9-4.4,1.4c-7.9,3-12.3,7.3-12.3,11.9c0,4.7,4.4,8.9,12.3,11.9c1.4,0.5,2.8,1,4.4,1.4
		c-0.4,1.6-0.7,3-0.9,4.5c-1.3,8.4,0.2,14.3,4.1,16.6c1.2,0.7,2.6,1,4.1,1C40,72.8,45.6,69.5,51.3,64L51.3,64z M47,53.5
		c1.4,0.1,2.9,0.1,4.4,0.1c1.5,0,3,0,4.4-0.1c-1.4,1.9-2.9,3.6-4.4,5.2C49.9,57.1,48.4,55.4,47,53.5z M37.3,45.4
		c0.8,1.3,1.5,2.6,2.3,3.8c-2.4-0.3-4.7-0.7-6.9-1.2c0.7-2.1,1.5-4.3,2.4-6.5C35.8,42.9,36.5,44.2,37.3,45.4z M32.7,26.6
		c2.2-0.5,4.5-0.9,6.9-1.2c-0.8,1.3-1.6,2.5-2.3,3.8c-0.8,1.3-1.5,2.6-2.1,3.9C34.2,30.9,33.4,28.7,32.7,26.6z M37,37.3
		c1-2.1,2.1-4.2,3.4-6.3c1.2-2,2.5-4.1,3.8-6.1c2.3-0.2,4.7-0.2,7.1-0.2c2.5,0,4.8,0.1,7.1,0.2c1.4,2,2.7,4.1,3.8,6.1
		c1.3,2.1,2.3,4.2,3.4,6.3c-1,2.1-2.1,4.2-3.4,6.3c-1.2,2-2.5,4.1-3.8,6.1c-2.3,0.2-4.7,0.2-7.1,0.2c-2.5,0-4.8-0.1-7.1-0.2
		c-1.4-2-2.7-4.1-3.8-6.1C39.2,41.5,38.1,39.4,37,37.3z M67.6,33.1l-2.1-3.9c-0.8-1.3-1.5-2.6-2.3-3.8c2.4,0.3,4.7,0.7,6.9,1.2
		C69.3,28.7,68.5,30.9,67.6,33.1z M67.6,41.5c0.9,2.2,1.7,4.4,2.4,6.5c-2.2,0.5-4.5,0.9-6.9,1.2c0.8-1.2,1.6-2.5,2.3-3.8
		C66.2,44.2,66.9,42.9,67.6,41.5z M69.4,68.6c-0.6,0.4-1.4,0.5-2.3,0.5c-3.8,0-8.6-3.1-13.3-7.8c2.3-2.4,4.5-5.2,6.6-8.2
		c3.7-0.3,7.2-0.9,10.5-1.6c0.4,1.4,0.6,2.8,0.9,4.2C72.9,62.4,72,67.1,69.4,68.6z M73.4,27.5c8.8,2.5,14,6.3,14,9.8
		c0,3-3.6,6.1-9.9,8.5c-1.3,0.5-2.7,0.9-4.1,1.3c-1-3.2-2.3-6.5-3.8-9.8C71.2,33.9,72.5,30.7,73.4,27.5z M67.2,5.4
		c0.9,0,1.6,0.2,2.3,0.5c2.6,1.5,3.5,6.2,2.4,12.9c-0.2,1.3-0.5,2.7-0.9,4.2c-3.3-0.7-6.8-1.3-10.5-1.6c-2.1-3-4.4-5.8-6.6-8.2
		C58.6,8.6,63.4,5.4,67.2,5.4z M55.7,21.1c-1.4-0.1-2.9-0.1-4.4-0.1c-1.5,0-3,0-4.4,0.1c1.4-1.9,2.9-3.6,4.4-5.2
		C52.8,17.5,54.3,19.3,55.7,21.1z M33.3,6c0.6-0.4,1.4-0.5,2.3-0.5c3.8,0,8.6,3.1,13.3,7.8c-2.3,2.4-4.5,5.2-6.6,8.2
		c-3.7,0.3-7.2,0.9-10.5,1.6c-0.4-1.4-0.6-2.8-0.9-4.2C29.8,12.2,30.6,7.5,33.3,6z M29.2,47.1c-8.8-2.5-14-6.3-14-9.8
		c0-3,3.6-6.1,9.9-8.5c1.3-0.5,2.7-0.9,4.1-1.3c1,3.2,2.3,6.5,3.8,9.8C31.5,40.7,30.2,44,29.2,47.1z M30.9,55.7
		c0.2-1.3,0.5-2.7,0.9-4.2c3.3,0.7,6.8,1.3,10.5,1.6c2.1,3,4.4,5.8,6.6,8.2c-4.7,4.6-9.5,7.8-13.3,7.8c-0.9,0-1.6-0.2-2.3-0.5
		C30.6,67.1,29.8,62.4,30.9,55.7z"/>
</g>
<g class="st1">
	<path class="st0" d="M0.4,96V83.4h4.8c2.9,0,4.5,1.5,4.5,3.9c0,1.7-0.8,2.9-2.3,3.5L9.9,96H7.5l-2.1-4.7H2.6V96H0.4z M2.6,89.3h2.6
		c1.4,0,2.2-0.7,2.2-2c0-1.3-0.8-2-2.2-2H2.6V89.3z"/>
	<path class="st0" d="M10.6,91.7c0-2.7,1.7-4.5,4.2-4.5c2.6,0,4.2,1.7,4.2,4.4v0.6l-6.4,0c0.2,1.5,1,2.3,2.3,2.3
		c1.2,0,1.9-0.4,2.2-1.3h2c-0.4,1.9-1.9,3-4.1,3C12.4,96.2,10.6,94.4,10.6,91.7z M12.6,90.9h4.3c0-1.2-0.8-2-2.1-2
		C13.6,88.9,12.8,89.6,12.6,90.9z"/>
	<path class="st0" d="M20.2,93.6c0-1.6,1.1-2.6,3.2-2.7l2.6-0.2v-0.2c0-1.2-0.7-1.6-1.8-1.6c-1.2,0-1.9,0.5-1.9,1.4h-1.8
		c0-1.8,1.5-3.1,3.8-3.1c2.3,0,3.7,1.2,3.7,3.6V96h-1.8L26,94.7c-0.4,0.9-1.5,1.5-2.9,1.5C21.4,96.2,20.2,95.2,20.2,93.6z M26,92.5
		v-0.4l-1.8,0.1c-1.3,0.1-1.8,0.6-1.8,1.2c0,0.8,0.5,1.2,1.5,1.2C25.2,94.6,26,93.9,26,92.5z"/>
	<path class="st0" d="M33.9,87.2c2.3,0,3.9,1.3,4.1,3.4h-2.1c-0.2-1-1-1.5-2-1.5c-1.3,0-2.2,1-2.2,2.6s0.8,2.6,2.2,2.6
		c1.1,0,1.8-0.5,2-1.5H38c-0.3,2-1.9,3.4-4.1,3.4c-2.6,0-4.3-1.8-4.3-4.5C29.6,89.1,31.3,87.2,33.9,87.2z"/>
	<path class="st0" d="M40.4,96v-6.8h-1.6v-1.8h1.6v-2.7h2.1v2.7h1.7v1.8h-1.7V96H40.4z"/>
	<path class="st0" d="M50.4,96V83.4h2.2l5.9,8.9v-8.9h2.2V96h-2.2l-5.9-8.9V96H50.4z"/>
	<path class="st0" d="M62.9,93.6c0-1.6,1.1-2.6,3.2-2.7l2.6-0.2v-0.2c0-1.2-0.7-1.6-1.8-1.6c-1.2,0-1.9,0.5-1.9,1.4h-1.8
		c0-1.8,1.5-3.1,3.8-3.1c2.3,0,3.7,1.2,3.7,3.6V96h-1.8l-0.2-1.3c-0.4,0.9-1.5,1.5-2.9,1.5C64,96.2,62.9,95.2,62.9,93.6z M68.6,92.5
		v-0.4l-1.8,0.1c-1.3,0.1-1.8,0.6-1.8,1.2c0,0.8,0.5,1.2,1.5,1.2C67.8,94.6,68.6,93.9,68.6,92.5z"/>
	<path class="st0" d="M73.4,96v-6.8h-1.6v-1.8h1.6v-2.7h2.1v2.7h1.7v1.8h-1.7V96H73.4z"/>
	<path class="st0" d="M78.2,84.5c0-0.7,0.6-1.3,1.3-1.3c0.7,0,1.3,0.6,1.3,1.3s-0.6,1.3-1.3,1.3C78.8,85.8,78.2,85.2,78.2,84.5z
		 M78.5,87.5h2.1V96h-2.1V87.5z"/>
	<path class="st0" d="M81.8,87.5H84l1.5,3.9c0.4,1,0.7,1.9,0.8,2.4c0.1-0.5,0.4-1.4,0.8-2.4l1.6-3.9h2.2L87.2,96h-2.1L81.8,87.5z"/>
	<path class="st0" d="M91.1,91.7c0-2.7,1.7-4.5,4.3-4.5c2.6,0,4.2,1.7,4.2,4.4v0.6l-6.4,0c0.2,1.5,1,2.3,2.3,2.3
		c1.2,0,1.9-0.4,2.2-1.3h2c-0.4,1.9-1.9,3-4.1,3C92.9,96.2,91.1,94.4,91.1,91.7z M93.1,90.9h4.3c0-1.2-0.8-2-2.1-2
		C94.1,88.9,93.4,89.6,93.1,90.9z"/>
</g>
</svg>
