<?xml version="1.0" encoding="utf-8"?>
<!-- Generator: Adobe Illustrator 24.1.3, SVG Export Plug-In . SVG Version: 6.00 Build 0)  -->
<svg version="1.1"
	 id="svg10" sodipodi:docname="redhat.svg" xmlns:inkscape="http://www.inkscape.org/namespaces/inkscape" xmlns:sodipodi="http://sodipodi.sourceforge.net/DTD/sodipodi-0.dtd" xmlns:svg="http://www.w3.org/2000/svg"
	 xmlns="http://www.w3.org/2000/svg" xmlns:xlink="http://www.w3.org/1999/xlink" x="0px" y="0px" viewBox="0 0 100 100"
	 style="enable-background:new 0 0 100 100;" xml:space="preserve">
<style type="text/css">
	.st0{fill:#FFFFFF;}
	.st1{fill:#E93442;}
	.st2{enable-background:new    ;}
</style>
<sodipodi:namedview  bordercolor="#000000" borderopacity="0.25" id="namedview12" inkscape:deskcolor="#d1d1d1" inkscape:pagecheckerboard="0" inkscape:pageopacity="0.0" inkscape:showpageshadow="2" pagecolor="#ffffff" showgrid="false">
	</sodipodi:namedview>
<path id="path2" class="st0" d="M79.1,54.5c-1.3-0.3-2.7-0.5-4.1-0.5c-2.4,0-4.7,0.4-6.3,1.1c-0.2,0.1-0.3,0.3-0.3,0.5
	c0,0.1,0,0.2,0.1,0.2c0.2,0.5-0.2,1.2-1.7,1.5c-2.3,0.5-3.8,3-4.7,3.8c-1,0.9-3.8,1.6-3.4,0.9c0.3-0.5,1.6-1.8,2.3-3.3
	c0.7-1.3,1.3-1.7,2.2-3c0.2-0.4,1.2-1.7,1.5-2.7c0.3-1,0.2-2.3,0.3-2.8c0.2-0.8,0.9-2.4,0.9-3.3c0-0.5-2.2,0.8-3.2,0.8
	c-1,0-2.1-0.6-3-0.7c-1.2-0.1-1.9,0.9-3,0.7c-0.6-0.1-1.1-0.6-2.2-0.6C53,47,51.2,48,47.7,47.8c-3.4-0.1-6.5-4.3-6.9-4.9
	c-0.5-0.8-1.1-0.8-1.8-0.2c-0.6,0.6-1.5,0.2-1.7-0.3c-0.5-0.8-1.6-3-3.4-3.5c-2.5-0.6-3.8,1.4-3.7,3c0.2,1.6,1.2,2.1,1.7,3
	c0.5,0.9,0.8,1.5,1.7,1.9c0.7,0.3,0.9,0.7,0.7,1.3c-0.2,0.5-0.9,0.5-1.3,0.6c-0.9,0.1-1.6-0.2-2.1-0.5c-0.5-0.4-1-0.9-1.6-1.7
	c-0.5-0.9-1.5-1.3-2.6-1.3c-0.5,0-1,0.2-1.4,0.3c-1.6,0.9-3.7,1.4-5.8,1.4h-2.4C21.8,60.5,34.8,70.3,50,70.3
	C62.2,70.3,72.9,64,79.1,54.5"/>
<path id="path4" d="M79.1,54.5c-1.3-0.3-2.7-0.5-4.1-0.5c-2.4,0-4.7,0.4-6.3,1.1c-0.2,0.1-0.3,0.3-0.3,0.5c0,0.1,0,0.2,0.1,0.2
	c0.2,0.5-0.2,1.2-1.7,1.6c-2.3,0.5-3.8,3-4.7,3.8c-1,0.9-3.8,1.6-3.4,0.9c0.3-0.5,1.6-1.8,2.3-3.3c0.7-1.3,1.3-1.7,2.2-3
	c0.2-0.4,1.2-1.7,1.5-2.7c0.3-1,0.2-2.3,0.3-2.8c0.2-0.8,0.9-2.4,0.9-3.3c0-0.5-2.2,0.8-3.2,0.8c-1,0-2.1-0.6-3-0.7
	c-1.2-0.1-1.9,0.9-3,0.7c-0.6-0.1-1.1-0.6-2.2-0.6c-1.5-0.1-3.3,0.9-6.7,0.7c-3.4-0.1-6.5-4.2-6.9-4.9c-0.5-0.8-1.1-0.8-1.8-0.2
	c-0.6,0.6-1.5,0.2-1.7-0.3c-0.5-0.8-1.6-3-3.4-3.5c-2.5-0.6-3.8,1.4-3.7,3c0.2,1.6,1.2,2.1,1.7,3c0.5,0.9,0.8,1.5,1.7,1.9
	c0.7,0.3,0.9,0.7,0.7,1.2c-0.2,0.5-0.9,0.5-1.3,0.6c-0.9,0.1-1.6-0.2-2.1-0.5c-0.5-0.4-1-0.9-1.6-1.7c-0.5-0.9-1.5-1.3-2.6-1.3
	c-0.5,0-1,0.2-1.4,0.3c-1.6,0.9-3.7,1.4-5.8,1.4h-2.4c-1.2-3.4-1.8-7.2-1.8-11C15.4,16.6,30.9,1.2,50,1.2s34.6,15.5,34.6,34.6
	C84.6,42.7,82.6,49.1,79.1,54.5 M57.7,51.3c0.2,0.2,0.5,0.8,0.1,1.5c-0.2,0.4-0.5,0.7-0.9,1c-0.5,0.4-1.4,0.9-2.7,0
	c-0.7-0.5-0.8-0.6-1.7-0.5c-0.7,0.1-0.9-0.6-0.7-1.2c0.2-0.5,1.3-1,2.6-0.3c0.5,0.3,1.5,1,2.3,0.4c0.3-0.2,0.5-0.4,0.9-0.9
	L57.7,51.3"/>
<path id="path6" class="st1" d="M47.3,17.6c-4,0.3-4.4,0.7-5.2,1.5c-1,1.1-2.4-1.5-2.4-1.5c-0.9-0.2-1.9-1.5-1.3-2.8
	c0.5-1.3,1.6-0.9,1.9-0.5c0.3,0.5,1.1,1.3,2.2,1.3c1,0,2.3-0.2,4-0.2c1.7,0,2.9,0.6,2.9,1.2C49.4,17,49.2,17.5,47.3,17.6 M51.5,11
	c-0.1,0-0.2-0.1-0.2-0.1c0-0.1,0-0.1,0.1-0.1c0.8-0.4,2-0.7,3.3-0.9c0.4-0.1,0.8-0.1,1.2-0.1h0.2c2.2,0.1,4,0.9,4,2
	s-1.9,1.8-4.1,1.8c-0.7,0-1.4-0.2-2-0.3c-0.1,0-0.2-0.1-0.2-0.2S54,13,54.1,13c1.4-0.3,2.3-0.9,2.3-1.3c-0.1-0.6-1.9-1-4.1-0.8
	C52,10.9,51.7,10.9,51.5,11 M69.5,26.5c-0.3,1.2-0.9,2.6-3,3.7c-0.3,0.2-0.5-0.1-0.3-0.3c0.8-1.4,0.9-1.7,1.2-2.3
	c0.3-0.8,0.5-2-0.2-4.3c-1.3-4.7-4-10.9-6-13c-1.9-2-5.3-2.6-8.4-1.8c-1.2,0.3-3.4,1.5-7.6,0.5c-7.2-1.6-8.3,2-8.7,3.6
	c-0.4,1.6-1.4,6-1.4,6c-0.3,1.8-0.8,5,10.5,7.1c5.2,1,5.5,2.3,5.7,3.3c0.4,1.7,1.1,2.7,1.8,3.2c0.8,0.5,0,0.9-0.9,1
	c-2.2,0.2-10.4-2.1-15.2-4.8c-4-2.4-4.1-4.6-3.1-6.5c-6-0.6-10.5,0.5-11.3,3.4c-1.4,4.8,10.7,13.2,24.5,17.3
	c14.5,4.4,29.4,1.3,31-7.8C78.9,30.9,75.4,27.8,69.5,26.5"/>
<g class="st2">
	<path d="M13.9,82.5h-1.5c-2.9,0-4.7,1.5-4.7,4.7v7.9h-4V78.8h3.8l0.2,2.4c0.7-1.6,2.2-2.7,4.4-2.7c0.6,0,1.1,0.1,1.8,0.2V82.5z"/>
	<path d="M15.1,86.9c0-5.1,3.3-8.6,8.1-8.6c4.9,0,8,3.3,8,8.3v1.2l-12.3,0c0.3,2.9,1.8,4.3,4.5,4.3c2.2,0,3.7-0.9,4.1-2.4h3.7
		c-0.7,3.6-3.7,5.7-7.9,5.7C18.5,95.5,15.1,92,15.1,86.9z M19.1,85.3h8.2c0-2.2-1.5-3.7-4-3.7C20.9,81.6,19.5,82.9,19.1,85.3z"/>
	<path d="M33.5,87c0-5.1,3-8.7,7.9-8.7c2.3,0,4.3,1,5.3,2.6V70.6h4v24.5H47l-0.3-2.5c-1,1.9-3.1,3-5.6,3C36.4,95.5,33.5,92,33.5,87z
		 M46.7,86.9c0-2.9-1.8-5-4.6-5c-2.8,0-4.5,2.1-4.5,5s1.7,4.9,4.5,4.9C44.8,91.8,46.7,89.8,46.7,86.9z"/>
</g>
<g class="st2">
	<path d="M54.8,94.6V70.9h1.5v11c1-2,3-3.5,5.8-3.5c4.3,0,6,2.6,6,6.6v9.6h-1.5v-9.3c0-4.2-1.9-5.5-4.6-5.5c-3.8,0-5.7,2.9-5.7,6.2
		v8.6H54.8z"/>
	<path d="M72.1,90.5c0-2.9,2.2-4.7,5.9-5l5.4-0.4v-0.6c0-3.6-2.1-4.6-4.6-4.6c-2.9,0-4.7,1.4-4.7,3.7h-1.5c0-3.1,2.5-5.1,6.2-5.1
		c3.4,0,6.1,1.6,6.1,5.7v10.5h-1.2l-0.3-3c-1.1,2.1-3.3,3.4-6,3.4C74,95,72.1,93.2,72.1,90.5z M83.5,87.1v-0.9l-5.3,0.4
		c-3.2,0.3-4.5,1.8-4.5,3.8c0,2.2,1.6,3.3,4,3.3C81.4,93.7,83.5,91,83.5,87.1z"/>
	<path d="M90.8,94.6V80.1h-3.2v-1.3h3.2v-5h1.5v5h3.2v1.3h-3.2v14.5H90.8z"/>
</g>
</svg>
