<?xml version="1.0" encoding="utf-8"?>
<!-- Generator: Adobe Illustrator 24.1.3, SVG Export Plug-In . SVG Version: 6.00 Build 0)  -->
<svg version="1.1"
	 id="svg19" sodipodi:docname="sqllite.svg" xmlns:inkscape="http://www.inkscape.org/namespaces/inkscape" xmlns:sodipodi="http://sodipodi.sourceforge.net/DTD/sodipodi-0.dtd" xmlns:svg="http://www.w3.org/2000/svg"
	 xmlns="http://www.w3.org/2000/svg" xmlns:xlink="http://www.w3.org/1999/xlink" x="0px" y="0px" viewBox="0 0 100 100"
	 style="enable-background:new 0 0 100 100;" xml:space="preserve">
<style type="text/css">
	.st0{fill:#0B7FCC;}
	.st1{fill:url(#path15_1_);}
	.st2{fill:#003956;}
	.st3{enable-background:new    ;}
</style>
<sodipodi:namedview  bordercolor="#000000" borderopacity="0.25" id="namedview21" inkscape:deskcolor="#d1d1d1" inkscape:pagecheckerboard="0" inkscape:pageopacity="0.0" inkscape:showpageshadow="2" pagecolor="#ffffff" showgrid="false">
	</sodipodi:namedview>
<path id="path13" class="st0" d="M30.9,29.6H3.4C1.5,29.6,0,31.2,0,33v30.5c0,1.9,1.5,3.4,3.4,3.4h18.1
	C21.3,57.8,24.3,40.2,30.9,29.6L30.9,29.6z"/>
<linearGradient id="path15_1_" gradientUnits="userSpaceOnUse" x1="-543.3182" y1="642.5054" x2="-534.4442" y2="642.5054" gradientTransform="matrix(0 3.1928 3.1744 0 -2024.1406 1765.9591)">
	<stop  offset="0" style="stop-color:#95D7F4"/>
	<stop  offset="0.92" style="stop-color:#0F7FCC"/>
	<stop  offset="1" style="stop-color:#0F7FCC"/>
</linearGradient>
<path id="path15" class="st1" d="M29.8,30.6H3.4C2,30.6,1,31.7,1,33v28.3C7,59,16,57,22.2,57.1C23.5,50.5,27.1,37.6,29.8,30.6
	L29.8,30.6z"/>
<path id="path17" class="st2" d="M37.3,28.6c-1.9-1.7-4.2-1-6.4,1c-0.3,0.3-0.7,0.6-1,1c-3.8,4.1-7.4,11.7-8.5,17.5
	c0.4,0.9,0.8,2,1,2.9c0.1,0.4,0.2,0.9,0.3,1.3c0,0,0-0.1-0.2-0.5l-0.1-0.3c0,0,0-0.1-0.1-0.1C22,50.8,21.3,49.5,21,49
	c-0.2,0.7-0.5,1.4-0.7,2.2c0.9,1.6,1.4,4.4,1.4,4.4s0-0.2-0.3-0.8c-0.2-0.6-1.2-2.3-1.4-2.7c-0.4,1.5-0.6,2.5-0.4,2.7
	c0.3,0.5,0.5,1.3,0.8,2.2c0.5,2,0.9,4.5,0.9,4.5l0,0.4c-0.1,1.7,0,3.4,0.1,5c0.2,2.1,0.5,3.9,0.9,4.9l0.3-0.2
	c-0.6-1.9-0.9-4.4-0.8-7.3c0.2-4.4,1.2-9.7,3-15.3c3.2-8.4,7.5-15.1,11.5-18.3c-3.6,3.3-8.6,14-10,18c-1.7,4.4-2.8,8.6-3.5,12.6
	C24.1,57.6,28,56,28,56s1.9-2.4,4.2-5.8c-1.3,0.3-3.6,0.8-4.3,1.2c-1.1,0.5-1.4,0.6-1.4,0.6s3.6-2.2,6.6-3.2
	C37.3,42.2,41.9,32.8,37.3,28.6"/>
<g class="st3">
	<path class="st2" d="M38.4,50.1c3.3,0,5.4,1.8,5.4,4.7H41c-0.1-1.4-1.1-2.2-2.7-2.2c-1.7,0-2.9,0.8-2.9,2.2c0,1.2,0.6,1.8,2,2.1
		l2.5,0.6c2.8,0.6,4.1,2,4.1,4.4c0,3-2.3,5-5.9,5c-3.5,0-5.7-1.8-5.8-4.7h2.8c0,1.4,1.1,2.2,2.9,2.2c1.9,0,3.1-0.8,3.1-2.2
		c0-1.1-0.6-1.7-1.9-2l-2.6-0.6c-2.7-0.6-4.2-2.2-4.2-4.6C32.6,52.1,35,50.1,38.4,50.1z"/>
	<path class="st2" d="M57.6,65.8c-1.2,0.7-2.5,1-4,1c-4.6,0-7.8-3.4-7.8-8.4c0-4.9,3.2-8.4,7.8-8.4c4.6,0,7.9,3.4,7.9,8.4
		c0,2.3-0.7,4.3-2,5.8l1.7,1.9l-1.8,1.6L57.6,65.8z M53.6,52.8c-3,0-4.9,2.2-4.9,5.6c0,3.5,1.9,5.6,4.9,5.6c0.8,0,1.5-0.2,2.1-0.5
		l-2.1-2.4l1.8-1.6l2.1,2.4c0.6-0.9,0.9-2.1,0.9-3.6C58.4,55,56.5,52.8,53.6,52.8z"/>
	<path class="st2" d="M66.9,64h6.8v2.6h-9.6V50.4h2.8V64z"/>
	<path class="st2" d="M75.3,51.8c0-0.9,0.7-1.6,1.7-1.6c0.9,0,1.6,0.7,1.6,1.6c0,0.9-0.7,1.6-1.6,1.6C76,53.5,75.3,52.7,75.3,51.8z
		 M75.6,55.6h2.7v10.9h-2.7V55.6z"/>
	<path class="st2" d="M82.1,66.6v-8.7H80v-2.3h2.1v-3.4h2.7v3.4h2.1v2.3h-2.1v8.7H82.1z"/>
	<path class="st2" d="M87.8,61.1c0-3.4,2.2-5.8,5.4-5.8c3.3,0,5.4,2.2,5.4,5.6v0.8l-8.2,0c0.2,1.9,1.2,2.9,3,2.9
		c1.5,0,2.5-0.6,2.8-1.6h2.5c-0.5,2.4-2.5,3.8-5.3,3.8C90.1,66.9,87.8,64.5,87.8,61.1z M90.5,60h5.5c0-1.5-1-2.5-2.7-2.5
		C91.7,57.5,90.7,58.4,90.5,60z"/>
</g>
</svg>
