<?xml version="1.0" encoding="utf-8"?>
<!-- Generator: Adobe Illustrator 24.1.3, SVG Export Plug-In . SVG Version: 6.00 Build 0)  -->
<svg version="1.1"
	 id="svg6" sodipodi:docname="svelte.svg" xmlns:inkscape="http://www.inkscape.org/namespaces/inkscape" xmlns:sodipodi="http://sodipodi.sourceforge.net/DTD/sodipodi-0.dtd" xmlns:svg="http://www.w3.org/2000/svg"
	 xmlns="http://www.w3.org/2000/svg" xmlns:xlink="http://www.w3.org/1999/xlink" x="0px" y="0px" viewBox="0 0 100 100"
	 style="enable-background:new 0 0 100 100;" xml:space="preserve">
<style type="text/css">
	.st0{fill:#FF3E00;}
	.st1{enable-background:new    ;}
	.st2{fill:#797878;}
</style>
<sodipodi:namedview  bordercolor="#000000" borderopacity="0.25" id="namedview8" inkscape:deskcolor="#d1d1d1" inkscape:pagecheckerboard="0" inkscape:pageopacity="0.0" inkscape:showpageshadow="2" pagecolor="#ffffff" showgrid="false">
	</sodipodi:namedview>
<path id="path2" class="st0" d="M80.1,12C71.8,1.9,55.7-1,43.3,5.4l-21,11.2c-5.7,3-9.7,7.9-10.8,13.5c-1,4.6-0.1,9.4,2.5,13.6
	c-1.8,2.3-3,4.8-3.6,7.5c-1.2,5.7,0.4,11.5,4.4,16.2c8.2,10,24.3,12.9,36.8,6.7l21-11.2c5.7-3,9.6-7.9,10.8-13.5
	c1-4.6,0.1-9.4-2.5-13.6C86.4,28.5,86.1,19,80.1,12L80.1,12z M41.2,68.5c-6.8,1.5-13.9-0.8-17.9-5.6c-2.4-2.8-3.3-6.3-2.6-9.8
	l0.4-1.7l0.4-1l1.1,0.6c2.5,1.6,5.2,2.7,8.2,3.5l0.8,0.2l-0.1,0.6c-0.1,0.9,0.2,1.9,0.8,2.6c1.2,1.5,3.4,2.2,5.4,1.7
	c0.5-0.1,0.9-0.2,1.3-0.4L60,48.1c1.1-0.6,1.7-1.4,2-2.4c0.2-1-0.1-2.1-0.7-3c-1.2-1.5-3.4-2.1-5.4-1.7c-0.4,0.1-0.9,0.3-1.3,0.5
	l-7.9,4.2c-7.5,3.7-17.2,2-22.1-4c-2.4-2.8-3.4-6.4-2.6-9.8c0.7-3.4,3.2-6.4,6.7-8.2l20.9-11.2c1.3-0.7,2.7-1.2,4.3-1.6
	c6.8-1.5,13.9,0.8,17.9,5.5c2.8,3.3,3.6,7.6,2.1,11.4l-0.4,1l-1.1-0.6c-2.6-1.6-5.3-2.7-8.2-3.5l-0.8-0.2l0.1-0.6
	c0.1-1-0.2-1.9-0.8-2.6c-1.2-1.5-3.4-2.1-5.4-1.7c-0.5,0.1-0.9,0.2-1.3,0.4l-21,11.3c-1.1,0.6-1.7,1.4-1.9,2.4
	c-0.2,1,0.1,2.1,0.7,2.9c1.2,1.5,3.4,2.1,5.4,1.7c0.5-0.1,0.9-0.2,1.3-0.4l8-4.3c1.3-0.7,2.8-1.3,4.3-1.6c6.8-1.5,13.9,0.8,17.9,5.6
	c2.4,2.8,3.4,6.3,2.7,9.7c-0.7,3.4-3.1,6.4-6.6,8.2L45.6,66.9C44.2,67.6,42.7,68.1,41.2,68.5L41.2,68.5z"/>
<g class="st1">
	<path class="st2" d="M21.4,82.1c2.8,0,4.5,1.5,4.6,4h-2.4c-0.1-1.2-0.9-1.9-2.2-1.9c-1.5,0-2.4,0.7-2.4,1.8c0,1,0.5,1.5,1.7,1.8
		l2.1,0.5c2.3,0.5,3.5,1.7,3.5,3.7c0,2.5-2,4.2-5,4.2c-2.9,0-4.8-1.5-4.9-4h2.4c0,1.2,1,1.8,2.5,1.8c1.6,0,2.6-0.7,2.6-1.8
		c0-0.9-0.5-1.5-1.6-1.7l-2.2-0.5c-2.3-0.5-3.5-1.8-3.5-3.9C16.5,83.8,18.5,82.1,21.4,82.1z"/>
	<path class="st2" d="M26.8,82.4h2.5l3,7.9c0.3,0.8,0.6,1.6,0.9,2.7c0.3-1.2,0.6-2,0.9-2.7l2.9-7.9h2.5L34.4,96h-2.5L26.8,82.4z"/>
	<path class="st2" d="M41.2,96V82.4h8.5v2.2h-6.1v3.5H49v2.1h-5.4v3.6h6.1V96H41.2z"/>
	<path class="st2" d="M54.6,93.8h5.7V96h-8.1V82.4h2.4V93.8z"/>
	<path class="st2" d="M59.6,82.4H70v2.2h-4V96h-2.4V84.6h-4V82.4z"/>
	<path class="st2" d="M71.8,96V82.4h8.5v2.2h-6.1v3.5h5.4v2.1h-5.4v3.6h6.1V96H71.8z"/>
</g>
</svg>
