<?xml version="1.0" encoding="utf-8"?>
<!-- Generator: Adobe Illustrator 24.1.3, SVG Export Plug-In . SVG Version: 6.00 Build 0)  -->
<svg version="1.1"
	 id="svg8" sodipodi:docname="swift.svg" xmlns:inkscape="http://www.inkscape.org/namespaces/inkscape" xmlns:sodipodi="http://sodipodi.sourceforge.net/DTD/sodipodi-0.dtd" xmlns:svg="http://www.w3.org/2000/svg"
	 xmlns="http://www.w3.org/2000/svg" xmlns:xlink="http://www.w3.org/1999/xlink" x="0px" y="0px" viewBox="0 0 100 100"
	 style="enable-background:new 0 0 100 100;" xml:space="preserve">
<style type="text/css">
	.st0{fill:#F05138;}
	.st1{fill:#FEFEFE;}
	.st2{enable-background:new    ;}
	.st3{fill:#221F20;}
</style>
<sodipodi:namedview  bordercolor="#000000" borderopacity="0.25" id="namedview10" inkscape:deskcolor="#d1d1d1" inkscape:pagecheckerboard="0" inkscape:pageopacity="0.0" inkscape:showpageshadow="2" pagecolor="#ffffff" showgrid="false">
	</sodipodi:namedview>
<path id="path2" class="st0" d="M29.2,42.2c0-0.6-0.1-1.2-0.2-1.8c-0.2-1.2-0.8-2.3-1.7-3.1c-0.4-0.4-1-0.8-1.5-1.1
	c-0.6-0.3-1.1-0.5-1.8-0.6c-0.6-0.1-1.3-0.1-1.9-0.2H7.3c-0.5,0-0.9,0-1.4,0.1C5.5,35.7,5,35.8,4.6,36c-0.1,0.1-0.3,0.1-0.4,0.2
	c-0.4,0.2-0.8,0.5-1.1,0.7C2.9,37,2.8,37,2.7,37.2c-0.4,0.4-0.8,0.9-1.1,1.4c-0.3,0.5-0.5,1.1-0.6,1.7c-0.1,0.6-0.1,1.2-0.2,1.8
	v13.6c0,0.6,0.1,1.2,0.2,1.8c0.2,1.2,0.8,2.3,1.7,3.1c0.4,0.4,1,0.8,1.5,1c0.6,0.3,1.1,0.5,1.8,0.6c0.6,0.1,1.3,0.1,1.9,0.2h14.4
	c0.6,0,1.3-0.1,1.9-0.2c0.6-0.1,1.2-0.3,1.7-0.6c0.6-0.3,1.1-0.6,1.6-1c0.4-0.4,0.8-0.9,1.1-1.4c0.3-0.5,0.5-1.1,0.6-1.7
	c0.1-0.6,0.1-1.2,0.2-1.8L29.2,42.2L29.2,42.2z"/>
<path id="path4" class="st1" d="M19.8,56.3c-2.5,1.4-6,1.5-9.5,0.1c-2.7-1.1-5.1-3-6.7-5.4c0.8,0.6,1.6,1,2.5,1.4
	c3.6,1.6,7.2,1.5,9.8,0c-3.4-2.6-6.4-5.5-9-8.8c-0.5-0.5-0.9-1-1.2-1.6c2.7,2.3,5.7,4.4,8.7,6.3c-2.2-2.3-4.3-4.7-6.1-7.3
	c3.1,3,6.5,5.6,10.2,7.9l0.4,0.2c0.1-0.3,0.2-0.5,0.3-0.8c0.8-2.9-0.1-6.2-2.2-8.9c4.9,2.8,7.8,8,6.6,12.4c0,0.1-0.1,0.2-0.1,0.4
	l0,0c2.4,2.9,1.8,5.9,1.4,5.3C23.4,55,21,55.8,19.8,56.3z"/>
<g class="st2">
	<path class="st3" d="M40.1,39.1c4.2,0,6.9,2.3,7,6.1h-3.7c-0.1-1.8-1.4-2.9-3.4-2.9c-2.3,0-3.7,1.1-3.7,2.8c0,1.5,0.8,2.3,2.5,2.7
		l3.3,0.7c3.6,0.8,5.3,2.6,5.3,5.7c0,3.9-3,6.4-7.6,6.4c-4.5,0-7.4-2.4-7.5-6.1H36c0,1.8,1.5,2.8,3.8,2.8c2.4,0,4-1.1,4-2.8
		c0-1.4-0.7-2.2-2.4-2.6l-3.3-0.7c-3.5-0.8-5.4-2.8-5.4-6C32.7,41.6,35.7,39.1,40.1,39.1z"/>
	<path class="st3" d="M48.8,46.2h3.6l1.9,6.1c0.3,1.1,0.6,2.3,0.9,3.7c0.3-1.4,0.5-2.3,1-3.7l1.9-6.1h3.5l1.9,6.1
		c0.2,0.6,0.7,2.7,0.9,3.6c0.2-1.1,0.7-2.7,0.9-3.6l1.9-6.1h3.7l-4.9,14.1h-3.3l-1.9-6.1c-0.6-1.9-0.9-3.2-1-3.9
		c-0.1,0.7-0.4,1.7-1.1,4l-1.9,6.1h-3.4L48.8,46.2z"/>
	<path class="st3" d="M72.6,41.3c0-1.2,0.9-2.1,2.1-2.1c1.1,0,2.1,0.9,2.1,2.1c0,1.2-0.9,2.1-2.1,2.1C73.6,43.4,72.6,42.4,72.6,41.3
		z M73,46.2h3.5v14.1H73V46.2z"/>
	<path class="st3" d="M80.8,46.2v-1.7c0-3.8,2-5.4,4.9-5.4c0.5,0,1.2,0,1.8,0.1v3h-1.2c-1.6,0-2,0.9-2,2.3v1.7h5.9v-4.4h3.5v4.4h2.7
		v2.9h-2.7v11.2h-3.5V49.1h-5.9v11.2h-3.5V49.1h-2v-2.9H80.8z"/>
</g>
</svg>
