<?xml version="1.0" encoding="utf-8"?>
<!-- Generator: Adobe Illustrator 24.1.3, SVG Export Plug-In . SVG Version: 6.00 Build 0)  -->
<svg version="1.1"
	 id="svg13" sodipodi:docname="tailwindcss.svg" xmlns:inkscape="http://www.inkscape.org/namespaces/inkscape" xmlns:sodipodi="http://sodipodi.sourceforge.net/DTD/sodipodi-0.dtd" xmlns:svg="http://www.w3.org/2000/svg"
	 xmlns="http://www.w3.org/2000/svg" xmlns:xlink="http://www.w3.org/1999/xlink" x="0px" y="0px" viewBox="0 0 100 100"
	 style="enable-background:new 0 0 100 100;" xml:space="preserve">
<style type="text/css">
	.st0{fill:url(#path9_1_);}
	.st1{enable-background:new    ;}
	.st2{fill:#2D3748;}
</style>
<sodipodi:namedview  bordercolor="#000000" borderopacity="0.25" id="namedview15" inkscape:deskcolor="#d1d1d1" inkscape:pagecheckerboard="0" inkscape:pageopacity="0.0" inkscape:showpageshadow="2" pagecolor="#ffffff" showgrid="false">
	</sodipodi:namedview>
<linearGradient id="path9_1_" gradientUnits="userSpaceOnUse" x1="-595.1169" y1="-90.7507" x2="-594.1159" y2="-90.7507" gradientTransform="matrix(21.2247 4.4055 7.3426 -12.7348 13296.9404 1513.8813)">
	<stop  offset="0" style="stop-color:#2298BD"/>
	<stop  offset="1" style="stop-color:#0ED7B5"/>
</linearGradient>
<path id="path9" class="st0" d="M10.3,43.8c-2.8,0-4.5,1.4-5.2,4.1c1-1.4,2.2-1.9,3.6-1.5c0.8,0.2,1.3,0.8,2,1.4
	c1,1,2.2,2.2,4.7,2.2c2.8,0,4.5-1.4,5.2-4.1c-1,1.4-2.2,1.9-3.6,1.5c-0.8-0.2-1.3-0.8-2-1.4C14.1,45,12.9,43.8,10.3,43.8z M5.2,50
	c-2.8,0-4.5,1.4-5.2,4.1c1-1.4,2.2-1.9,3.6-1.5c0.8,0.2,1.3,0.8,2,1.4c1,1,2.2,2.2,4.7,2.2c2.8,0,4.5-1.4,5.2-4.1
	c-1,1.4-2.2,1.9-3.6,1.5c-0.8-0.2-1.3-0.8-2-1.4C8.9,51.2,7.7,50,5.2,50z"/>
<g class="st1">
	<path class="st2" d="M24.5,56v-5.9H23v-1.5h1.4v-2.3h1.8v2.3h1.4v1.5h-1.4V56H24.5z"/>
	<path class="st2" d="M28.5,53.9c0-1.4,1-2.2,2.8-2.4l2.2-0.2v-0.2c0-1-0.6-1.4-1.5-1.4c-1.1,0-1.7,0.5-1.7,1.2h-1.6
		c0-1.6,1.3-2.7,3.3-2.7c2,0,3.2,1.1,3.2,3.1V56h-1.6l-0.1-1.1c-0.3,0.8-1.3,1.3-2.5,1.3C29.5,56.2,28.5,55.3,28.5,53.9z M33.5,53
		v-0.4L32,52.7c-1.1,0.1-1.6,0.5-1.6,1.1c0,0.7,0.5,1,1.3,1C32.8,54.8,33.5,54.1,33.5,53z"/>
	<path class="st2" d="M36.9,45.9c0-0.6,0.5-1.1,1.1-1.1c0.6,0,1.1,0.5,1.1,1.1s-0.5,1.1-1.1,1.1C37.4,47.1,36.9,46.6,36.9,45.9z
		 M37.1,48.6h1.8V56h-1.8V48.6z"/>
	<path class="st2" d="M40.8,56V44.8h1.8V56H40.8z"/>
	<path class="st2" d="M43.8,48.6h1.9l1,3.2c0.2,0.6,0.3,1.2,0.5,1.9c0.1-0.7,0.3-1.2,0.5-1.9l1-3.2h1.9l1,3.2
		c0.1,0.3,0.4,1.4,0.5,1.9c0.1-0.6,0.4-1.4,0.5-1.9l1-3.2h1.9L52.9,56h-1.7l-1-3.2c-0.3-1-0.5-1.7-0.5-2.1c-0.1,0.3-0.2,0.9-0.6,2.1
		L48,56h-1.8L43.8,48.6z"/>
	<path class="st2" d="M56.4,45.9c0-0.6,0.5-1.1,1.1-1.1c0.6,0,1.1,0.5,1.1,1.1s-0.5,1.1-1.1,1.1C56.9,47.1,56.4,46.6,56.4,45.9z
		 M56.6,48.6h1.8V56h-1.8V48.6z"/>
	<path class="st2" d="M60.3,56v-7.4H62l0.2,1c0.5-0.8,1.4-1.2,2.4-1.2c1.9,0,2.8,1.2,2.8,3.1V56h-1.8v-4.1c0-1.2-0.6-1.9-1.6-1.9
		c-1.1,0-1.8,0.8-1.8,2v4H60.3z"/>
	<path class="st2" d="M68.7,52.3c0-2.3,1.4-4,3.6-4c1,0,2,0.4,2.4,1.2v-4.7h1.8V56h-1.7l-0.1-1.2c-0.5,0.9-1.4,1.4-2.5,1.4
		C70.1,56.2,68.7,54.6,68.7,52.3z M74.7,52.2c0-1.3-0.8-2.3-2.1-2.3s-2.1,0.9-2.1,2.3c0,1.3,0.8,2.3,2.1,2.3S74.7,53.6,74.7,52.2z"
		/>
	<path class="st2" d="M81.8,48.3c2,0,3.4,1.1,3.6,2.9h-1.8c-0.2-0.8-0.8-1.3-1.7-1.3c-1.2,0-2,0.9-2,2.3c0,1.4,0.7,2.3,1.9,2.3
		c0.9,0,1.6-0.5,1.8-1.3h1.9c-0.2,1.7-1.7,2.9-3.6,2.9c-2.3,0-3.7-1.6-3.7-3.9C78,50,79.6,48.3,81.8,48.3z"/>
	<path class="st2" d="M87.9,53.7c0,0.6,0.5,1.1,1.3,1.1c0.9,0,1.3-0.3,1.3-0.9c0-0.4-0.2-0.6-0.9-0.8l-1.3-0.3c-1.3-0.3-2-0.9-2-2.1
		c0-1.5,1.2-2.3,2.9-2.3c1.7,0,2.8,1,2.8,2.4h-1.7c0-0.6-0.4-1-1.1-1c-0.7,0-1.1,0.3-1.1,0.9c0,0.4,0.3,0.7,1,0.8l1.3,0.3
		c1.2,0.3,1.9,0.9,1.9,2c0,1.5-1.3,2.4-3.1,2.4c-1.9,0-3-1-3-2.5H87.9z"/>
	<path class="st2" d="M94.9,53.7c0,0.6,0.5,1.1,1.3,1.1c0.9,0,1.3-0.3,1.3-0.9c0-0.4-0.2-0.6-0.9-0.8l-1.3-0.3c-1.3-0.3-2-0.9-2-2.1
		c0-1.5,1.2-2.3,2.9-2.3c1.7,0,2.8,1,2.8,2.4h-1.7c0-0.6-0.4-1-1.1-1c-0.7,0-1.1,0.3-1.1,0.9c0,0.4,0.3,0.7,1,0.8l1.3,0.3
		c1.2,0.3,1.9,0.9,1.9,2c0,1.5-1.3,2.4-3.1,2.4c-1.8,0-3-1-3-2.5H94.9z"/>
</g>
</svg>
