<?xml version="1.0" encoding="utf-8"?>
<!-- Generator: Adobe Illustrator 24.1.3, SVG Export Plug-In . SVG Version: 6.00 Build 0)  -->
<svg version="1.1"
	 id="svg4" xmlns:inkscape="http://www.inkscape.org/namespaces/inkscape" xmlns:sodipodi="http://sodipodi.sourceforge.net/DTD/sodipodi-0.dtd" xmlns:svg="http://www.w3.org/2000/svg"
	 xmlns="http://www.w3.org/2000/svg" xmlns:xlink="http://www.w3.org/1999/xlink" x="0px" y="0px" viewBox="0 0 100 100"
	 style="enable-background:new 0 0 100 100;" xml:space="preserve">
<style type="text/css">
	.st0{fill:#1DA1F2;}
	.st1{enable-background:new    ;}
</style>
<sodipodi:namedview  bordercolor="#000000" borderopacity="0.25" id="namedview6" inkscape:current-layer="svg4" inkscape:cx="46.320869" inkscape:cy="59.589867" inkscape:deskcolor="#d1d1d1" inkscape:pagecheckerboard="0" inkscape:pageopacity="0.0" inkscape:showpageshadow="2" inkscape:window-height="1009" inkscape:window-maximized="1" inkscape:window-width="1920" inkscape:window-x="-8" inkscape:window-y="-8" inkscape:zoom="8.29" pagecolor="#ffffff" showgrid="false">
	</sodipodi:namedview>
<path id="path2" class="st0" d="M35.2,79.6c30,0,46.4-30.4,46.4-56.8c0-0.9,0-1.7,0-2.6c3.2-2.8,6-6.3,8.1-10.3
	c-3,1.6-6.1,2.7-9.4,3.1c3.4-2.5,6-6.4,7.2-11c-3.2,2.3-6.7,4-10.4,4.8c-5.1-6.6-13.1-8.2-19.6-3.9c-6.5,4.3-9.9,13.3-8.2,22.1
	c-13.1-0.8-25.3-8.4-33.6-20.9c-4.3,9.1-2.1,20.8,5,26.7c-2.6-0.1-5.1-1-7.4-2.5v0.3c0,9.5,5.5,17.7,13.1,19.6
	c-2.4,0.8-4.9,0.9-7.4,0.3c2.1,8.1,8.3,13.7,15.2,13.9c-5.8,5.5-12.9,8.5-20.3,8.5c-1.3,0-2.6-0.1-3.9-0.3
	C17.7,76.4,26.4,79.5,35.2,79.6"/>
<g class="st1">
	<path class="st0" d="M20.9,85.3h10.4v2.2h-4V99h-2.4V87.5h-4V85.3z"/>
	<path class="st0" d="M31,89.8h2.4l1.2,4c0.2,0.7,0.4,1.5,0.6,2.4c0.2-0.9,0.3-1.5,0.6-2.4l1.3-4h2.3l1.2,4c0.1,0.4,0.5,1.8,0.6,2.4
		c0.1-0.7,0.4-1.8,0.6-2.4l1.2-4h2.4L42.3,99h-2.1l-1.3-4c-0.4-1.2-0.6-2.1-0.7-2.6c-0.1,0.4-0.3,1.1-0.7,2.6l-1.3,4H34L31,89.8z"/>
	<path class="st0" d="M46.6,86.5c0-0.8,0.6-1.4,1.4-1.4c0.7,0,1.4,0.6,1.4,1.4s-0.6,1.4-1.4,1.4C47.2,87.9,46.6,87.3,46.6,86.5z
		 M46.9,89.8h2.3V99h-2.3V89.8z"/>
	<path class="st0" d="M52.4,99v-7.3h-1.8v-1.9h1.8v-2.9h2.3v2.9h1.8v1.9h-1.8V99H52.4z"/>
	<path class="st0" d="M59,99v-7.3h-1.8v-1.9H59v-2.9h2.3v2.9H63v1.9h-1.8V99H59z"/>
	<path class="st0" d="M63.8,94.4c0-2.9,1.9-4.9,4.6-4.9c2.8,0,4.5,1.8,4.5,4.7v0.7l-6.9,0c0.2,1.6,1,2.4,2.5,2.4
		c1.3,0,2.1-0.5,2.3-1.4H73c-0.4,2-2.1,3.2-4.5,3.2C65.7,99.2,63.8,97.2,63.8,94.4z M66,93.5h4.6c0-1.3-0.9-2.1-2.2-2.1
		C67.1,91.4,66.3,92.1,66,93.5z"/>
	<path class="st0" d="M80.5,91.8h-0.8c-1.6,0-2.7,0.9-2.7,2.7V99h-2.3v-9.2h2.1l0.1,1.3c0.4-0.9,1.3-1.5,2.5-1.5c0.3,0,0.6,0,1,0.1
		V91.8z"/>
</g>
</svg>
