<?xml version="1.0" encoding="utf-8"?>
<!-- Generator: Adobe Illustrator 24.1.3, SVG Export Plug-In . SVG Version: 6.00 Build 0)  -->
<svg version="1.1"
	 id="svg6" sodipodi:docname="typescript.svg" xmlns:inkscape="http://www.inkscape.org/namespaces/inkscape" xmlns:sodipodi="http://sodipodi.sourceforge.net/DTD/sodipodi-0.dtd" xmlns:svg="http://www.w3.org/2000/svg"
	 xmlns="http://www.w3.org/2000/svg" xmlns:xlink="http://www.w3.org/1999/xlink" x="0px" y="0px" viewBox="0 0 100 100"
	 style="enable-background:new 0 0 100 100;" xml:space="preserve">
<style type="text/css">
	.st0{fill:#FFFFFF;}
	.st1{fill:#007ACC;}
	.st2{enable-background:new    ;}
</style>
<sodipodi:namedview  bordercolor="#000000" borderopacity="0.25" id="namedview8" inkscape:deskcolor="#d1d1d1" inkscape:pagecheckerboard="0" inkscape:pageopacity="0.0" inkscape:showpageshadow="2" pagecolor="#ffffff" showgrid="false">
	</sodipodi:namedview>
<path id="path2" class="st0" d="M23.6,28.5h62.2v46H23.6V28.5z"/>
<path id="path4" class="st1" d="M10.9,39.9V79h78.1V0.9H10.9V39.9z M73.9,36.8c1.9,0.4,3.6,1.4,4.9,2.8c0.7,0.8,1.4,1.6,1.9,2.5
	c0,0.1-3.4,2.4-5.4,3.7c-0.1,0-0.4-0.3-0.7-0.8c-0.8-1.3-2.1-2.1-3.7-2.2c-2.4-0.2-3.9,1.1-3.9,3.1c0,0.5,0.1,1,0.3,1.5
	c0.5,1.1,1.5,1.7,4.5,3c5.6,2.4,8,4,9.5,6.2c1.7,2.5,2,6.5,0.9,9.5c-1.2,3.2-4.3,5.5-8.6,6.2c-2,0.2-4,0.2-5.9-0.1
	c-3-0.5-5.8-2-7.9-4.1c-0.7-0.8-2.1-2.9-2-3c0.2-0.2,0.5-0.3,0.7-0.5l2.9-1.6l2.2-1.3l0.5,0.7c0.8,1.1,1.8,2.1,3,2.8
	c2.5,1.3,5.9,1.1,7.6-0.4c1.2-1.1,1.4-3,0.4-4.3c-0.6-0.9-1.9-1.6-5.4-3.1c-4-1.7-5.8-2.8-7.4-4.5c-1-1.1-1.7-2.5-2.1-3.9
	c-0.3-1.6-0.4-3.3-0.1-5c0.8-3.9,3.7-6.6,8-7.4C69.9,36.4,71.9,36.5,73.9,36.8L73.9,36.8z M55.6,40.1v3.2H45.4v28.9h-7.2V43.3H28.1
	v-3.1c0-1.1,0-2.2,0.1-3.2c0-0.1,6.2-0.1,13.7-0.1h13.6L55.6,40.1z"/>
<g class="st2">
	<path class="st1" d="M3.8,81.2h10.4v2.2h-4v11.4H7.8V83.4h-4V81.2z"/>
	<path class="st1" d="M14.1,97.2h1.4c0.9,0,1.5-0.2,1.8-1.3l0.3-0.7l-3.7-9.6h2.4l2.4,6.7l2.5-6.7h2.4l-4.5,11.3
		c-0.7,1.7-1.7,2.4-3.2,2.4c-0.6,0-1.2-0.1-1.7-0.2V97.2z"/>
	<path class="st1" d="M24.7,85.6h2.1L27,87c0.6-1.1,1.8-1.7,3.2-1.7c2.6,0,4.3,1.9,4.3,4.8c0,2.9-1.6,5-4.3,5
		c-1.4,0-2.6-0.5-3.2-1.5v5.5h-2.3V85.6z M29.6,93c1.6,0,2.6-1.2,2.6-2.8c0-1.6-1-2.8-2.6-2.8c-1.6,0-2.6,1.2-2.6,2.8
		C27,91.9,28.1,93,29.6,93z"/>
	<path class="st1" d="M35.8,90.2c0-2.9,1.9-4.9,4.6-4.9c2.8,0,4.5,1.8,4.5,4.7v0.7l-6.9,0c0.2,1.6,1,2.4,2.5,2.4
		c1.3,0,2.1-0.5,2.3-1.4h2.1c-0.4,2-2.1,3.2-4.5,3.2C37.7,95.1,35.8,93.1,35.8,90.2z M38,89.3h4.6c0-1.3-0.9-2.1-2.2-2.1
		C39,87.2,38.2,87.9,38,89.3z"/>
	<path class="st1" d="M51.1,80.9c2.8,0,4.5,1.5,4.6,4h-2.4c-0.1-1.2-0.9-1.9-2.2-1.9c-1.5,0-2.4,0.7-2.4,1.8c0,1,0.5,1.5,1.7,1.8
		l2.1,0.5c2.3,0.5,3.5,1.7,3.5,3.7c0,2.5-2,4.2-5,4.2c-2.9,0-4.8-1.5-4.9-4h2.4c0,1.2,1,1.8,2.5,1.8c1.6,0,2.6-0.7,2.6-1.8
		c0-0.9-0.5-1.5-1.6-1.7l-2.2-0.5c-2.3-0.5-3.5-1.8-3.5-3.9C46.2,82.6,48.2,80.9,51.1,80.9z"/>
	<path class="st1" d="M61.8,85.3c2.5,0,4.2,1.4,4.5,3.6H64c-0.3-1-1-1.6-2.1-1.6c-1.5,0-2.4,1.1-2.4,2.8c0,1.7,0.9,2.8,2.4,2.8
		c1.1,0,1.9-0.6,2.2-1.6h2.3c-0.3,2.1-2.1,3.6-4.5,3.6c-2.8,0-4.6-1.9-4.6-4.9C57.2,87.3,59.1,85.3,61.8,85.3z"/>
	<path class="st1" d="M73.8,87.7H73c-1.6,0-2.7,0.9-2.7,2.7v4.5H68v-9.2h2.1l0.1,1.3c0.4-0.9,1.3-1.5,2.5-1.5c0.3,0,0.6,0,1,0.1
		V87.7z"/>
	<path class="st1" d="M75.1,82.4c0-0.8,0.6-1.4,1.4-1.4c0.7,0,1.4,0.6,1.4,1.4c0,0.8-0.6,1.4-1.4,1.4C75.7,83.7,75.1,83.1,75.1,82.4
		z M75.3,85.6h2.3v9.2h-2.3V85.6z"/>
	<path class="st1" d="M80,85.6h2.1l0.1,1.4c0.6-1.1,1.8-1.7,3.2-1.7c2.6,0,4.3,1.9,4.3,4.8c0,2.9-1.6,5-4.3,5
		c-1.4,0-2.6-0.5-3.2-1.5v5.5H80V85.6z M84.9,93c1.6,0,2.6-1.2,2.6-2.8c0-1.6-1-2.8-2.6-2.8c-1.6,0-2.6,1.2-2.6,2.8
		C82.3,91.9,83.3,93,84.9,93z"/>
	<path class="st1" d="M92.3,94.8v-7.3h-1.8v-1.9h1.8v-2.9h2.3v2.9h1.8v1.9h-1.8v7.3H92.3z"/>
</g>
</svg>
