<?xml version="1.0" encoding="utf-8"?>
<!-- Generator: Adobe Illustrator 24.1.3, SVG Export Plug-In . SVG Version: 6.00 Build 0)  -->
<svg version="1.1"
	 id="svg10" sodipodi:docname="vuejs.svg" xmlns:inkscape="http://www.inkscape.org/namespaces/inkscape" xmlns:sodipodi="http://sodipodi.sourceforge.net/DTD/sodipodi-0.dtd" xmlns:svg="http://www.w3.org/2000/svg"
	 xmlns="http://www.w3.org/2000/svg" xmlns:xlink="http://www.w3.org/1999/xlink" x="0px" y="0px" viewBox="0 0 100 100"
	 style="enable-background:new 0 0 100 100;" xml:space="preserve">
<style type="text/css">
	.st0{fill:none;}
	.st1{fill:#35495E;}
	.st2{fill:#41B883;}
	.st3{enable-background:new    ;}
</style>
<sodipodi:namedview  bordercolor="#000000" borderopacity="0.25" id="namedview12" inkscape:deskcolor="#d1d1d1" inkscape:pagecheckerboard="0" inkscape:pageopacity="0.0" inkscape:showpageshadow="2" pagecolor="#ffffff" showgrid="false">
	</sodipodi:namedview>
<path id="path4" class="st0" d="M7.1,0l33.4,0.1L50,16.5l9.7-16.4L92.9,0L50.1,73.8L7.1,0z M92.2,0.4l-16.3,0L50.1,44.7L24.3,0.4
	l-16.6,0l42.4,72.3L92.2,0.4z M75.3,0.4L60.1,0.5L50,17L40.1,0.5L24.8,0.4l25.3,43.2L75.3,0.4z M24.5,0.3l15.4,0L50,17l10-16.7
	l15.4,0l-25.4,44"/>
<path id="path6" class="st1" d="M24.5,0.3l15.4,0L50,17l10-16.7l15.4,0l-25.4,44L24.5,0.3z"/>
<path id="path8" class="st2" d="M7.7,0.4l16.8-0.1l25.6,44l25.4-44l16.8,0L50.1,72.7L7.7,0.4z"/>
<g class="st3">
	<path class="st1" d="M26.5,78H29l3,7.9c0.3,0.8,0.6,1.6,0.9,2.7c0.3-1.2,0.6-2,0.9-2.7l2.9-7.9h2.5l-5.1,13.6h-2.5L26.5,78z"/>
	<path class="st1" d="M48.1,82.5v9.2H46l-0.2-1.2c-0.6,0.9-1.8,1.5-3,1.5c-2.1,0-3.4-1.4-3.4-3.7v-5.8h2.3v5c0,1.8,0.7,2.5,2,2.5
		c1.4,0,2.1-0.8,2.1-2.6v-4.8H48.1z"/>
	<path class="st1" d="M49.7,87.1c0-2.9,1.9-4.9,4.6-4.9c2.8,0,4.5,1.8,4.5,4.7v0.7l-6.9,0c0.2,1.6,1,2.4,2.5,2.4
		c1.3,0,2.1-0.5,2.3-1.4h2.1c-0.4,2-2.1,3.2-4.5,3.2C51.6,91.9,49.7,89.9,49.7,87.1z M51.9,86.2h4.6c0-1.3-0.9-2.1-2.2-2.1
		C53,84,52.1,84.8,51.9,86.2z"/>
	<path class="st1" d="M60.1,90.4c0-0.8,0.7-1.5,1.5-1.5c0.8,0,1.5,0.7,1.5,1.5c0,0.8-0.7,1.5-1.5,1.5C60.8,91.9,60.1,91.2,60.1,90.4
		z"/>
	<path class="st1" d="M63.7,94c0.3,0.1,0.5,0.1,0.8,0.1c0.8,0,1-0.4,1-1.4V82.5h2.3V93c0,2-1.1,3.2-3.1,3.2c-0.4,0-0.8,0-1.4-0.2
		L63.7,94z M65.3,79.2c0-0.8,0.6-1.4,1.4-1.4c0.7,0,1.4,0.6,1.4,1.4s-0.6,1.4-1.4,1.4C65.9,80.6,65.3,80,65.3,79.2z"/>
	<path class="st1" d="M71.6,88.9c0,0.8,0.6,1.3,1.7,1.3c1.1,0,1.6-0.4,1.6-1.1c0-0.5-0.2-0.8-1.1-1l-1.7-0.4
		c-1.7-0.4-2.5-1.2-2.5-2.6c0-1.8,1.5-2.9,3.7-2.9c2.1,0,3.5,1.2,3.5,3h-2.2c0-0.8-0.5-1.3-1.4-1.3c-0.9,0-1.4,0.4-1.4,1.1
		c0,0.5,0.4,0.9,1.2,1l1.7,0.4c1.5,0.4,2.3,1.1,2.3,2.5c0,1.9-1.6,3-3.9,3c-2.3,0-3.8-1.2-3.8-3H71.6z"/>
</g>
</svg>
