<?xml version="1.0" encoding="utf-8"?>
<!-- Generator: Adobe Illustrator 24.1.3, SVG Export Plug-In . SVG Version: 6.00 Build 0)  -->
<svg version="1.1"
	 id="svg16" sodipodi:docname="wordpress.svg" xmlns:inkscape="http://www.inkscape.org/namespaces/inkscape" xmlns:sodipodi="http://sodipodi.sourceforge.net/DTD/sodipodi-0.dtd" xmlns:svg="http://www.w3.org/2000/svg"
	 xmlns="http://www.w3.org/2000/svg" xmlns:xlink="http://www.w3.org/1999/xlink" x="0px" y="0px" viewBox="0 0 100 100"
	 style="enable-background:new 0 0 100 100;" xml:space="preserve">
<style type="text/css">
	.st0{fill-rule:evenodd;clip-rule:evenodd;fill:#494949;}
	.st1{enable-background:new    ;}
	.st2{fill:#3179A1;}
	.st3{fill:#515151;}
</style>
<sodipodi:namedview  bordercolor="#000000" borderopacity="0.25" id="namedview18" inkscape:deskcolor="#d1d1d1" inkscape:pagecheckerboard="0" inkscape:pageopacity="0.0" inkscape:showpageshadow="2" pagecolor="#ffffff" showgrid="false">
	</sodipodi:namedview>
<path id="path14" class="st0" d="M51,1.1C30.1,0.7,12.6,17.7,12.6,38.3c0,21.2,16.7,38.1,37.6,38c20.7,0,37.4-16.9,37.4-37.6
	C87.6,18.3,70.9,1.4,51,1.1z M50.1,74.4c-19.8,0-35.7-16-35.7-36C14.4,19,30.6,2.9,50.1,2.9c19.9,0,35.7,16.1,35.7,36.4
	C85.8,58.4,69.5,74.4,50.1,74.4z M69.1,28.1c-0.8-1.3-1.7-2.5-2.2-3.9c-0.5-1.6-0.9-3.4-0.7-5c0.5-2.7,2.5-4,5.3-4.3
	C56.3,0.6,32.2,5.7,23.3,21.2c3.4-0.2,6.7-0.4,9.9-0.4c0.6,0,1.6,0.5,1.8,1c0.3,1.1-0.6,1.5-1.6,1.5c-1,0.1-2,0.2-3.2,0.2L42,58.3
	c0.3-0.5,0.4-0.6,0.4-0.7c2.2-6.4,4.3-12.9,6.4-19.4c0.2-0.6,0.1-1.4-0.1-2c-1.1-3.2-2.4-6.4-3.4-9.6c-0.7-2.2-1.6-3.7-4.2-3.4
	c-0.4,0-1-0.9-1.5-1.4c0.6-0.4,1.2-1,1.8-1c5.4-0.1,10.7-0.1,16.1,0c0.6,0,1.2,0.7,1.8,1.1c-0.5,0.5-1,1.2-1.6,1.4
	c-1,0.3-2.1,0.2-3.3,0.4l11.7,34.8c1.8-5.9,3.4-11.3,5-16.7C72.6,36.8,71.7,32.3,69.1,28.1L69.1,28.1z M41.2,68.9
	c-0.1,0.2-0.1,0.4-0.1,0.8c6.6,1.8,13.1,1.7,19.7-0.5L50.6,41.4C47.4,50.8,44.3,59.8,41.2,68.9z M36.1,67.6L20.8,25.7
	C13.9,39.2,19.2,59.7,36.1,67.6z M78.6,24.3c-0.2,2.3-0.1,4.9-0.7,7.3c-1.6,5.6-3.5,11.1-5.4,16.6c-2,6-4.1,11.9-6.2,17.9
	c9.7-5.8,15.1-14.3,15.9-25.4C82.7,34.3,80.5,25.5,78.6,24.3z"/>
<g class="st1">
	<path class="st2" d="M2.8,82.5h2.5l2.2,7.2c0.2,0.7,0.4,1.5,0.6,2.7c0.2-1.2,0.4-1.9,0.7-2.7l2.1-7.2h2.6l2.1,7.2
		c0.2,0.8,0.4,1.5,0.7,2.7c0.3-1.3,0.4-2,0.7-2.7l2.2-7.2h2.4l-4.1,13.6h-2.3l-2.9-9.9l-3,9.9H6.9L2.8,82.5z"/>
	<path class="st2" d="M26.1,86.7c2.9,0,4.9,2,4.9,4.9s-2.1,4.9-4.9,4.9c-2.9,0-4.9-2-4.9-4.9S23.2,86.7,26.1,86.7z M26.1,94.4
		c1.6,0,2.6-1.1,2.6-2.8c0-1.7-1.1-2.8-2.6-2.8c-1.6,0-2.6,1.1-2.6,2.8C23.4,93.2,24.5,94.4,26.1,94.4z"/>
	<path class="st2" d="M38.6,89h-0.8c-1.6,0-2.7,0.9-2.7,2.7v4.5h-2.3V87H35l0.1,1.3c0.4-0.9,1.3-1.5,2.5-1.5c0.3,0,0.6,0,1,0.1V89z"
		/>
	<path class="st2" d="M39.3,91.6c0-2.9,1.7-4.9,4.5-4.9c1.3,0,2.4,0.5,3,1.5v-5.8H49v13.9h-2.1l-0.1-1.4c-0.6,1.1-1.8,1.7-3.2,1.7
		C40.9,96.4,39.3,94.4,39.3,91.6z M46.7,91.5c0-1.7-1-2.8-2.6-2.8s-2.6,1.2-2.6,2.8s1,2.8,2.6,2.8S46.7,93.2,46.7,91.5z"/>
</g>
<g class="st1">
	<path class="st3" d="M54.2,91.6v4.7h-2.4V82.6h5.4c2.7,0,4.5,1.8,4.5,4.5c0,2.6-1.8,4.5-4.5,4.5H54.2z M54.2,84.8v4.7h2.5
		c1.6,0,2.5-0.9,2.5-2.4c0-1.5-0.9-2.3-2.5-2.3H54.2z"/>
	<path class="st3" d="M69.2,89.1h-0.8c-1.6,0-2.7,0.9-2.7,2.7v4.5h-2.3v-9.2h2.1l0.1,1.3c0.4-0.9,1.3-1.5,2.5-1.5c0.3,0,0.6,0,1,0.1
		V89.1z"/>
	<path class="st3" d="M69.9,91.7c0-2.9,1.9-4.9,4.6-4.9c2.8,0,4.5,1.8,4.5,4.7v0.7l-6.9,0c0.2,1.6,1,2.4,2.5,2.4
		c1.3,0,2.1-0.5,2.3-1.4H79c-0.4,2-2.1,3.2-4.5,3.2C71.8,96.5,69.9,94.5,69.9,91.7z M72.1,90.8h4.6c0-1.3-0.9-2.1-2.2-2.1
		C73.1,88.7,72.3,89.4,72.1,90.8z"/>
	<path class="st3" d="M82.3,93.5c0,0.8,0.6,1.3,1.7,1.3c1.1,0,1.6-0.4,1.6-1.1c0-0.5-0.2-0.8-1.1-1l-1.7-0.4
		c-1.7-0.4-2.5-1.2-2.5-2.6c0-1.8,1.5-2.9,3.7-2.9c2.1,0,3.5,1.2,3.5,3h-2.2c0-0.8-0.5-1.3-1.4-1.3c-0.9,0-1.4,0.4-1.4,1.1
		c0,0.5,0.4,0.9,1.2,1l1.7,0.4c1.5,0.4,2.3,1.1,2.3,2.5c0,1.9-1.6,3-3.9,3c-2.3,0-3.8-1.2-3.8-3H82.3z"/>
	<path class="st3" d="M90.9,93.5c0,0.8,0.6,1.3,1.7,1.3c1.1,0,1.6-0.4,1.6-1.1c0-0.5-0.2-0.8-1.1-1l-1.7-0.4
		c-1.7-0.4-2.5-1.2-2.5-2.6c0-1.8,1.5-2.9,3.7-2.9c2.1,0,3.5,1.2,3.5,3H94c0-0.8-0.5-1.3-1.4-1.3c-0.9,0-1.4,0.4-1.4,1.1
		c0,0.5,0.4,0.9,1.2,1L94,91c1.5,0.4,2.3,1.1,2.3,2.5c0,1.9-1.6,3-3.9,3c-2.3,0-3.8-1.2-3.8-3H90.9z"/>
</g>
</svg>
