<?xml version="1.0" encoding="UTF-8" standalone="no"?>
<svg
   width="100"
   height="100"
   viewBox="0 0 128 128"
   version="1.1"
   id="svg4"
   sodipodi:docname="xd.svg"
   inkscape:version="1.2.2 (732a01da63, 2022-12-09)"
   xmlns:inkscape="http://www.inkscape.org/namespaces/inkscape"
   xmlns:sodipodi="http://sodipodi.sourceforge.net/DTD/sodipodi-0.dtd"
   xmlns="http://www.w3.org/2000/svg"
   xmlns:svg="http://www.w3.org/2000/svg">
  <defs
     id="defs8" />
  <sodipodi:namedview
     id="namedview6"
     pagecolor="#ffffff"
     bordercolor="#000000"
     borderopacity="0.25"
     inkscape:showpageshadow="2"
     inkscape:pageopacity="0.0"
     inkscape:pagecheckerboard="0"
     inkscape:deskcolor="#d1d1d1"
     showgrid="false"
     inkscape:zoom="5.8619152"
     inkscape:cx="20.215236"
     inkscape:cy="64.995822"
     inkscape:window-width="1920"
     inkscape:window-height="1009"
     inkscape:window-x="-8"
     inkscape:window-y="-8"
     inkscape:window-maximized="1"
     inkscape:current-layer="layer2" />
  <g
     inkscape:groupmode="layer"
     id="layer2"
     inkscape:label="Layer 2">
    <g
       inkscape:groupmode="layer"
       id="layer1"
       inkscape:label="Layer 1">
      <rect
         style="fill:#470136;fill-opacity:1;stroke-width:2.23092"
         id="rect656"
         width="91.055565"
         height="94.549309"
         x="16.813618"
         y="5.8956847" />
    </g>
    <text
       xml:space="preserve"
       style="font-weight:bold;font-size:23.7826px;font-family:Satoshi;-inkscape-font-specification:'Satoshi Bold';fill:#dd80bc;fill-opacity:1;stroke-width:2.16591"
       x="9.7805901"
       y="126.85329"
       id="text345"
       transform="scale(1.0046572,0.99536438)"><tspan
         sodipodi:role="line"
         id="tspan343"
         style="fill:#dd80bc;fill-opacity:1;stroke-width:2.16591"
         x="9.7805901"
         y="126.85329">Adobe Xd</tspan></text>
    <path
       fill="#dd80bc"
       d="M 115.83089,0.9874876 H 12.419105 c -0.333318,0 -0.916624,0.1666588 -0.916624,0.2499876 V 106.23252 H 116.49752 V 1.2374752 c 0,-0.083326 -0.33332,-0.2499876 -0.66663,-0.2499876 z M 105.24805,95.982997 H 23.668573 c -1.333271,0 -1.333271,0 -1.333271,-1.333271 V 13.070249 c 0,-1.333269 0,-0.999952 1.333271,-0.999952 h 81.496147 c 1.33327,0 1.33327,-0.333317 1.33327,1.083283 v 81.496146 c 0,0.999953 -0.24999,1.333271 -1.24994,1.333271 z M 74.582833,73.650719 c 4.666446,1.333271 9.332892,0.666636 13.999338,0.08333 0.999953,-0.08333 1.166611,-0.666635 1.166611,-1.666587 V 33.56928 h -6.249704 v 14.832632 c -3.499835,-0.333317 -6.666351,-0.249988 -9.749539,1.083283 -4.999764,2.083235 -7.499645,6.749681 -7.249658,13.416032 0.166659,5.416411 3.083188,9.332892 8.082952,10.749492 z m 0.999952,-18.249137 c 2.333223,-1.33327 4.749776,-1.249942 7.166329,-0.916624 0.166659,0 0.499977,0.416647 0.499977,0.666635 v 13.416033 c -2.249894,0.416647 -4.416459,0.583305 -6.499694,0 -2.666541,-0.749965 -4.16647,-2.74987 -4.499787,-5.749728 -0.249987,-3.249847 0.999952,-6.083046 3.333175,-7.416316 z M 47.334121,73.817378 54.083802,59.234734 60.583494,73.817378 H 67.99981 L 58.250271,53.151688 68.08314,33.485952 h -7.249657 l -6.99967,13.66602 -5.666398,-13.582692 -7.666304,-0.08333 8.999575,20.749018 -9.666211,19.582409 z"
       id="path2"
       style="stroke-width:0.833294" />
  </g>
</svg>
